<?xml version="1.0" encoding="UTF-8"?>
<svg id="Camada_1" data-name="Camada 1" xmlns="http://www.w3.org/2000/svg" xmlns:xlink="http://www.w3.org/1999/xlink" viewBox="0 0 150 100">
  <defs>
    <style>
      .cls-1 {
        fill: url(#Gradiente_sem_nome_66);
      }

      .cls-1, .cls-2, .cls-3 {
        stroke: #1d1d1b;
        stroke-linecap: round;
        stroke-linejoin: round;
        stroke-width: 1.42px;
      }

      .cls-2, .cls-4 {
        fill: #8da627;
      }

      .cls-3 {
        fill: url(#Gradiente_sem_nome_66-2);
      }
    </style>
    <linearGradient id="Gradiente_sem_nome_66" data-name="Gradiente sem nome 66" x1="95.7" y1="65.96" x2="92.25" y2="85.52" gradientUnits="userSpaceOnUse">
      <stop offset="0" stop-color="#8da626"/>
      <stop offset=".26" stop-color="#8fa725"/>
      <stop offset=".42" stop-color="#98ac23"/>
      <stop offset=".56" stop-color="#a7b520"/>
      <stop offset=".68" stop-color="#bbc21c"/>
      <stop offset=".8" stop-color="#d6d317"/>
      <stop offset=".9" stop-color="#f7e710"/>
      <stop offset=".92" stop-color="#fcea10"/>
    </linearGradient>
    <linearGradient id="Gradiente_sem_nome_66-2" data-name="Gradiente sem nome 66" x1="70.05" y1="49.12" x2="44.25" y2="39.73" xlink:href="#Gradiente_sem_nome_66"/>
  </defs>
  <path class="cls-1" d="M71.4,65.68s2.41-.09,9.12,5.16,31.07,22.53,35.59,17.34c0,0-8.83-1.51-16.64-11.28-7.81-9.78-15.45-17.47-28.08-11.22Z"/>
  <path class="cls-3" d="M38.8,54.71s19.38-2.03,27.52-7.68c8.14-5.65,11.61-14.84,4.15-14.02-7.46.81-15.68-1.15-31.67,21.7Z"/>
  <polygon class="cls-4" points="70.94 100 79.77 100 79.03 0 71.44 0 70.94 100"/>
  <path class="cls-2" d="M79.22,0c.2,31.22.4,65.78.6,100"/>
  <path class="cls-2" d="M70.89,100c.11-34.18.23-68.73.38-99.94"/>
</svg>