<?xml version="1.0" encoding="UTF-8"?>
<svg id="Camada_1" data-name="Camada 1" xmlns="http://www.w3.org/2000/svg" xmlns:xlink="http://www.w3.org/1999/xlink" viewBox="0 0 150 100">
  <defs>
    <style>
      .cls-1 {
        fill: url(#Gradiente_sem_nome_66);
      }

      .cls-1, .cls-2 {
        stroke: #1d1d1b;
        stroke-linecap: round;
        stroke-linejoin: round;
        stroke-width: 1.42px;
      }

      .cls-2, .cls-3 {
        fill: #8da627;
      }
    </style>
    <linearGradient id="Gradiente_sem_nome_66" data-name="Gradiente sem nome 66" x1="69.94" y1="52.4" x2="23.13" y2="69.43" gradientUnits="userSpaceOnUse">
      <stop offset="0" stop-color="#8da626"/>
      <stop offset=".26" stop-color="#8fa725"/>
      <stop offset=".42" stop-color="#98ac23"/>
      <stop offset=".56" stop-color="#a7b520"/>
      <stop offset=".68" stop-color="#bbc21c"/>
      <stop offset=".8" stop-color="#d6d317"/>
      <stop offset=".9" stop-color="#f7e710"/>
      <stop offset=".92" stop-color="#fcea10"/>
    </linearGradient>
  </defs>
  <path class="cls-1" d="M74.69,70.47s-.78-12.02-12.17-9.8c-11.4,2.22-13.84,8.44-23.31.89-9.47-7.55-5.11-10.14-17.24-7.25s3.33-9.69,15.83-6.22c12.51,3.47,15.32,3.54,19.74-.06,4.42-3.6,13.56-3.13,17.15,22.44Z"/>
  <polygon class="cls-3" points="71.35 100 79.13 100 78.36 0 72.07 0 71.35 100"/>
  <path class="cls-2" d="M72,0c-.29,20.71-.53,57.22-.73,100"/>
  <path class="cls-2" d="M78.51.06c.18,20.69.43,57.17.71,99.94"/>
</svg>