<?xml version="1.0" encoding="UTF-8"?>
<svg id="Camada_1" data-name="Camada 1" xmlns="http://www.w3.org/2000/svg" xmlns:xlink="http://www.w3.org/1999/xlink" viewBox="0 0 150 100">
  <defs>
    <style>
      .cls-1 {
        fill: url(#Gradiente_sem_nome_57-2);
      }

      .cls-1, .cls-2, .cls-3, .cls-4, .cls-5, .cls-6, .cls-7, .cls-8, .cls-9, .cls-10, .cls-11, .cls-12, .cls-13, .cls-14, .cls-15, .cls-16 {
        stroke: #1d1d1b;
        stroke-linecap: round;
        stroke-linejoin: round;
        stroke-width: 1.42px;
      }

      .cls-2 {
        fill: url(#Gradiente_sem_nome_57-11);
      }

      .cls-3 {
        fill: url(#Gradiente_sem_nome_57-14);
      }

      .cls-4 {
        fill: url(#Gradiente_sem_nome_57);
      }

      .cls-5 {
        fill: url(#Gradiente_sem_nome_57-8);
      }

      .cls-6 {
        fill: url(#Gradiente_sem_nome_57-9);
      }

      .cls-7 {
        fill: #8da627;
      }

      .cls-8 {
        fill: url(#Gradiente_sem_nome_57-3);
      }

      .cls-9 {
        fill: url(#Gradiente_sem_nome_57-5);
      }

      .cls-10 {
        fill: url(#Gradiente_sem_nome_57-7);
      }

      .cls-11 {
        fill: url(#Gradiente_sem_nome_57-4);
      }

      .cls-12 {
        fill: #e2aa1f;
      }

      .cls-13 {
        fill: url(#Gradiente_sem_nome_57-13);
      }

      .cls-14 {
        fill: url(#Gradiente_sem_nome_57-10);
      }

      .cls-15 {
        fill: url(#Gradiente_sem_nome_57-12);
      }

      .cls-16 {
        fill: url(#Gradiente_sem_nome_57-6);
      }
    </style>
    <linearGradient id="Gradiente_sem_nome_57" data-name="Gradiente sem nome 57" x1="103.77" y1="41.58" x2="103.77" y2="80.84" gradientUnits="userSpaceOnUse">
      <stop offset="0" stop-color="#efefef"/>
      <stop offset=".36" stop-color="#eeeeed"/>
      <stop offset=".5" stop-color="#eceae5"/>
      <stop offset=".6" stop-color="#e9e5d9"/>
      <stop offset=".69" stop-color="#e5dcc8"/>
      <stop offset=".76" stop-color="#dfd2b1"/>
      <stop offset=".83" stop-color="#d8c595"/>
      <stop offset=".89" stop-color="#cfb574"/>
      <stop offset=".95" stop-color="#c5a44e"/>
      <stop offset="1" stop-color="#ba9024"/>
      <stop offset="1" stop-color="#ba8f21"/>
    </linearGradient>
    <linearGradient id="Gradiente_sem_nome_57-2" data-name="Gradiente sem nome 57" x1="83.56" y1="28.45" x2="83.56" y2="49.41" xlink:href="#Gradiente_sem_nome_57"/>
    <linearGradient id="Gradiente_sem_nome_57-3" data-name="Gradiente sem nome 57" x1="62.03" y1="26.3" x2="62.03" y2="38.82" xlink:href="#Gradiente_sem_nome_57"/>
    <linearGradient id="Gradiente_sem_nome_57-4" data-name="Gradiente sem nome 57" x1="44.94" y1="40.13" x2="44.94" y2="57.51" xlink:href="#Gradiente_sem_nome_57"/>
    <linearGradient id="Gradiente_sem_nome_57-5" data-name="Gradiente sem nome 57" x1="55.05" y1="27.66" x2="55.05" y2="45.68" xlink:href="#Gradiente_sem_nome_57"/>
    <linearGradient id="Gradiente_sem_nome_57-6" data-name="Gradiente sem nome 57" x1="85.27" y1="29.66" x2="85.27" y2="47.13" xlink:href="#Gradiente_sem_nome_57"/>
    <linearGradient id="Gradiente_sem_nome_57-7" data-name="Gradiente sem nome 57" x1="40.28" y1="45.84" x2="40.28" y2="69.86" xlink:href="#Gradiente_sem_nome_57"/>
    <linearGradient id="Gradiente_sem_nome_57-8" data-name="Gradiente sem nome 57" x1="106.64" y1="49.4" x2="106.64" y2="65.73" xlink:href="#Gradiente_sem_nome_57"/>
    <linearGradient id="Gradiente_sem_nome_57-9" data-name="Gradiente sem nome 57" x1="46.48" y1="48.94" x2="46.48" y2="76.25" xlink:href="#Gradiente_sem_nome_57"/>
    <linearGradient id="Gradiente_sem_nome_57-10" data-name="Gradiente sem nome 57" x1="52.26" y1="54.11" x2="52.26" y2="74.22" xlink:href="#Gradiente_sem_nome_57"/>
    <linearGradient id="Gradiente_sem_nome_57-11" data-name="Gradiente sem nome 57" x1="93.76" y1="52.91" x2="93.76" y2="81.57" xlink:href="#Gradiente_sem_nome_57"/>
    <linearGradient id="Gradiente_sem_nome_57-12" data-name="Gradiente sem nome 57" x1="67.69" y1="55.12" x2="67.69" y2="84.3" xlink:href="#Gradiente_sem_nome_57"/>
    <linearGradient id="Gradiente_sem_nome_57-13" data-name="Gradiente sem nome 57" x1="86.73" y1="54.79" x2="86.73" y2="77.37" xlink:href="#Gradiente_sem_nome_57"/>
    <linearGradient id="Gradiente_sem_nome_57-14" data-name="Gradiente sem nome 57" x1="77.06" y1="54.14" x2="77.06" y2="80.55" xlink:href="#Gradiente_sem_nome_57"/>
  </defs>
  <path class="cls-4" d="M93.76,42.72s9.49-2.56,13.92,0c4.42,2.56,5.82,5.31,6.75,17.09s-3.73,20.43-6.75,21,.47-7.21-1.16-15.66c-1.63-8.45-6.52-13.49-10.94-15.16-4.42-1.67-1.81-7.26-1.81-7.26Z"/>
  <path class="cls-1" d="M79.04,31.87s2.89-4.61,7.69-3.12,3.02,14.2,3.02,14.2c0,0-5.36,6.61-6.29,6.45s-6.4-6.45-6.4-6.45l1.98-11.08Z"/>
  <path class="cls-8" d="M72.09,34.34s.78-3.81-4.4-6.68-9.38-.81-11.7,2.47-5.68,7.23-3.15,8.27,18.59.37,19.25-4.06Z"/>
  <path class="cls-7" d="M71.97,100c.16-11.29.33-18.1.51-19.01,1.54-7.73,5.66-4.16,6.08,0,.05.52.14,7.38.24,19.01"/>
  <path class="cls-7" d="M71.97,98.11c.16-21.55.33-34.54.51-36.29,1.54-14.75,5.66-7.94,6.08,0,.05,1,.14,14.08.24,36.29"/>
  <path class="cls-11" d="M53.58,42s-9.31-3.26-12.11-1.16c-2.79,2.1-6.17,11.64-4.89,15.72s4.66-6.06,6.17-8.21c1.51-2.15,5.94-3.32,8.5-2.5s2.33-3.84,2.33-3.84Z"/>
  <path class="cls-9" d="M63.51,42.23s2.1-2.2-2.09-6.48c-4.19-4.28-7.83-8.53-13.88-8.05-6.05.49,8.34,19.15,12.06,17.93s3.91-3.4,3.91-3.4Z"/>
  <path class="cls-16" d="M72.97,43.69s4.25,4.88,8.91,3.02,12.46-9.57,14.04-11.84c1.58-2.27,3.35-4.83-.71-5.19s-24.21,7.27-22.24,14.01Z"/>
  <path class="cls-10" d="M56.69,45.84s-18.86,2.65-25.15,11.06c-6.29,8.41-9.55,13.96-6.52,12.81,3.03-1.15,16.61-13.56,22.63-14.69s9.04-9.18,9.04-9.18Z"/>
  <ellipse class="cls-12" cx="75.66" cy="45.84" rx="22.82" ry="13.97"/>
  <path class="cls-5" d="M91.88,54.14s.69-4.57,7.09-4.69c6.4-.12,14.55-.29,18.04,3.46,3.49,3.76,5.47,10.97,3.73,12.6-1.75,1.63-8.27-6.47-12.69-8.01-4.42-1.54-8.96.14-11.87,0s-4.3-3.37-4.3-3.37Z"/>
  <path class="cls-6" d="M57.92,55.12s.62-1.56-1.24-3.74c-1.86-2.17-5.2-3.04-7.92-2.03s-12.42,8.12-12.53,15.57-1.05,10.71-1.28,11.29,11.87-9.78,14.32-12.81,8.65-8.29,8.65-8.29Z"/>
  <path class="cls-14" d="M63.99,56.27s-.29-2.45-4.71-2.13c-4.42.32-10.83,4.05-13.85,8.24-3.03,4.19-5.24,10.59-4.89,11.76s12.69-9.78,15.48-10.71,8.41-6.25,7.97-7.15Z"/>
  <path class="cls-2" d="M85.41,55.42s2.39-2.48,4.14-2.36,5.59-1.75,9.9,5.12c4.31,6.87,3.41,17.81-.97,21.19s-8.58,1.86-8.58,1.86c0,0,5.36-6.05,4.77-11.41-.58-5.36-10.72-11.11-9.26-14.4Z"/>
  <path class="cls-15" d="M72.43,57.4s-.12-1.98-3.14-2.21-5.36,0-6.52,2.91-4.31,7.45-1.75,14.67,9.31,11.41,11.06,11.53,4.54-2.1,2.56-3.84c-1.98-1.75-4.66-7.92-4.89-11.41-.23-3.49,3.11-10.62,2.68-11.64Z"/>
  <path class="cls-13" d="M81.8,55.12s3.91-2.07,6.35,4.1,5.01,10.42,3.03,14.99c-1.98,4.57-4.34,2.82-4.34,2.82,0,0-.67-6.79-2.42-11.54s-3.5-8.77-2.62-10.37Z"/>
  <path class="cls-3" d="M72.82,57.75s2.56-2.95,4.81-3.34,4.42-.7,4.19,1.4c-.23,2.1.62,13.19-.08,18.08s-10.31,8.04-9.62,6.05c.69-1.98,1.71-8.68,1.47-12.61s-1.09-6.41-.78-9.59Z"/>
</svg>