<?xml version="1.0" encoding="UTF-8"?>
<svg id="Camada_1" data-name="Camada 1" xmlns="http://www.w3.org/2000/svg" xmlns:xlink="http://www.w3.org/1999/xlink" viewBox="0 0 150 100">
  <defs>
    <style>
      .cls-1 {
        fill: #8da627;
      }

      .cls-1, .cls-2, .cls-3, .cls-4 {
        stroke: #1d1d1b;
        stroke-linecap: round;
        stroke-linejoin: round;
        stroke-width: 1.42px;
      }

      .cls-2 {
        fill: url(#Gradiente_sem_nome_62);
      }

      .cls-3 {
        fill: url(#Gradiente_sem_nome_64);
      }

      .cls-4 {
        fill: url(#Gradiente_sem_nome_59);
      }
    </style>
    <linearGradient id="Gradiente_sem_nome_64" data-name="Gradiente sem nome 64" x1="71.26" y1="63.73" x2="112.72" y2="63.73" gradientUnits="userSpaceOnUse">
      <stop offset="0" stop-color="#8da626"/>
      <stop offset=".18" stop-color="#91a825"/>
      <stop offset=".37" stop-color="#9eb022"/>
      <stop offset=".57" stop-color="#b4be1e"/>
      <stop offset=".78" stop-color="#d2d018"/>
      <stop offset=".99" stop-color="#f9e810"/>
      <stop offset="1" stop-color="#fcea10"/>
    </linearGradient>
    <linearGradient id="Gradiente_sem_nome_59" data-name="Gradiente sem nome 59" x1="76.26" y1="73.3" x2="18.3" y2="73.3" gradientUnits="userSpaceOnUse">
      <stop offset="0" stop-color="#8da626"/>
      <stop offset=".39" stop-color="#8fa725"/>
      <stop offset=".55" stop-color="#96ab24"/>
      <stop offset=".67" stop-color="#a2b321"/>
      <stop offset=".77" stop-color="#b4be1e"/>
      <stop offset=".86" stop-color="#cbcc19"/>
      <stop offset=".94" stop-color="#e7dd14"/>
      <stop offset=".98" stop-color="#fcea10"/>
    </linearGradient>
    <linearGradient id="Gradiente_sem_nome_62" data-name="Gradiente sem nome 62" x1="75.64" y1="73.3" x2="130.27" y2="73.3" gradientUnits="userSpaceOnUse">
      <stop offset="0" stop-color="#8da626"/>
      <stop offset=".24" stop-color="#90a725"/>
      <stop offset=".43" stop-color="#99ad23"/>
      <stop offset=".59" stop-color="#a9b720"/>
      <stop offset=".74" stop-color="#c0c51b"/>
      <stop offset=".88" stop-color="#ddd716"/>
      <stop offset="1" stop-color="#fcea10"/>
    </linearGradient>
  </defs>
  <path class="cls-3" d="M71.26,76.11s1.21,4.93,8.88,1.17c7.67-3.76,27.84-10.68,31.94-21.84,4.09-11.16-12.48-5.9-18.15-1.86-5.67,4.04-16.26,14.81-22.66,22.53Z"/>
  <path class="cls-1" d="M80.38,0c.27,51.3.46,90.24.46,97.65h-10.4S70.5,56.46,70.62,0"/>
  <path class="cls-4" d="M75.27,87.86s-1.02,2.35-5.22.41c-4.2-1.93-.13-4.13-9.85-5.46-9.72-1.33-26.02-3.05-34.76-10.06-8.75-7.02-11.38-15.02,3.28-15.2s27.73,7.01,37.22,16.49c9.5,9.49,11.96,12.65,9.33,13.81Z"/>
  <path class="cls-2" d="M130.27,64.87s-7.99,11.1-16.66,12.08c-8.67.98-33.66,12.36-37.34,8.26-3.68-4.1,9.21-23.23,28.22-24.46,19.02-1.23,24.2,2.01,25.78,4.11Z"/>
</svg>