<?xml version="1.0" encoding="UTF-8"?>
<svg id="Camada_1" data-name="Camada 1" xmlns="http://www.w3.org/2000/svg" viewBox="0 0 150 100">
  <defs>
    <style>
      .cls-1 {
        stroke: #1d1d1b;
        stroke-linecap: round;
        stroke-linejoin: round;
        stroke-width: 1.42px;
      }

      .cls-1, .cls-2 {
        fill: #8da627;
      }
    </style>
  </defs>
  <path class="cls-1" d="M79.7,88.44s-1.77-8.08,6.16-8.78,10.73,2.93,15.54-3.85,1.44-7.66,9.99-8.06c8.55-.4-4.04-5.76-11.62-1.09-7.59,4.67-9.43,5.25-13.03,3.71-3.6-1.54-9.53.52-7.04,18.06Z"/>
  <path class="cls-1" d="M77.74,50.2c-1.08-.48-2.37-13.04,3.85-17.78s13.04-6.52,14.22-5.04-.3,15.41-3.85,18.07-6.81,8-14.22,4.74Z"/>
  <polygon class="cls-2" points="70.7 100 80.26 100 79.6 0 71.08 0 70.7 100"/>
  <path class="cls-1" d="M70.62,100c.07-30.28.15-64.94.26-100"/>
  <path class="cls-1" d="M79.82,0c.2,35.02.4,69.67.56,100"/>
  <path class="cls-1" d="M31.19,24.22s16.87,28.11,37.67,29.52c20.8,1.41-3.63-26.61-21.34-26.26,0,0-11.57-.05-16.33-3.26Z"/>
</svg>