<?xml version="1.0" encoding="UTF-8"?>
<svg id="Camada_1" data-name="Camada 1" xmlns="http://www.w3.org/2000/svg" viewBox="0 0 150 100">
  <defs>
    <style>
      .cls-1 {
        fill: #8da627;
      }

      .cls-1, .cls-2, .cls-3 {
        stroke: #1d1d1b;
        stroke-linecap: round;
        stroke-linejoin: round;
        stroke-width: 1.42px;
      }

      .cls-2 {
        fill: #efefef;
      }

      .cls-3 {
        fill: #fdc323;
      }
    </style>
  </defs>
  <path class="cls-1" d="M72,100c.15-23.15.31-37.11.48-38.99,1.47-15.84,5.4-8.53,5.8,0,.05,1.07.13,15.13.23,38.99"/>
  <path class="cls-2" d="M63.62,59.23s3.38,2.08-4.73,6.1c-8.11,4.03-22.41,11.17-23.33,6.15-.92-5.02,22.92-12.79,28.06-12.26Z"/>
  <path class="cls-2" d="M88.85,54.02s.54.5,11.14,2.59c10.61,2.09,19.62,1.26,19.17-2.44-.45-3.69-12.22-3.82-15.66-3.65-3.44.18-19.01-1.81-14.65,3.49Z"/>
  <path class="cls-2" d="M69.55,62.17s2.77-.43,2.16,2.57.76,6.87-4.3,15.62c-5.06,8.75-8.26,9.5-10.76,8.56s2.69-11.7,12.89-26.74Z"/>
  <path class="cls-2" d="M78.55,35.79s-2.39,1.45-2.98-1.55c-.58-3-3.31-6.06-1.97-16.08,1.35-10.02,4.03-11.93,6.69-12s1.96,11.84-1.75,29.64Z"/>
  <path class="cls-2" d="M84.52,40.27s-1.97-5.68,8.25-13.07c10.21-7.39,14.64-6.58,14.89-3.99s-24.16,22.5-23.14,17.06Z"/>
  <path class="cls-2" d="M67.98,60s5.5,3.76-3.97,8.43c-9.47,4.66-11.04,15-17.75,15.56-6.71.56.45-12.84,21.72-23.99Z"/>
  <path class="cls-2" d="M74.09,33.87s-1.76,2.18-3.33-.44c-1.58-2.62-5.19-4.56-7.35-14.44-2.16-9.88-.29-12.59,2.18-13.57s5.89,10.46,8.49,28.45Z"/>
  <path class="cls-2" d="M88.47,42.5s.1-6.01,12.22-9.46c12.12-3.45,16.01-1.18,15.36,1.34s-30.4,12.88-27.58,8.12Z"/>
  <path class="cls-2" d="M83.61,62.41s5.99-.49,10.61,11.24c4.62,11.73,2.73,15.82.16,15.42s-15.79-29-10.77-26.65Z"/>
  <path class="cls-2" d="M79.75,64s5.81,1.55,6.23,14.15c.42,12.6-2.73,15.82-5.02,14.58-2.29-1.24-5.15-32.61-1.21-28.72Z"/>
  <path class="cls-2" d="M71.31,34.16s-.13-.72-7.35-8.76c-7.23-8.04-14.94-12.78-16.8-9.56-1.86,3.22,7.48,10.39,10.33,12.32,2.86,1.92,14.12,12.86,13.81,6Z"/>
  <path class="cls-2" d="M86.73,59.26s3.47-5.69,8.62,3.52c5.15,9.21,15.56,10.24,16.47,16.91s-12.84.22-25.1-20.43Z"/>
  <path class="cls-2" d="M88.54,55.95s-.41-3.94,7.72.03c8.13,3.98,22.51,10.97,19.09,14.75-3.42,3.78-24.11-10.39-26.81-14.78Z"/>
  <path class="cls-2" d="M82.25,36.93s-3.52.37.03-6.89c3.55-7.26,9.79-20.09,13.17-17.04s-9.27,21.52-13.2,23.93Z"/>
  <path class="cls-2" d="M73.42,63.53s-.51.53-2.73,11.11c-2.23,10.58-1.5,19.6,2.2,19.2,3.7-.4,3.98-12.17,3.84-15.61s2.05-18.99-3.31-14.7Z"/>
  <path class="cls-2" d="M65.26,40.69s-.27-.63-8.57-6.42c-8.3-5.79-16.35-8.46-17.35-5.13-1.01,3.34,9.03,7.88,12.05,9.02s15.61,8.71,13.88,2.53Z"/>
  <path class="cls-2" d="M60.81,50.6s2.33,3.21-6.7,3.83c-9.03.62-24.98,1.76-23.91-3.23s26.07-3.06,30.61-.6Z"/>
  <path class="cls-2" d="M61.57,47.04s-3.94,4.54-15.44-.61-13.02-9.39-10.9-10.9,31.57,9.67,26.34,11.51Z"/>
  <path class="cls-2" d="M86.93,49.81s.76-5.79,12.84-7.76c12.08-1.98,15.57.65,14.66,3.01s-30.75,9.03-27.5,4.75Z"/>
  <path class="cls-2" d="M59.26,55.6s-.72,5.79-12.79,7.85c-12.06,2.06-15.57-.54-14.68-2.91s30.69-9.25,27.47-4.94Z"/>
  <ellipse class="cls-3" cx="75.58" cy="50.28" rx="19.41" ry="21.8" transform="translate(14.08 117.05) rotate(-80.99)"/>
</svg>