<?xml version="1.0" encoding="UTF-8"?>
<svg id="Camada_1" data-name="Camada 1" xmlns="http://www.w3.org/2000/svg" viewBox="0 0 150 100">
  <defs>
    <style>
      .cls-1 {
        fill: #efefef;
      }

      .cls-1, .cls-2, .cls-3 {
        stroke: #1d1d1b;
        stroke-linecap: round;
        stroke-linejoin: round;
      }

      .cls-1, .cls-3 {
        stroke-width: 1.42px;
      }

      .cls-2 {
        fill: #8da627;
        stroke-width: 1.38px;
      }

      .cls-3 {
        fill: #fdc323;
      }
    </style>
  </defs>
  <path class="cls-2" d="M72,100c.15-28.04.31-44.94.48-47.21,1.47-19.19,5.4-10.33,5.8,0,.05,1.3.13,18.32.23,47.21"/>
  <g>
    <path class="cls-1" d="M58.01,29.85s2-2.1-1.99-6.19c-4-4.08-7.47-8.15-13.25-7.68-5.78.47,7.96,18.28,11.51,17.11s3.73-3.24,3.73-3.24Z"/>
    <path class="cls-1" d="M76.19,28.78s.57-17.51,7.18-17.51,5.74,2.87,4.02,6.32-2.21,11.2-4.98,12.35-6.21-1.15-6.21-1.15Z"/>
    <path class="cls-1" d="M79.59,32.79s5.08,3.52,8.95.71,9.29-11.78,10.21-14.25,1.97-5.26-1.88-4.64-20.69,12.4-17.29,18.18Z"/>
    <path class="cls-1" d="M91.28,33.28s-1.92-2.18,2.23-6.1c4.16-3.93,7.79-7.85,13.54-7.16,5.75.69-8.67,17.96-12.17,16.65s-3.6-3.39-3.6-3.39Z"/>
    <path class="cls-1" d="M90.06,36.34s24.63-11.09,27.47-5.13c2.84,5.96-1.53,7.09-7.07,7.82-5.54.73-16.54,5.42-19.33,3.68-2.79-1.74-1.07-6.37-1.07-6.37Z"/>
    <path class="cls-1" d="M92.95,47.95s6.03,1.06,14.48.8c8.45-.26,21.39-.89,21.62-5.52s-12.99-7.04-30.87-4.17c-17.88,2.87-5.24,8.88-5.24,8.88Z"/>
    <path class="cls-1" d="M100.23,46.53s12.99-1.87,21.4,4.59,4.79,6.67-2.55,5.46c-7.34-1.2-30.86-4.25-18.85-10.05Z"/>
    <path class="cls-1" d="M97.17,48.74s22.68,6.45,29.57,15.35c6.89,8.9-4.31,7.18-14.79-1.15-10.48-8.33-29.72-12.04-14.79-14.2Z"/>
    <path class="cls-1" d="M73.67,40.19s-3.97,2.59-5.95-.29c-1.97-2.88-2.38-21.15,1.48-31.84,3.86-10.7,11.83,16.29,4.46,32.13Z"/>
    <path class="cls-1" d="M62.98,34.19s-6.12-5.07-7.84-10.34c-1.72-5.27-2.69-14.33,1.51-15.25s10.45,17.73,10.24,20.86-2.59,5.93-3.92,4.73Z"/>
    <path class="cls-1" d="M49.07,38.2s-18.91-5.44-27.72-2.18c-8.81,3.26-.12,6.98,10.98,5.71,11.1-1.27,26.36,4.59,16.74-3.53Z"/>
    <path class="cls-1" d="M55.38,33.21s-10.59-7.75-21.04-6.01c-10.46,1.74-7.37,3.63-.32,6.02s29.23,10.76,21.37-.01Z"/>
    <path class="cls-1" d="M50.26,43.27s-13.17-1.03-19.37,1.29c-6.2,2.32-12.14,2.07-14.2,2.58s-2.32,4.82,6.72,5.77,38.74-2.41,26.86-9.64Z"/>
    <ellipse class="cls-3" cx="75.38" cy="43.43" rx="17.8" ry="26.13" transform="translate(15.61 106.64) rotate(-76.55)"/>
    <path class="cls-1" d="M83.66,58.96s3.26-4.22,6.41-1.89c3.16,2.32,10.34,21.56,10.19,34.34-.14,12.78-18.57-12.92-16.61-32.44Z"/>
    <path class="cls-1" d="M76.39,62.21s0,6.13,1.72,14.4c1.72,8.28,4.59,20.91,9.19,20.34,4.59-.57,4.68-14.02-1.25-31.12-5.93-17.11-9.66-3.62-9.66-3.62Z"/>
    <path class="cls-1" d="M54.73,49.75s2.09,2.58-2.5,7.18-8.61,9.19-14.93,8.33c-6.32-.86,9.65-21.1,13.49-19.52s3.93,4.02,3.93,4.02Z"/>
    <path class="cls-1" d="M96.72,57.39s6.13,11.7,11.4,15.71,8.21,9.18,9.74,10.65c1.54,1.47,5.32-.6,1.31-8.75-4.01-8.16-22.65-31.52-22.46-17.61Z"/>
    <path class="cls-1" d="M92.41,58.9s5.86,12.62,10.74,18.65c4.88,6.03,7.46,15.5,11.2,14.07s1.15-10.05-5.46-23.26c-6.6-13.21-19.75-16.03-16.48-9.47Z"/>
    <path class="cls-1" d="M62.86,55.97s-8.91,19.62-16.48,16.48c-7.58-3.14-5.24-5.99-1.64-9.09s7.81-11.67,11.53-11.66,6.59,4.26,6.59,4.26Z"/>
    <path class="cls-1" d="M68.88,59.48s.8-3.31-2.98-4.53-6.73-.36-7.42,2.15-5.77,11.78-7.25,14.72-3.31,7.78-1.39,7.6,12.5-7.37,19.04-19.93Z"/>
    <path class="cls-1" d="M76.72,59.23s0,11.2-4.18,17.8c-4.18,6.6-13.14,15.79-17.91,12.06-4.78-3.73,9.85-27.28,13.43-29.86,3.58-2.58,8.77-2.52,8.66,0Z"/>
  </g>
</svg>