<?xml version="1.0" encoding="UTF-8"?>
<svg id="Camada_1" data-name="Camada 1" xmlns="http://www.w3.org/2000/svg" viewBox="0 0 150 100">
  <defs>
    <style>
      .cls-1 {
        fill: #8da627;
      }

      .cls-1, .cls-2, .cls-3 {
        stroke: #1d1d1b;
        stroke-linecap: round;
        stroke-linejoin: round;
        stroke-width: 1.42px;
      }

      .cls-2 {
        fill: #efefef;
      }

      .cls-3 {
        fill: #fdc323;
      }
    </style>
  </defs>
  <path class="cls-1" d="M75.3,97.14s-1.24-7.83-8.57-5.68c-7.33,2.15-8.55,6.37-15.21,2.01s-3.96-6.33-11.74-3.69,1.59-6.55,9.99-5.04,10.25,1.38,12.92-1.25c2.67-2.63,8.69-2.88,12.6,13.65Z"/>
  <path class="cls-1" d="M72,100c.15-10.78.31-17.27.48-18.15,1.47-7.37,5.4-3.97,5.8,0,.05.5.13,7.04.23,18.15"/>
  <path class="cls-1" d="M72,100c.15-16.9.31-27.09.48-28.46,1.47-11.56,5.4-6.23,5.8,0,.05.78.13,11.04.23,28.46"/>
  <g>
    <path class="cls-2" d="M84.36,43.98s5.42-1.6,9.78-10.83,8.59-11.13,9.32-15.15c.74-4.03-5.64-1.62-11.92,7.48-6.27,9.1-9.52,15.47-9.63,18.97-.12,3.5,2.45-.47,2.45-.47Z"/>
    <path class="cls-2" d="M79.51,43.09s8.48-14.67,9.44-22.06.93-10.93-2.39-11.58-7.41,5.68-12.07,32.31l5.02,1.33Z"/>
    <path class="cls-2" d="M90.27,57.58s13.39,8.18,19.72,9.41c6.33,1.23,9.31,1.38,9.45-1.48s-5.69-6.78-28.67-12.24l-.5,4.32Z"/>
    <path class="cls-2" d="M64.79,47.42s-16.57-10.22-25.77-11.85c-9.2-1.63-2.68,5.42,2.46,7.77s19.5,10.13,23.18,9.01.13-4.92.13-4.92Z"/>
    <path class="cls-2" d="M87.62,63.09s15.83,11.33,24.9,13.59c9.06,2.26,3.04-5.22-1.92-7.92s-18.76-11.45-22.51-10.57c-3.75.87-.47,4.9-.47,4.9Z"/>
    <path class="cls-2" d="M77.62,64.85s-.18,2.69,5.09,11.96c5.27,9.27,7.82,12.83,9.68,12.1s2.1-7.98-4.26-16.76c-6.36-8.78-10.49-12.67-10.52-7.3Z"/>
    <path class="cls-2" d="M84.39,48.17s8.17-3.61,13.2-11.32c5.03-7.71,11.45-10.82,12.41-13.11s-1.05-5.77-7.17.27c-6.12,6.04-8.92,11.76-12.22,14.95-3.3,3.19-11.64,10.52-6.23,9.22Z"/>
    <path class="cls-2" d="M67.07,61.7s-9.4,5.11-12.88,10.3c-3.48,5.2-5.46,7.49-2.48,10.26,2.98,2.77,4.62-3.45,7.45-5.96s12.38-13.47,7.91-14.6Z"/>
    <path class="cls-2" d="M74.53,66.57s-2.7,7.3,3.27,18.02c5.97,10.72,6.16,1.4,6.37-.55s-4.96-24.01-9.65-17.47Z"/>
    <path class="cls-2" d="M75.96,44.46s7.36-27.07,6.52-30.98c-.84-3.91-4.22-4-5.12-2.26-.9,1.74-.62,5.59-2.05,6.98s-4.03,24.86-3.04,26.1,3.69.16,3.69.16Z"/>
    <path class="cls-2" d="M68.45,41.33s-2.77-18.73-3.28-23.5c-.51-4.77-.45-6.6,1.32-7.26,1.77-.65,3.56.46,5.45,13.71s.89,17.11-1.22,18.29c-2.11,1.18-2.27-1.24-2.27-1.24Z"/>
    <path class="cls-2" d="M65.95,59.89s-18.9,1.13-23.7,1.22-6.62-.13-7.11-1.95.77-3.51,14.14-4.23c13.37-.72,17.12.61,18.11,2.81s-1.43,2.15-1.43,2.15Z"/>
    <path class="cls-2" d="M83.17,58.71s14.2,12.53,17.66,15.85c3.47,3.32,4.6,4.76,3.67,6.4s-3.02,1.95-13.01-6.97c-9.99-8.92-11.71-12.5-10.86-14.76.85-2.26,2.53-.51,2.53-.51Z"/>
    <path class="cls-2" d="M68.41,63.88s-5.72,20.36-4.24,28.3c1.48,7.95,6.82,1.89,7.34-2.86s3.87-23.34,1.03-25.2-4.14-.25-4.14-.25Z"/>
    <path class="cls-2" d="M69.37,40.28s-9.54-18.86-16.19-23.92c-6.65-5.06-6.68,2.82-3.82,6.72,2.86,3.9,13.06,19.96,16.57,19.59s3.43-2.39,3.43-2.39Z"/>
    <path class="cls-2" d="M61.58,59.77s-9.27-1.24-17.43,4.78c-8.16,6.02-1.28,9.85,4.95,6.18,6.23-3.67,17.34-6.96,18.08-10.48.74-3.52-5.6-.48-5.6-.48Z"/>
    <path class="cls-2" d="M65.68,52.64s-16.61-3.26-20.45-4.25c-3.85-.99-10.83-1.77-12.69.99-1.86,2.76,3.08,3.53,16.51,4.74s17.01,2.55,17.78,1.42c.77-1.13-1.15-2.9-1.15-2.9Z"/>
    <path class="cls-2" d="M81.42,43.38s9.8-13.8,12.28-16.9,6.06-9.15,4.31-11.98-4.48,1.35-11.11,13.11c-6.63,11.75-9.31,14.46-8.6,15.63s3.11.14,3.11.14Z"/>
    <path class="cls-2" d="M67.6,49.95s-21.07-13.43-27.08-18.8c-6.01-5.37-4.58-6.77-4.24-7.3s1.93-2.82,8.14,3.42c0,0,.8,1.39,3.44,1.83s28.71,25.39,19.74,20.86Z"/>
    <path class="cls-2" d="M83.83,49.39s24.21-6.17,32.24-6.87c8.03-.7,8.07,1.3,8.22,1.91s.73,3.34-8.06,3.59c0,0-1.57-.37-3.69,1.26s-38.16,3.55-28.72.11Z"/>
    <path class="cls-2" d="M89.2,54.63s4.4,3.54,14.47,1.85c10.07-1.69,14.04.7,17.76-.99,3.73-1.69-1.89-5.56-12.94-5.52-11.05.04-18.13,1.02-21.08,2.92s1.79,1.74,1.79,1.74Z"/>
    <path class="cls-2" d="M86.8,47.86s4.59-5.39,12.41-9.93c7.82-4.54,11.35-4.58,16.45-5.85,5.09-1.27,4.32,3.17-9.03,10.03-13.35,6.86-21.12,10.51-19.83,5.75Z"/>
    <path class="cls-3" d="M76.9,36.43c9.26,1.03,16.04,8.5,15.13,16.68-.91,8.18-9.16,13.98-18.42,12.95-9.26-1.03-16.04-8.5-15.13-16.68.15-1.35.5-2.63,1.02-3.83,2.63-6.08,9.66-9.98,17.4-9.12Z"/>
  </g>
</svg>