<?xml version="1.0" encoding="UTF-8"?>
<svg id="Camada_1" data-name="Camada 1" xmlns="http://www.w3.org/2000/svg" viewBox="0 0 150 100">
  <defs>
    <style>
      .cls-1 {
        fill: #8da627;
      }

      .cls-1, .cls-2, .cls-3 {
        stroke: #1d1d1b;
        stroke-linecap: round;
        stroke-linejoin: round;
        stroke-width: 1.42px;
      }

      .cls-2 {
        fill: #efefef;
      }

      .cls-3 {
        fill: #fdc323;
      }
    </style>
  </defs>
  <path class="cls-1" d="M76.57,97.14s-1.24-7.83-8.57-5.68c-7.33,2.15-8.55,6.37-15.21,2.01s-3.96-6.33-11.74-3.69,1.59-6.55,9.99-5.04,10.25,1.38,12.92-1.25c2.67-2.63,8.69-2.88,12.6,13.65Z"/>
  <path class="cls-1" d="M72,100c.15-10.78.31-17.27.48-18.15,1.47-7.37,5.4-3.97,5.8,0,.05.5.13,7.04.23,18.15"/>
  <path class="cls-1" d="M72,100c.15-10.78.31-17.27.48-18.15,1.47-7.37,5.4-3.97,5.8,0,.05.5.13,7.04.23,18.15"/>
  <g>
    <path class="cls-2" d="M82.97,38.52s9.62-3.25,14.24-7.86c4.61-4.61,10.33-13.53,5.71-16.04s-14.54,6.59-16.24,9.16-4.41,10.37-3.71,14.74Z"/>
    <path class="cls-2" d="M86.28,40.98s7.22,2.81,16.54-1.2c9.32-4.01,13.03-8.32,13.23-10.93s-2.51-6.32-9.92-3.81-16.54,6.02-19.85,15.94Z"/>
    <path class="cls-2" d="M88.19,45.12s9.62,5.39,18.94,2.88,11.83-3.21,14.03-6.62-4.41-7.1-11.13-6.46-15.62,3.2-21.85,10.19Z"/>
    <path class="cls-2" d="M89.19,48.1s8.92,9.22,19.75,8.22c10.83-1,13.23-3.61,12.73-6.62s-11.33-5.71-15.64-6.22c-4.31-.5-16.84,4.61-16.84,4.61Z"/>
    <path class="cls-2" d="M88.19,54.83s8.11,9.41,18.44,11.21,13.33.6,13.93-1-2.11-8.12-13.03-11.13c-10.93-3.01-19.34-1.7-19.34-1.7v2.62Z"/>
    <path class="cls-2" d="M86.28,55.72s3.61,10.83,13.63,16.34c10.02,5.51,11.73,4.02,13.33,3.11s2.61-3.41-5.41-11.13-21.55-8.32-21.55-8.32Z"/>
    <path class="cls-2" d="M82.97,58.93s1.1,9.32,9.52,16.34c8.42,7.02,15.44,7.18,17.04,6.15s3.41-4.11-2.51-11.44c-5.91-7.33-24.06-11.04-24.06-11.04Z"/>
    <path class="cls-2" d="M78.36,61.56s8.92,11.6,9.52,18.42c.6,6.82.6,11.02-2.61,11.63-3.21.6-8.62-3.31-10.53-12.73s1.3-18.45,1.3-18.45l2.31,1.13Z"/>
    <path class="cls-2" d="M81.17,62.24s14.53,6.92,17.84,14.03c3.31,7.12,4.81,11.53.4,12.63-4.41,1.1-16.34-2.98-21.55-24.9l3.31-1.77Z"/>
    <path class="cls-2" d="M71.44,61.56s-6.04,7.29-7.03,12.5-.1,16.44,3.52,17.14,5.72.6,8.03-5.21c2.31-5.81,2.11-7.62-1.1-21.75l-3.41-2.68Z"/>
    <path class="cls-2" d="M67.43,60.43s-13.43,6.78-15.24,21.49c-1.8,14.7,9.37,5.38,11.7,1.47s5.84-14.08,6.34-21.83l-2.81-1.13Z"/>
    <path class="cls-2" d="M66.93,59.23s-.6,8.22-6.62,14.74c-6.01,6.52-10.26,9.32-13.8,8.22s-4.34-13.63,17.41-24.66l3.01,1.7Z"/>
    <path class="cls-2" d="M60.72,53.21s-9.56-.2-14.2,3.71-8.95,9.12-7.75,13.93,11.03,1.7,14.13-.6,9.84-11.5,9.48-15.93l-1.66-1.12Z"/>
    <path class="cls-2" d="M61.47,50.01s-5.83-3.31-16.68-1.2c-10.84,2.11-12.25,6.72-11.85,8.72s2,4.31,8.82,4.01,17.91-3.21,20.38-7.72-.68-3.81-.68-3.81Z"/>
    <path class="cls-2" d="M50.69,38.52s-8.72-.95-15.14,1.16c-6.42,2.11-10.53,9.82.8,11.03,11.33,1.2,21.82,2,25.8,0s.87-11.34-11.46-12.19Z"/>
    <path class="cls-2" d="M63.73,39.98s-3.01-8.92-18.95-13.83c-15.94-4.91-8.22,7.92-4.81,11.53s9.82,6.42,16.64,6.82c6.82.4,10.06-.03,7.12-4.51Z"/>
    <path class="cls-2" d="M66.33,40.98s-.07-.19-.19-.53c-.91-2.55-4.92-13.59-8.63-19.41-4.21-6.62-9.92-7.72-10.53-6.92s-3.11,1.37-1.4,7.25c1.7,5.88,4.68,14.6,18.18,21.42l2.57-1.8Z"/>
    <path class="cls-2" d="M70.34,40.38s.67-15.94-2.17-22.15-4.85-10.53-9.26-11.03-5.01,6.62-5.01,8.52,2.4,20.15,13.73,24.56l2.71.1Z"/>
    <path class="cls-2" d="M62.92,5.6s3.01-2.81,5.31-.4,6.92,7.62,6.62,21.05c-.3,13.43-.7,12.43-2.51,12.13s-15.24-27.07-9.42-32.78Z"/>
    <path class="cls-2" d="M83.95,7.1s1.83-3.51,4.24-3.51,4.31.6,4.81,3.51,1.4,9.62-2.91,19.05-7.02,11.93-10.33,11.73.44-25.76,4.18-30.78Z"/>
    <path class="cls-2" d="M74.85,35.07s7.32-4.31,8.62-15.34-.2-14.54-3.11-16.04-5.71-1.9-7.62,4.91c-1.9,6.82-4.01,29.47,2.11,26.47Z"/>
    <ellipse class="cls-3" cx="74.85" cy="48.9" rx="17.04" ry="16.54"/>
  </g>
</svg>