<?xml version="1.0" encoding="UTF-8"?>
<svg id="Camada_1" data-name="Camada 1" xmlns="http://www.w3.org/2000/svg" viewBox="0 0 150 100">
  <defs>
    <style>
      .cls-1, .cls-2, .cls-3, .cls-4, .cls-5 {
        stroke: #1d1d1b;
        stroke-linecap: round;
        stroke-linejoin: round;
      }

      .cls-1, .cls-2, .cls-3, .cls-5 {
        stroke-width: 1.42px;
      }

      .cls-1, .cls-4 {
        fill: #8da627;
      }

      .cls-2 {
        fill: #efefef;
      }

      .cls-3 {
        fill: #8fa928;
      }

      .cls-4 {
        stroke-width: 1.38px;
      }

      .cls-5 {
        fill: #fdc323;
      }
    </style>
  </defs>
  <path class="cls-3" d="M77.59,75.36s2.67-8.99,17.73-6.56,24.29,7.3,27.2,3.07,7.53,2.52-3.16,9.07c-10.69,6.56-19.19,9.72-32.79,4.13-13.6-5.59-8.99-9.72-8.99-9.72Z"/>
  <path class="cls-1" d="M75.49,96.77s-1.83-7.71-8.97-5.02c-7.15,2.69-8.05,6.99-15.02,3.14-6.97-3.85-4.43-6.01-11.98-2.81-7.55,3.2,1.09-6.65,9.59-5.77s10.33.62,12.8-2.21c2.47-2.82,8.45-3.51,13.59,12.67Z"/>
  <path class="cls-1" d="M72,100c.15-10.78.31-17.27.48-18.15,1.47-7.37,5.4-3.97,5.8,0,.05.5.13,7.04.23,18.15"/>
  <path class="cls-4" d="M72,100c.15-27.44.31-43.98.48-46.21,1.47-18.78,5.4-10.11,5.8,0,.05,1.27.13,17.93.23,46.21"/>
  <g>
    <path class="cls-2" d="M92.02,40.13s11.24-12.47,19.87-13.82c8.64-1.35,16.28-3.26,18.64-.45s-3.76,6.29-9.91,7.19-17.03,5.28-21.54,7.87-7.06-.79-7.06-.79Z"/>
    <path class="cls-2" d="M90.95,38.11s7.12-12.35,18.08-15.87c10.96-3.52,13.99-3.85,15.68-2.62s3.77,1.29-7.22,9.46-22.78,16.83-25.59,16.27-.94-7.25-.94-7.25Z"/>
    <path class="cls-2" d="M89.48,46.23s18.99-1.46,23.82-.79,13.48,3.71,15.06,5.73,3.15,5.62-4.38,6.41-30.79-2.81-34.5-4.49,0-6.85,0-6.85Z"/>
    <path class="cls-2" d="M82.25,39.57s5.2,3.85,6.8-1.35,7.37-20.41,6.67-25.89-.47-9.76-3.73-9.53-8.32,4.18-8.82,6.36-2.77,18.16-2.94,22.88,2.02,7.53,2.02,7.53Z"/>
    <path class="cls-2" d="M70.32,39.17s3.53-6.13-5.48-20.57c-9.01-14.44-13.4-7.02-13.28-5.23s1.57,7.19,3.93,11.91c2.36,4.72,13.15,14.5,14.83,13.88Z"/>
    <path class="cls-2" d="M73.27,58.92s-4.21,7.01-1.5,11.05c2.71,4.05,4.51,6.36,6.42,4.47s4.16-1.08,3.59-5.69-1.45-11.59-4.1-12.82-4.41,2.99-4.41,2.99Z"/>
    <path class="cls-2" d="M85.11,51.73s15.53-4.86,23.17-1.14,11.01,8.33,9.33,9.34-2.73,3.82-17.72.67-17.01-6.51-16.67-7.81,1.89-1.07,1.89-1.07Z"/>
    <path class="cls-2" d="M84.33,51.11s13.93,6.55,18.54,11.59,6.41,9.85,6.52,14.42-2.58,6.92-5.06,5.01-15.28-15.62-17.53-19.89-7.19-10.01-5.62-11.13,3.15,0,3.15,0Z"/>
    <path class="cls-2" d="M77.87,56.06s-1.46,2.36.9,7.08c2.36,4.72,10.6,13.26,14.18,12.14,3.58-1.12,2.15-8.65,0-12.14s-6.81-7.05-11.39-7.57-3.69.49-3.69.49Z"/>
    <path class="cls-2" d="M68.25,55.21s-18.06,16.22-20.42,22.85c-2.36,6.63-2.36,12.14,3.93,9.1,6.29-3.03,9.1-7.64,11.91-11.8s8.76-14.61,8.54-19.55-3.96-.6-3.96-.6Z"/>
    <path class="cls-2" d="M65.76,48.24s-8.09-7.78-26.63-3.5-21.46,7.99-20.23,11.14,4.16,4.94,15.28,2.47c11.12-2.47,23.04-6.18,26.63-6.18s4.94-3.93,4.94-3.93Z"/>
    <path class="cls-2" d="M60.99,45.7s-17.31-13.82-27.98-14.83c-10.68-1.01-8.43,2.47-2.36,5.9,6.07,3.43,26.18,13.32,27.31,13.54s4.16.79,4.94,0-1.91-4.61-1.91-4.61Z"/>
    <path class="cls-2" d="M68.39,43.96s-4.88-16.79-14.89-27.05-14.02-8.03-15.1-7.25-1.73,4.79,1.33,8.87,23.97,25.45,25.93,26.05,2.73-.63,2.73-.63Z"/>
    <path class="cls-2" d="M70.77,36.74s-4.61-6.3-7.53-16.65-4.94-13.72-.79-13.05,5.51,3.15,6.29,6.85,6.85,23.66,2.02,22.84Z"/>
    <path class="cls-2" d="M83.68,38.53s3.73-7.16,3.86-8.97,1.29-10.4,4.82-15.42,7.92-10.9,11.54-10.63,4.1,3-1.78,15.12-14.48,20.7-15.89,21.45-2.56-1.54-2.56-1.54Z"/>
    <path class="cls-2" d="M88.41,40.29s1.35-9.55,6.63-12.92c5.28-3.37,10.68-6.74,15.17-4.94s2.92,2.7-1.69,3.26c-4.61.56-11.98,9.55-14.81,11.57s-2.27,4.61-4.06,4.94-1.24-1.91-1.24-1.91Z"/>
    <path class="cls-2" d="M80.89,38.08s3.37-12.98,2.7-23.2-2.13-10.9-4.55-8.54c-2.42,2.36-3.66,5.73-4.33,11.91-.67,6.18,2.9,18.88,4.48,19.83s1.7,0,1.7,0Z"/>
    <path class="cls-2" d="M76.34,38.13s-8.43-6.8-9.44-19.94,1.91-15.96,7.3-14.72c5.39,1.24,4.16,8.09,4.27,10.34s.33,23.37-2.14,24.33Z"/>
    <path class="cls-2" d="M66.59,44.06s-10.79-18.32-21.13-23.71c-10.34-5.39-13.04-3.03-13.37-1.35s7.64,13.37,11.91,16.29,16.97,12.81,20.23,12.7c3.26-.11,2.36-3.93,2.36-3.93Z"/>
    <path class="cls-2" d="M64.72,44.01s-21.37-14.61-32.04-15.96-11.23,3.15-7.18,7.53c4.05,4.38,29.67,15.17,36.52,15.39"/>
    <path class="cls-2" d="M62.59,53.49s-1.01,2.58-7.64,2.14-37.53-6.97-34.95-9.55,5.06-3.82,13.15-2.81c8.09,1.01,22.25,3.48,24.83,3.48s7.03,3.6,6.55,4.16-1.94,2.58-1.94,2.58Z"/>
    <path class="cls-2" d="M66.13,52.59s-22.92,4.38-28.88,9.33-12.47,9.78-12.36,16.29c.11,6.52,4.27,6.18,9.1,1.46s12.59-11.35,19.55-15.06,13.6-6.52,14.05-9.5-1.46-2.52-1.46-2.52Z"/>
    <path class="cls-2" d="M68.13,57.84s-1.54,6.02-8.51,10.75c-6.97,4.73-16.52,12.03-20.45,11.36s1.12-9.21,5.28-12.47,12.92-6.63,16.63-7.98c3.71-1.35,5.06-3.04,5.4-3.66s1.65,2,1.65,2Z"/>
    <path class="cls-2" d="M70.54,55.3s-11.85,12.45-9.04,19.42,6.53,6.61,9.47,4.81-1.31-8.94,2.53-17.09c3.85-8.15.38-7.58-2.96-7.14Z"/>
    <path class="cls-2" d="M86.98,51.83s12.22-1.83,22-4.68c9.78-2.85,18.99-8.04,15.06-10.39s-17.27-1.61-32.18,8.69c-14.91,10.31-4.88,6.37-4.88,6.37Z"/>
    <ellipse class="cls-5" cx="75.49" cy="46.75" rx="18.2" ry="12.26" transform="translate(-10.26 23.72) rotate(-16.74)"/>
  </g>
</svg>