<?xml version="1.0" encoding="UTF-8"?>
<svg id="Camada_1" data-name="Camada 1" xmlns="http://www.w3.org/2000/svg" viewBox="0 0 150 100">
  <defs>
    <style>
      .cls-1, .cls-2 {
        fill: #8da627;
      }

      .cls-2 {
        stroke: #1d1d1b;
        stroke-linecap: round;
        stroke-linejoin: round;
        stroke-width: 1.42px;
      }
    </style>
  </defs>
  <path class="cls-2" d="M35.32,50s3.69-10.37,13.82-14.19c10.13-3.82,23.92-5.03,24.54-1.12s-9.37,8.41-19.18,10.28c-9.81,1.87-19.18,5.03-19.18,5.03Z"/>
  <polygon class="cls-1" points="70.7 100 80.26 100 79.6 0 71.08 0 70.7 100"/>
  <path class="cls-2" d="M70.62,100c.07-30.28.15-64.94.26-100"/>
  <path class="cls-2" d="M79.82,0c.2,35.02.4,69.67.56,100"/>
  <path class="cls-2" d="M97.69,90.99s-10,.23-14.89-5.62-8.39-13.73-5.5-15.79,17.95,4,20.39,21.41Z"/>
  <path class="cls-2" d="M78.31,30.45s7.37-1.54,13.93,4.8,9.68,10.49,12.56,11.97-7.27,4.44-16.12,0-17.82-10.73-10.37-16.77Z"/>
  <path class="cls-2" d="M70.86,55.46c-.83-2.59-4.24-7.96-11.64-5.73-8.23,2.47-6.99,11.1-4.11,22.21,2.88,11.1,1.23,24.27,1.23,24.27,0,0,26.9-13.57,27.02-28.38.12-14.81-15.18-14.4-18.22-9.05,0,0-2.6,3.06-2.19,11.01.41,7.95.02,8.21.02,8.21"/>
</svg>