<?xml version="1.0" encoding="UTF-8"?>
<svg id="Camada_1" data-name="Camada 1" xmlns="http://www.w3.org/2000/svg" viewBox="0 0 150 100">
  <defs>
    <style>
      .cls-1, .cls-2 {
        fill: #8da627;
      }

      .cls-2 {
        stroke: #1d1d1b;
        stroke-linecap: round;
        stroke-linejoin: round;
        stroke-width: 1.42px;
      }
    </style>
  </defs>
  <g>
    <path class="cls-2" d="M78.22,17.22s6.22-9.78,20-4.89,27.54,17.33,33.32,20.44.01,6.22-23.1,2.22-20.89-4.44-30.22-17.78Z"/>
    <path class="cls-2" d="M79.14,17.22s16.93-.33,36.52,11.22"/>
  </g>
  <polygon class="cls-1" points="70.7 100 80.26 100 79.6 0 71.08 0 70.7 100"/>
  <path class="cls-2" d="M70.62,100c.07-30.28.15-64.94.26-100"/>
  <path class="cls-2" d="M79.82,0c.2,35.02.4,69.67.56,100"/>
  <g>
    <path class="cls-2" d="M108.59,96.11s2.07-23.21-8.21-33.09-18.95,0-18.95,0c0,0-4.58-2.36-6.07.18s-.88,11.93,11.87,19.05c7.91,4.41,21.36,13.86,21.36,13.86Z"/>
    <path class="cls-2" d="M98.15,78.72s-6.9-11.57-16.71-15.7"/>
  </g>
  <g>
    <path class="cls-2" d="M74.77,12.48s7.56,13.88-7.56,18.72-7.56,13.28-25.78,19.95c0,0-1.78-49.33,33.33-38.67Z"/>
    <path class="cls-2" d="M74.38,13.03s-15.33.22-25.11,20.78"/>
  </g>
</svg>