<?xml version="1.0" encoding="UTF-8"?>
<svg id="Camada_1" data-name="Camada 1" xmlns="http://www.w3.org/2000/svg" viewBox="0 0 150 100">
  <defs>
    <style>
      .cls-1, .cls-2, .cls-3, .cls-4 {
        stroke: #1d1d1b;
        stroke-linecap: round;
        stroke-linejoin: round;
        stroke-width: 1.42px;
      }

      .cls-1, .cls-5 {
        fill: #8da627;
      }

      .cls-2 {
        fill: #efefef;
      }

      .cls-3 {
        fill: #8fa928;
      }

      .cls-4 {
        fill: #fdc323;
      }
    </style>
  </defs>
  <path class="cls-3" d="M122.32,32.44s-7.82-.28-15.66,2.46-28.14,13.11-28.24,32.66h-4.23v-12.74s12.7-19.24,28.19-23.85,11.34-11.27,11.34-11.27l8.59,12.73Z"/>
  <g>
    <path class="cls-2" d="M121.07,17.09c.21-.58,3.7-8.22,1.96-12.36s-3.64.5-3.9,1.68-1.6,8.54-1.26,9.44,3.19,1.25,3.19,1.25Z"/>
    <path class="cls-2" d="M113.61,17.12s-.29-8.74-4.37-12.01c-4.09-3.27-12.13-.92-8.98,1.04s7,2.27,8.73,7,1.29,7.85,4.62,3.97Z"/>
    <path class="cls-2" d="M126.68,33.68s3.59.78,5.93.24c1.98-.46,5.69-.41,9.07.67s5.91,3.36,3.93,4.82c-2.23,1.64-15.4-2.72-19.5-3.88l.56-1.85Z"/>
    <path class="cls-2" d="M127.44,26.65s11.72-3.66,14.35-1.97,1.76,2.74-4.43,4.39c-6.18,1.65-8.26,3.74-10.84,2.92s.91-5.33.91-5.33Z"/>
    <path class="cls-4" d="M126.64,35.79c-3.42,2.08-7.89-1.5-11.47-7.38s-4.08-11.24-.66-13.32,9.47-.11,13.05,5.78,2.5,12.84-.92,14.93Z"/>
    <path class="cls-2" d="M125.38,36.47s1.69-.69,6.36,7.71,7.04,10.28,3.47,9.44-6.88-6.71-7.84-9.37-3.22-7.33-1.99-7.78Z"/>
    <path class="cls-2" d="M122.8,35.23s2.34.54,3.01,3.22.21,7.27-2.06,11.94-3.24,2.33-3.83,2.19.59-6.65,1.49-11.63,1.39-5.72,1.39-5.72Z"/>
    <path class="cls-2" d="M117.53,31.27s1.47,6.21-.92,12.14c-2.39,5.93.58,6.96,3.07,3.42s4.07-11.14,1.93-13.46-3.3-2.98-4.08-2.1Z"/>
    <path class="cls-2" d="M113.99,24.35s2.33,1.95,1.58,3.4-7.86,4.62-11.64,4.34-.78-3.49,2.82-4.51,7.24-3.23,7.24-3.23Z"/>
    <path class="cls-2" d="M112.76,18.61s-4.02-6.43-7.53-6.41-8.82.29-11.02,1.99-1,3.27,7.53,2.21c0,0,2.39-.77,7.26,2.74s4.26.2,3.77-.53Z"/>
    <path class="cls-2" d="M111.38,19.57s2.96,2.02,2.68,3.21-.43,2.78-4.58.48-6.53-2.2-7.9,1.1-2.18,5.21-4.28,3.13,1.44-9.26,3.17-10.36,4.47-2.86,10.9,2.45Z"/>
  </g>
  <path class="cls-1" d="M27.99,3.04s11.11,31.83,23.13,43.55c12.03,11.72,27.58,14.39,23.25,2.15-4.32-12.24-4.7-26.71-46.39-45.7Z"/>
  <polygon class="cls-5" points="71.35 100 79.13 100 78.36 0 72.07 0 71.35 100"/>
  <path class="cls-1" d="M72,0c-.29,20.71-.53,57.22-.73,100"/>
  <path class="cls-1" d="M78.51.06c.18,20.69.43,57.17.71,99.94"/>
  <path class="cls-3" d="M77.69,79.28s3.02-10.16,20.04-7.41c17.02,2.75,27.45,8.24,30.75,3.47s8.51,2.84-3.57,10.25-21.69,10.98-37.06,4.67c-15.37-6.31-10.16-10.98-10.16-10.98Z"/>
</svg>