<?xml version="1.0" encoding="UTF-8"?>
<svg id="Camada_1" data-name="Camada 1" xmlns="http://www.w3.org/2000/svg" viewBox="0 0 150 100">
  <defs>
    <style>
      .cls-1 {
        stroke-width: 1.38px;
      }

      .cls-1, .cls-2, .cls-3 {
        fill: #8da627;
      }

      .cls-1, .cls-3 {
        stroke: #1d1d1b;
        stroke-linecap: round;
        stroke-linejoin: round;
      }

      .cls-3 {
        stroke-width: 1.42px;
      }
    </style>
  </defs>
  <path class="cls-3" d="M139.67,2.28s-15.41,12.36-20.15,16.55-11.85,12.49-34.37,16.04-9.48-13.71,0-16.04,51.56-14.18,54.52-16.55Z"/>
  <path class="cls-3" d="M71.71,40.79S28.84,25.39,25.98,23.31s-6.71-4.44-7.9-8.89c0,0,6.96,1.19,16.96-2.67s20.07-2.07,27.48,6.22,14.81,20.15,9.19,22.81Z"/>
  <path class="cls-3" d="M15.37,69.99s7.23,10.85,18.81,13.38,11.21,7.6,30.92,11.03,7.23-23.15-.9-24.96-42.32-3.98-48.83.54Z"/>
  <path class="cls-3" d="M78.01,73.69s2.72-9.6.72-13.76-5.79-11.05,6.52-15.39c12.31-4.35,39.66-15.39,37.12-10.14s-6.16,11.29-5.98,14.52-7.79,12.44-15.21,14.44c-7.42,2-21.55,18.84-23.18,10.33Z"/>
  <polygon class="cls-2" points="70.94 100 79.77 100 79.03 0 71.44 0 70.94 100"/>
  <path class="cls-1" d="M79.22,0c.2,31.22.4,65.78.6,100"/>
  <path class="cls-1" d="M70.89,100c.11-34.18.23-68.73.38-99.94"/>
</svg>