<?xml version="1.0" encoding="UTF-8"?>
<svg id="Camada_1" data-name="Camada 1" xmlns="http://www.w3.org/2000/svg" viewBox="0 0 150 100">
  <defs>
    <style>
      .cls-1, .cls-2 {
        fill: #8da627;
      }

      .cls-2 {
        stroke: #1d1d1b;
        stroke-linecap: round;
        stroke-linejoin: round;
        stroke-width: 1.42px;
      }
    </style>
  </defs>
  <path class="cls-2" d="M53.71,21.66s2.06-8.63,7.57-10.64c.69-.25,1.36-.44,2.01-.58.17-.04.33-.07.5-.09,4.38-.74,8.54.79,9.9,4.55,3.71,10.23-12.44,33.06-33.15,36.8,0,0,1.45-13.48,0-23.08-1.89-12.51,2.71-18.31,4.68-20.47,2.86-3.14,10.53-7.77,16.63-.58.75.89,1.36,1.76,1.84,2.61"/>
  <polygon class="cls-1" points="70.94 100 79.77 100 79.03 0 71.44 0 70.94 100"/>
  <path class="cls-2" d="M79.22,0c.2,31.22.4,65.78.6,100"/>
  <path class="cls-2" d="M70.89,100c.11-34.18.23-68.73.38-99.94"/>
</svg>