<?xml version="1.0" encoding="UTF-8"?>
<svg id="Camada_1" data-name="Camada 1" xmlns="http://www.w3.org/2000/svg" viewBox="0 0 150 100">
  <defs>
    <style>
      .cls-1 {
        stroke-width: 1.38px;
      }

      .cls-1, .cls-2 {
        fill: #8da627;
        stroke: #1d1d1b;
        stroke-linecap: round;
        stroke-linejoin: round;
      }

      .cls-2 {
        stroke-width: 1.42px;
      }
    </style>
  </defs>
  <path class="cls-2" d="M75.71,42.26s-17.28,2.29-25.92-.75c-8.64-3.05-20.05,3.52-26.27,3.52s-11.75-5.25-11.75-5.25c0,0,13.83-9.92,29.38-11.15,15.55-1.23,22.12-.89,27.65,4.3s9.75,9.02,6.91,9.33Z"/>
  <path class="cls-2" d="M29.61,59.33s4.38-12.3,16.39-16.83,28.37-5.97,29.1-1.33-11.11,9.97-22.75,12.19-22.75,5.97-22.75,5.97Z"/>
  <path class="cls-1" d="M80.38,0c.27,51.3.46,90.24.46,97.65h-10.4S70.5,56.46,70.62,0"/>
  <path class="cls-2" d="M122.54,68.31s-6.51,6.46-19.83,8.24-21.86,10.67-24.7,10.07-2.69-11.85,9.09-15.41,21.19,1.3,35.45-2.9Z"/>
  <path class="cls-2" d="M108.04,28.03s-8.68,11.18-18.06,13.56-14.34,6.67-14.28.67,3.89-12.38,13.23-14.23,27.61-24.69,26.48-17.71-3.62,13.53-7.37,17.71Z"/>
</svg>