<?xml version="1.0" encoding="UTF-8"?>
<svg id="Camada_1" data-name="Camada 1" xmlns="http://www.w3.org/2000/svg" viewBox="0 0 150 100">
  <defs>
    <style>
      .cls-1 {
        fill: #8da627;
        stroke: #1d1d1b;
        stroke-linecap: round;
        stroke-linejoin: round;
        stroke-width: 1.42px;
      }
    </style>
  </defs>
  <path class="cls-1" d="M128.7,8.6s-11.71,9.4-15.31,12.58-9.01,9.49-26.12,12.19-7.21-10.42,0-12.19,39.18-10.78,41.43-12.58Z"/>
  <path class="cls-1" d="M26.22,8.6s27.89-.12,40.35,7.08,18.83,20.54,8.09,20.54-22.14,4.32-48.44-27.62Z"/>
  <path class="cls-1" d="M80.38,0c.27,51.3.46,90.24.46,97.65h-10.4S70.5,56.46,70.62,0"/>
  <path class="cls-1" d="M52.99,46.97c2.37-4.14,8.85-14.47,17.02-16.06,1.41-.27,4.83-.94,6.15.77.46.59.51,1.62,0,4.39-.71,3.83-3.5,6.26-7.69,10.21-3.63,3.43-6.48,4.74-14.71,9.66-2.92,1.74-7.13,4.31-12.19,7.58,0,0,1.17-3,1.21-7.25.02-2.88-.34-7.22.88-12.3.76-3.18,1.57-6.56,4.17-9.99,1.47-1.94,5.65-7.46,12.3-7.47,5.16,0,8.79,3.31,9.88,4.39"/>
</svg>