<?xml version="1.0" encoding="UTF-8"?>
<svg id="Camada_1" data-name="Camada 1" xmlns="http://www.w3.org/2000/svg" xmlns:xlink="http://www.w3.org/1999/xlink" viewBox="0 0 150 100">
  <defs>
    <style>
      .cls-1 {
        fill: url(#Gradiente_sem_nome_66-3);
      }

      .cls-2 {
        fill: url(#Gradiente_sem_nome_66-2);
      }

      .cls-3 {
        fill: #1d1d1b;
      }

      .cls-4, .cls-5 {
        fill: url(#Gradiente_sem_nome_66);
      }

      .cls-5, .cls-6, .cls-7, .cls-8 {
        stroke: #1d1d1b;
        stroke-linecap: round;
        stroke-linejoin: round;
        stroke-width: 1.42px;
      }

      .cls-6 {
        fill: none;
      }

      .cls-9 {
        clip-path: url(#clippath-1);
      }

      .cls-10, .cls-7 {
        fill: #8da627;
      }

      .cls-11 {
        fill: url(#Gradiente_sem_nome_66-6);
      }

      .cls-8 {
        fill: url(#Gradiente_sem_nome_66-4);
      }

      .cls-12 {
        fill: url(#Gradiente_sem_nome_66-7);
      }

      .cls-13 {
        fill: url(#Gradiente_sem_nome_66-5);
      }

      .cls-14 {
        clip-path: url(#clippath);
      }
    </style>
    <linearGradient id="Gradiente_sem_nome_66" data-name="Gradiente sem nome 66" x1="49.21" y1="26.15" x2="49.21" y2="84.46" gradientUnits="userSpaceOnUse">
      <stop offset="0" stop-color="#8da626"/>
      <stop offset=".26" stop-color="#8fa725"/>
      <stop offset=".42" stop-color="#98ac23"/>
      <stop offset=".56" stop-color="#a7b520"/>
      <stop offset=".68" stop-color="#bbc21c"/>
      <stop offset=".8" stop-color="#d6d317"/>
      <stop offset=".9" stop-color="#f7e710"/>
      <stop offset=".92" stop-color="#fcea10"/>
    </linearGradient>
    <clipPath id="clippath">
      <path class="cls-5" d="M41.69,56.84c4.14-7.23,9.46-20.25,23.72-23.02,2.46-.48,8.42-1.64,10.73,1.34.8,1.03.89,2.83,0,7.67-1.24,6.69-6.12,10.93-13.41,17.82-6.33,5.98-4.68,7.99-19.06,16.59-5.09,3.04-.71,4.81-1.42,7.22,0,0-15.15-9.49-14.87-14.73.32-5.95-7.5-6.44-5.38-15.29,1.33-5.55,5.13-8.16,10.41-14.19,2.8-3.2,4.14-14.07,15.75-14.09,9.01-.01,15.34,5.77,17.25,7.67"/>
    </clipPath>
    <linearGradient id="Gradiente_sem_nome_66-2" data-name="Gradiente sem nome 66" x1="-6.1" y1="66.91" x2="-6.1" y2="122.27" xlink:href="#Gradiente_sem_nome_66"/>
    <linearGradient id="Gradiente_sem_nome_66-3" data-name="Gradiente sem nome 66" x1="97.36" y1="9.6" x2="97.36" y2="55.79" xlink:href="#Gradiente_sem_nome_66"/>
    <linearGradient id="Gradiente_sem_nome_66-4" data-name="Gradiente sem nome 66" x1="97.36" y1="9.6" x2="97.36" y2="55.79" xlink:href="#Gradiente_sem_nome_66"/>
    <clipPath id="clippath-1">
      <path class="cls-8" d="M106.09,55.79s25.12-2.69,8.21-38.14c-6.81-14.28-27.87-5.23-27.87-5.23,0,0-7.8-4.01-10.33.31-2.61,4.45-4.79,22.1,19.13,28.86,11.69,3.31,10.86,14.2,10.86,14.2Z"/>
    </clipPath>
    <linearGradient id="Gradiente_sem_nome_66-5" data-name="Gradiente sem nome 66" x1="101.48" y1="82.85" x2="101.48" y2="93.86" xlink:href="#Gradiente_sem_nome_66"/>
    <linearGradient id="Gradiente_sem_nome_66-6" data-name="Gradiente sem nome 66" x1="97.45" y1="67.8" x2="97.45" y2="99.06" xlink:href="#Gradiente_sem_nome_66"/>
    <linearGradient id="Gradiente_sem_nome_66-7" data-name="Gradiente sem nome 66" x1="84.31" y1="75.14" x2="84.31" y2="96.59" xlink:href="#Gradiente_sem_nome_66"/>
  </defs>
  <polygon class="cls-10" points="71.35 100 79.13 100 78.36 0 72.07 0 71.35 100"/>
  <path class="cls-7" d="M72,0c-.29,20.71-.53,57.22-.73,100"/>
  <path class="cls-7" d="M78.51.06c.18,20.69.43,57.17.71,99.94"/>
  <g>
    <path class="cls-4" d="M41.69,56.84c4.14-7.23,9.46-20.25,23.72-23.02,2.46-.48,8.42-1.64,10.73,1.34.8,1.03.89,2.83,0,7.67-1.24,6.69-6.12,10.93-13.41,17.82-6.33,5.98-4.68,7.99-19.06,16.59-5.09,3.04-.71,4.81-1.42,7.22,0,0-15.15-9.49-14.87-14.73.32-5.95-7.5-6.44-5.38-15.29,1.33-5.55,5.13-8.16,10.41-14.19,2.8-3.2,4.14-14.07,15.75-14.09,9.01-.01,15.34,5.77,17.25,7.67"/>
    <g class="cls-14">
      <g>
        <path class="cls-2" d="M-30.74,66.91c1.92.46,3.33,2.04,4.62,3.53,14.88,17.28,29.76,34.55,44.64,51.83"/>
        <path class="cls-3" d="M-31.68,70.33c2.52,1,4.52,4.32,6.25,6.32,1.91,2.22,3.83,4.44,5.74,6.66,4.04,4.69,8.08,9.38,12.12,14.07,7.87,9.13,15.73,18.26,23.6,27.4,2.98,3.46,7.97-1.57,5.01-5.01-8.72-10.12-17.43-20.24-26.15-30.36-4.25-4.94-8.5-9.87-12.75-14.81-3.57-4.15-6.7-9.03-11.92-11.11-4.24-1.69-6.08,5.16-1.88,6.83h0Z"/>
      </g>
    </g>
    <path class="cls-6" d="M41.69,56.84c4.14-7.23,9.46-20.25,23.72-23.02,2.46-.48,8.42-1.64,10.73,1.34.8,1.03.89,2.83,0,7.67-1.24,6.69-6.12,10.93-13.41,17.82-6.33,5.98-4.68,7.99-19.06,16.59-5.09,3.04-.71,4.81-1.42,7.22,0,0-15.15-9.49-14.87-14.73.32-5.95-7.5-6.44-5.38-15.29,1.33-5.55,5.13-8.16,10.41-14.19,2.8-3.2,4.14-14.07,15.75-14.09,9.01-.01,15.34,5.77,17.25,7.67"/>
  </g>
  <g>
    <g>
      <path class="cls-1" d="M106.09,55.79s25.12-2.69,8.21-38.14c-6.81-14.28-27.87-5.23-27.87-5.23,0,0-7.8-4.01-10.33.31-2.61,4.45-4.79,22.1,19.13,28.86,11.69,3.31,10.86,14.2,10.86,14.2Z"/>
      <g class="cls-9">
        <g>
          <path class="cls-13" d="M96.44,93.86c2.68-4.22,6.11-7.97,10.08-11.01"/>
          <path class="cls-3" d="M99.5,95.65c2.57-3.98,5.79-7.38,9.52-10.29,1.51-1.18,1.24-3.77,0-5.01-1.49-1.49-3.5-1.18-5.01,0-4.2,3.28-7.73,7.25-10.63,11.73-2.49,3.84,3.65,7.4,6.12,3.58h0Z"/>
        </g>
        <g>
          <path class="cls-11" d="M91.32,99.06c5.78-9.64,9.95-20.26,12.27-31.26"/>
          <path class="cls-3" d="M94.38,100.85c5.88-10.01,10.13-20.77,12.63-32.11.98-4.44-5.85-6.34-6.83-1.88-2.37,10.78-6.32,20.9-11.91,30.41-2.32,3.94,3.81,7.51,6.12,3.58h0Z"/>
        </g>
        <g>
          <path class="cls-12" d="M71.71,75.14c7.6,8.03,16.06,15.23,25.2,21.46"/>
          <path class="cls-3" d="M69.2,77.64c7.88,8.22,16.54,15.55,25.92,22.01,3.76,2.6,7.31-3.54,3.58-6.12-8.88-6.13-17.02-13.11-24.48-20.9-3.16-3.3-8.17,1.72-5.01,5.01h0Z"/>
        </g>
      </g>
      <path class="cls-6" d="M106.09,55.79s25.12-2.69,8.21-38.14c-6.81-14.28-27.87-5.23-27.87-5.23,0,0-7.8-4.01-10.33.31-2.61,4.45-4.79,22.1,19.13,28.86,11.69,3.31,10.86,14.2,10.86,14.2Z"/>
    </g>
    <path class="cls-7" d="M109.59,33.63s-6.59-14.24-23.29-21.26"/>
  </g>
</svg>