<?xml version="1.0" encoding="UTF-8"?>
<svg id="Camada_1" data-name="Camada 1" xmlns="http://www.w3.org/2000/svg" xmlns:xlink="http://www.w3.org/1999/xlink" viewBox="0 0 150 100">
  <defs>
    <style>
      .cls-1 {
        fill: url(#Gradiente_sem_nome_66-2);
      }

      .cls-2 {
        fill: url(#Gradiente_sem_nome_66);
      }

      .cls-3 {
        fill: none;
      }

      .cls-3, .cls-4, .cls-5 {
        stroke: #1d1d1b;
        stroke-linecap: round;
        stroke-linejoin: round;
        stroke-width: 1.42px;
      }

      .cls-6, .cls-4 {
        fill: #8da627;
      }

      .cls-5 {
        fill: url(#Gradiente_sem_nome_3);
      }
    </style>
    <linearGradient id="Gradiente_sem_nome_66" data-name="Gradiente sem nome 66" x1="57.17" y1="52.96" x2="57.17" y2="92.97" gradientUnits="userSpaceOnUse">
      <stop offset="0" stop-color="#8da626"/>
      <stop offset=".26" stop-color="#8fa725"/>
      <stop offset=".42" stop-color="#98ac23"/>
      <stop offset=".56" stop-color="#a7b520"/>
      <stop offset=".68" stop-color="#bbc21c"/>
      <stop offset=".8" stop-color="#d6d317"/>
      <stop offset=".9" stop-color="#f7e710"/>
      <stop offset=".92" stop-color="#fcea10"/>
    </linearGradient>
    <linearGradient id="Gradiente_sem_nome_66-2" data-name="Gradiente sem nome 66" x1="95.09" y1="15.32" x2="95.09" y2="36.05" xlink:href="#Gradiente_sem_nome_66"/>
    <linearGradient id="Gradiente_sem_nome_3" data-name="Gradiente sem nome 3" x1="60.67" y1="5.21" x2="56.18" y2="34.07" gradientUnits="userSpaceOnUse">
      <stop offset="0" stop-color="#8da626"/>
      <stop offset=".26" stop-color="#8fa725"/>
      <stop offset=".42" stop-color="#98ac23"/>
      <stop offset=".56" stop-color="#a7b520"/>
      <stop offset=".68" stop-color="#bbc21c"/>
      <stop offset=".8" stop-color="#d6d317"/>
      <stop offset=".9" stop-color="#f7e710"/>
      <stop offset=".92" stop-color="#fcea10"/>
    </linearGradient>
  </defs>
  <polygon class="cls-6" points="70.7 100 80.26 100 79.6 0 71.08 0 70.7 100"/>
  <path class="cls-4" d="M70.62,100c.07-30.28.15-64.94.26-100"/>
  <path class="cls-4" d="M79.82,0c.2,35.02.4,69.67.56,100"/>
  <g>
    <path class="cls-2" d="M58.48,55.82c-17.99-8.07-27.27,13.47-15.53,26.67,8.9,10.01,26.41,10.48,26.41,10.48,0,0-6.92-9.22-2.1-13.41,9.76-8.49,10.21-16.93,8.7-20.96-1.51-4.03-11.47-10.59-20.61.5-9.14,11.09-5.19,12.91-4.23,15.22"/>
    <path class="cls-3" d="M58.48,55.82c-17.99-8.07-27.27,13.47-15.53,26.67,8.9,10.01,26.41,10.48,26.41,10.48,0,0-6.92-9.22-2.1-13.41,9.76-8.49,10.21-16.93,8.7-20.96-1.51-4.03-11.47-10.59-20.61.5-9.14,11.09-5.19,12.91-4.23,15.22"/>
  </g>
  <g>
    <path class="cls-1" d="M95.81,33.53s-17.47,5.35-17.65-11.53c-.14-12.51,22.08-4.11,26.89-1.37,4.81,2.74,9.49,18.37,5.44,14.93-6.71-5.71-14.67-2.02-14.67-2.02Z"/>
    <path class="cls-3" d="M95.81,33.53s-17.47,5.35-17.65-11.53c-.14-12.51,22.08-4.11,26.89-1.37,4.81,2.74,9.49,18.37,5.44,14.93-6.71-5.71-14.67-2.02-14.67-2.02Z"/>
  </g>
  <path class="cls-5" d="M57.17,36.05s-2.04-3.46,4.22-11.68,13.88-7.96,11.96-16.65-11.95-6.55-19.82-.91-11.43,12.89-7.43,21.78,11.07,7.46,11.07,7.46Z"/>
</svg>