<?xml version="1.0" encoding="UTF-8"?>
<svg id="Camada_1" data-name="Camada 1" xmlns="http://www.w3.org/2000/svg" viewBox="0 0 150 100">
  <defs>
    <style>
      .cls-1 {
        stroke-width: 1.42px;
      }

      .cls-1, .cls-2 {
        stroke: #1d1d1b;
        stroke-linecap: round;
        stroke-linejoin: round;
      }

      .cls-1, .cls-2, .cls-3 {
        fill: #8da627;
      }

      .cls-2 {
        stroke-width: 1.38px;
      }
    </style>
  </defs>
  <path class="cls-1" d="M28.81,21.82s11.11,31.83,23.13,43.55c12.03,11.72,27.58,14.39,23.25,2.15-4.32-12.24-4.7-26.71-46.39-45.7Z"/>
  <polygon class="cls-3" points="70.94 100 79.77 100 79.03 0 71.44 0 70.94 100"/>
  <path class="cls-2" d="M79.22,0c.2,31.22.4,65.78.6,100"/>
  <path class="cls-2" d="M70.89,100c.11-34.18.23-68.73.38-99.94"/>
  <path class="cls-1" d="M75.13,84.81s1.9-3.43,14.85-8.38c12.95-4.95,57.51-24.37,54.08-35.04,0,0-9.52,11.04-29.71,13.71-20.18,2.67-37.32,6.86-39.23,29.71Z"/>
</svg>