<?xml version="1.0" encoding="UTF-8"?>
<svg id="Camada_1" data-name="Camada 1" xmlns="http://www.w3.org/2000/svg" viewBox="0 0 150 100">
  <defs>
    <style>
      .cls-1 {
        stroke: #1d1d1b;
        stroke-linecap: round;
        stroke-linejoin: round;
        stroke-width: 1.42px;
      }

      .cls-1, .cls-2 {
        fill: #8da627;
      }
    </style>
  </defs>
  <path class="cls-1" d="M74.53,48.76s-7.34-6.26-15.68-18.55c-8.34-12.29-22.81-12.56-31.97-10.51-9.17,2.05-17.45-1.22-.66,17.58,16.79,18.79,28.4,10.88,38.38,13.07,9.98,2.19,13.89,2.26,9.94-1.6Z"/>
  <polygon class="cls-2" points="70.94 100 79.77 100 79.03 0 71.44 0 70.94 100"/>
  <path class="cls-1" d="M79.22,0c.2,31.22.4,65.78.6,100"/>
  <path class="cls-1" d="M70.89,100c.11-34.18.23-68.73.38-99.94"/>
  <path class="cls-1" d="M74.21,79.04s4.09,7.12,12.81-3.62c8.72-10.74,33.1-34.23,33.24-54.55.14-20.31-20.11-1.69-25.93,8.25s-15.11,33.65-20.12,49.91Z"/>
</svg>