<?xml version="1.0" encoding="UTF-8"?>
<svg id="Camada_1" data-name="Camada 1" xmlns="http://www.w3.org/2000/svg" viewBox="0 0 150 100">
  <defs>
    <style>
      .cls-1, .cls-2 {
        fill: #8da627;
      }

      .cls-2 {
        stroke: #1d1d1b;
        stroke-linecap: round;
        stroke-linejoin: round;
        stroke-width: 1.42px;
      }
    </style>
  </defs>
  <path class="cls-2" d="M98.14,39.26s-10,.23-14.89-5.62-8.39-13.73-5.5-15.79,17.95,4,20.39,21.41Z"/>
  <path class="cls-2" d="M30.35,48.47s16.87,28.11,37.67,29.52c20.8,1.41-3.63-26.61-21.34-26.26,0,0-11.57-.05-16.33-3.26Z"/>
  <path class="cls-2" d="M128.7,29.03s-1.78-4.36-14.22-3.02-23.56,7.11-36-7.56,44.44-14.4,50.22,10.58Z"/>
  <polygon class="cls-1" points="70.94 100 79.77 100 79.03 0 71.44 0 70.94 100"/>
  <path class="cls-2" d="M79.22,0c.2,31.22.4,65.78.6,100"/>
  <path class="cls-2" d="M70.89,100c.11-34.18.23-68.73.38-99.94"/>
</svg>