<?xml version="1.0" encoding="UTF-8"?>
<svg id="Camada_1" data-name="Camada 1" xmlns="http://www.w3.org/2000/svg" viewBox="0 0 150 100">
  <defs>
    <style>
      .cls-1 {
        fill: #f9c745;
      }

      .cls-1, .cls-2, .cls-3 {
        stroke: #1d1d1b;
        stroke-linecap: round;
        stroke-linejoin: round;
        stroke-width: 1.42px;
      }

      .cls-2 {
        fill: #8da627;
      }

      .cls-3 {
        fill: #5a2d1c;
      }
    </style>
  </defs>
  <path class="cls-2" d="M72,100c.15-10.78.31-17.27.48-18.15,1.47-7.37,5.4-3.97,5.8,0,.05.5.13,7.04.23,18.15"/>
  <g>
    <path class="cls-1" d="M53.99,7.37s-9.64,28.93,11.07,39.4l12.37-5.71s1.81-9.02-3.96-14.39c-5.78-5.37-18.1-17.08-19.48-19.31Z"/>
    <path class="cls-1" d="M126.11,27.33s-17.24,1.03-25.96,6.99c-8.72,5.96-12.96,9.05-14.24,12.54-1.27,3.5.15,7.42,4.04,6.39,3.89-1.03,17.73-3.94,25.42-9.42,7.69-5.47,10.73-16.5,10.73-16.5Z"/>
    <path class="cls-1" d="M116.74,58.1s-3.19,9.21-14.72,10.61c-11.53,1.39-15.98-.68-16.21-1.46-.23-.78.82-7.45,3.17-9.9,2.35-2.45,15.5-.73,15.5-.73l12.26,1.49Z"/>
    <path class="cls-1" d="M123.57,42.16s-1.39,12.82-18.4,16.25c-17.01,3.43-17.17-2.89-17.17-2.89,0,0,.66-7.57,10.84-10.61,10.19-3.05,10.78-.18,24.72-2.75Z"/>
    <path class="cls-1" d="M25.78,45.63s7.61-10.41,24.06-4.88c16.45,5.53,13.43,11.09,13.43,11.09,0,0-4.35,6.22-14.7,3.77-10.34-2.45-9.43-5.23-22.79-9.98Z"/>
    <path class="cls-1" d="M74.04,98.6s-9.21-3.19-10.61-14.72c-1.39-11.53.68-15.98,1.46-16.21s7.45.82,9.9,3.17c2.45,2.35.73,15.5.73,15.5l-1.49,12.26Z"/>
    <path class="cls-1" d="M100.33,11.36s-12.22-2.3-19.57,10.42c-7.35,12.72-8.29,19.23-6.35,22.18,1.94,2.95,6.93,6.18,9.11,5.28s14.91-10.86,16.81-37.88Z"/>
    <path class="cls-1" d="M23.02,58s4.12,11.73,18.81,11.74c14.69,0,20.8-2.43,22.38-5.59,1.58-3.16,1.89-9.09.02-10.53-1.87-1.44-16.85-7.48-41.21,4.38Z"/>
    <path class="cls-1" d="M101.65,85.34s2.38-9.36-10.77-15.49c-13.15-6.13-8.05,7.53-6.36,10.57,1.69,3.05,5.85,7.82,17.13,4.91Z"/>
    <path class="cls-1" d="M45.38,84s-1.75-15.88,16.31-23.75l7.31,10.11s-1.87,5.51-5.61,9.38c-3.74,3.86-12.62,7.54-18.01,4.26Z"/>
    <path class="cls-1" d="M56.13,91.01s9.65-.3,11.92-14.62c2.27-14.33-9.45-5.66-11.92-3.2-2.46,2.46-5.91,7.78,0,17.83Z"/>
    <path class="cls-1" d="M30.92,21.14s6.7,15.46,15.07,21.47c8.37,6.01,12.62,8.87,16.25,8.87s6.75-2.62,4.51-5.84c-2.24-3.22-9.53-14.94-17.11-20.16-7.58-5.22-18.71-4.33-18.71-4.33Z"/>
    <path class="cls-1" d="M79.02,1.52s-12.42,13.93-13.02,21.2c-.61,7.27-1.74,16.96,5.34,20.59,7.08,3.63,9.83.29,10.42.59s7.86-25.12-2.74-42.38Z"/>
    <path class="cls-1" d="M124.7,80.04s-8.63-16.03-15.09-19.01c-6.46-2.98-14.97-7.25-20.66-1.98-5.69,5.27-3.54,8.92-4.02,9.36s20.4,15.58,39.77,11.63Z"/>
    <path class="cls-1" d="M112.89,18.12s-21.66,1.77-28.32,20.46c-6.66,18.69,6.25,13.41,6.25,13.41,0,0,10.55-5.14,14.72-12.77,4.16-7.64,7.64-19.85,7.36-21.1Z"/>
    <path class="cls-1" d="M24.81,74.17s19.47,8.39,33.77-4.65c14.3-13.05.76-14.42.76-14.42,0,0-11.44-.41-18.53,4.26-7.08,4.67-15.67,13.6-16,14.81Z"/>
    <path class="cls-1" d="M82.8,96.74s-14.62-6.43-12.41-26l12.41-1.27s3.84,4.37,5.32,9.54c1.48,5.17.22,14.7-5.32,17.73Z"/>
    <ellipse class="cls-3" cx="75.14" cy="57" rx="21.1" ry="18.77"/>
  </g>
</svg>