<?xml version="1.0" encoding="UTF-8"?>
<svg id="Camada_1" data-name="Camada 1" xmlns="http://www.w3.org/2000/svg" viewBox="0 0 150 100">
  <defs>
    <style>
      .cls-1 {
        fill: #f9c745;
      }

      .cls-1, .cls-2, .cls-3 {
        stroke: #1d1d1b;
        stroke-linecap: round;
        stroke-linejoin: round;
      }

      .cls-1, .cls-3 {
        stroke-width: 1.42px;
      }

      .cls-2 {
        fill: #8da627;
        stroke-width: 1.38px;
      }

      .cls-3 {
        fill: #5a2d1c;
      }
    </style>
  </defs>
  <path class="cls-1" d="M75.71,53.09s4.75-5.56,5.58-15.05c.83-9.5,2.7-24.48.67-20.41s-7.48,11.41-6.25,35.47Z"/>
  <path class="cls-1" d="M75.68,51.09s2.85-1.55,1.79-6.94c-1.06-5.39-4.75-25.95-8.09-27.72-3.33-1.77.29,28.76,6.3,34.66Z"/>
  <path class="cls-1" d="M76.11,55.88s2.58,5.67-1.3,12.06c-3.88,6.4-18.13,23.45-19.38,21.66-1.25-1.8,5.22-20.54,9.41-25.48,4.19-4.94,8.4-14.61,11.28-8.24Z"/>
  <path class="cls-1" d="M73.03,56.92s-2.77-1.69-6.91,1.92-20.09,17.09-19.96,20.86,24.76-14.63,26.87-22.78Z"/>
  <path class="cls-1" d="M76.99,56.12s-2.17-1.73-4.09.75-8.61,32.87-3.71,32.24c4.9-.63,8.49-29.5,7.8-32.99Z"/>
  <path class="cls-1" d="M74.07,51.34s-.2-3.24-5.53-4.56c-5.33-1.32-25.52-6.66-28.54-4.38s26.19,11.89,34.07,8.94Z"/>
  <path class="cls-1" d="M79.73,56.04s-1.18,3.02,3.09,6.47,20.32,16.82,24.01,16.03c3.69-.79-18.71-21.85-27.1-22.5Z"/>
  <path class="cls-1" d="M73.42,59.59s-19.17,8.72-30.67,10.16c-11.5,1.44-1.55-4.3,8.31-9.45,9.86-5.16,26.65-11.18,22.36-.71Z"/>
  <path class="cls-1" d="M72.56,56.84s5.06-1.25,4.22-3.9-28.6-27.07-30.35-24,24.65,28.4,26.13,27.9Z"/>
  <path class="cls-1" d="M34.76,55.21s-4.7,2.28,8.2,2.53c12.91.24,29.22,1.09,30.72-3.27,1.5-4.35-37.86-3.1-38.93.74Z"/>
  <path class="cls-1" d="M75.58,53.13s-.49-6.21,5.35-10.89,25.06-15.84,25.62-13.72-11.93,17.52-17.55,20.73c-5.63,3.21-12.89,10.86-13.41,3.89Z"/>
  <path class="cls-1" d="M78.83,53.21s2.02,2.54,7.15.56,24.73-9.19,25.89-12.78-28.27,5.28-33.04,12.22Z"/>
  <path class="cls-1" d="M76,55.96s-2.57,6.85-.1,16.06,5.83,23.92,6.35,19.41,3.12-13.28-6.25-35.47Z"/>
  <path class="cls-1" d="M74.84,52.61s1.45,2.37,4.1.69,19.33-27.94,14.51-29.03c-4.82-1.09-18.07,24.82-18.61,28.34Z"/>
  <path class="cls-1" d="M78.84,55.81s.48,3.21,5.91,4.06c5.43.85,26.01,4.41,28.81,1.88,2.8-2.53-27.13-9.57-34.72-5.94Z"/>
  <path class="cls-1" d="M76.46,53.79s4.41-.35,9.85,10.59c5.44,10.93,12.9,23.92,10.34,24.96s-18.64-23.02-19.41-29.28l-.78-6.26Z"/>
  <path class="cls-1" d="M89.82,94.29s3.83,3.71-.44-8.75-9.16-28.42-13.86-28.34,10.24,37.41,14.3,37.09Z"/>
  <path class="cls-1" d="M76.52,53.75s-4.52-.04-9.08-11.65c-4.56-11.6-10.99-25.47-8.29-26.31s16.91,25.07,17.14,31.51l.23,6.44Z"/>
  <path class="cls-2" d="M72,100c.15-10.78.31-17.27.48-18.15,1.47-7.37,5.4-3.97,5.8,0,.05.5.13,7.04.23,18.15"/>
  <path class="cls-1" d="M70.96,57.34s-21.4-2.08-32.31-6.68c-10.91-4.59.83-4.59,12.18-4.11s29.28,3.72,20.13,10.79Z"/>
  <path class="cls-1" d="M80.53,55.67s15.06,15.35,20.46,25.88-3.58,2.98-11.97-4.68c-8.39-7.66-20.04-21.67-8.49-21.21Z"/>
  <path class="cls-1" d="M74.06,54.16s-6.34.5-11.12-5.46c-4.78-5.96-16.17-25.59-14.01-26.16s17.89,12.18,21.16,17.92c3.27,5.74,11.09,13.17,3.97,13.7Z"/>
  <path class="cls-1" d="M75.56,55.18s1.59,6.16-3.44,11.9-22.39,20.37-23.33,18.34,8.89-19.73,13.98-23.95,11.04-13.21,12.8-6.29Z"/>
  <path class="cls-1" d="M76.52,53.75s1.21-4.35,13.6-5.75c12.39-1.4,27.45-4.03,27.56-1.2s-28.59,9.84-34.87,8.4l-6.28-1.44Z"/>
  <path class="cls-1" d="M73.23,52.67s2.49,1.35,3.98-1.48,2.83-34.57-1.99-33.07-3.31,31.17-1.99,34.56Z"/>
  <path class="cls-1" d="M77.31,55.87s-2.49-1.35-3.98,1.48c-1.49,2.83-2.83,34.57,1.99,33.07s3.31-31.17,1.99-34.56Z"/>
  <path class="cls-1" d="M74.25,50.93s1.28,5.16,3.98,4.31c2.7-.85,27.64-29.21,24.5-30.99s-29,25.17-28.48,26.68Z"/>
  <path class="cls-1" d="M78.18,57.45s-2.97-4.41-5.22-2.69-15.98,36.9-12.43,37.5,18.64-33.57,17.64-34.81Z"/>
  <path class="cls-1" d="M74.2,54.95s-6.99-2.62-16.39-.1-24.43,5.96-19.82,6.48,13.56,3.19,36.21-6.39Z"/>
  <path class="cls-1" d="M77.01,55.15s3.67,6.5,12.49,10.61c8.83,4.11,22.54,11.14,19.35,7.77-3.19-3.36-8.34-11.16-31.85-18.39Z"/>
  <path class="cls-1" d="M72.98,52.2s.66-3.25-4.25-5.96-23.41-13.31-26.98-11.86c-3.57,1.45,22.68,18.65,31.24,17.82Z"/>
  <path class="cls-1" d="M79.77,50.97s21.44-1.67,32.98.96-.02,4.66-11.28,6.16-29.48,1.42-21.7-7.13Z"/>
  <path class="cls-1" d="M78.67,56.38s-.08,3.31,5.22,5.13c5.3,1.81,25.37,9.04,28.63,7,3.27-2.05-25.58-14.43-33.86-12.13Z"/>
  <path class="cls-1" d="M72.29,55.68s-2.49-2.19-7.28.71-23.23,13.62-23.77,17.44,27.49-10.32,31.05-18.14Z"/>
  <path class="cls-1" d="M77.48,51.51s3.31.08,5.13-5.22,9.04-25.37,7-28.63-14.43,25.58-12.13,33.86Z"/>
  <path class="cls-1" d="M112.32,33.67s2.99-4.42-8.54,1.95c-11.54,6.37-26.4,13.96-25.5,18.57.9,4.62,35.06-16.58,34.04-20.53Z"/>
  <ellipse class="cls-3" cx="75.64" cy="54.54" rx="24.42" ry="20.71"/>
</svg>