<?xml version="1.0" encoding="UTF-8"?>
<svg id="Camada_1" data-name="Camada 1" xmlns="http://www.w3.org/2000/svg" viewBox="0 0 150 100">
  <defs>
    <style>
      .cls-1 {
        fill: #f9c745;
      }

      .cls-1, .cls-2, .cls-3 {
        stroke: #1d1d1b;
        stroke-linecap: round;
        stroke-linejoin: round;
        stroke-width: 1.42px;
      }

      .cls-2 {
        fill: #8da627;
      }

      .cls-3 {
        fill: #5a2d1c;
      }
    </style>
  </defs>
  <path class="cls-1" d="M74.26,50s-8.23-19.08-18.45-19.39-6.8,16.72,18.45,19.39Z"/>
  <path class="cls-2" d="M72,100c.15-10.78.31-17.27.48-18.15,1.47-7.37,5.4-3.97,5.8,0,.05.5.13,7.04.23,18.15"/>
  <path class="cls-2" d="M72,100c.15-10.78.31-17.27.48-18.15,1.47-7.37,5.4-3.97,5.8,0,.05.5.13,7.04.23,18.15"/>
  <path class="cls-1" d="M72.63,65.18s4.48,5.05,13.69,6.56c9.21,1.51,15.89,3.13,21.34,6.5s1.02-6.81-11.84-11.32-18.38-12.4-22.5-11.87-6.08,6.27-.69,10.13Z"/>
  <path class="cls-1" d="M85.18,52.42s.4-6.74-5.04-14.32c-5.45-7.58-9.03-13.45-10.5-19.69s-5.53,4.09.37,16.37,4.23,21.77,7.52,24.3,8.73-.14,7.65-6.67Z"/>
  <path class="cls-1" d="M79.77,63.98s-2.41,20.64,6.28,26.02c8.7,5.38,14.25-11.08-6.28-26.02Z"/>
  <path class="cls-1" d="M77.02,60.45s5.07,15.36,13.82,21.27c8.75,5.91,10.81,1.91,10.81,1.91,0,0,6.78-5.36-24.63-23.17Z"/>
  <path class="cls-1" d="M77.87,53.13s11.78-11.08,13.43-21.51c1.65-10.43-2.84-10.6-2.84-10.6,0,0-7.72-3.89-10.59,32.11Z"/>
  <path class="cls-1" d="M78.99,54.51s-4.28,10.65-15.57,16.44c-11.29,5.79-24.33,8.67-18.9,2.61s6.62-11.9,17.24-17.5c10.62-5.61,17.59-5.94,17.23-1.55Z"/>
  <path class="cls-1" d="M82.26,54.34s-14.76,4.7-25.24,3.84c-10.49-.87-24.03-2.65-21.5-4.36s14.71-5.23,23.29-5.79c8.58-.57,24.15,4.03,23.45,6.32Z"/>
  <path class="cls-1" d="M73.04,60.02s8.28-13.09,16.87-19.17c8.59-6.08,20.11-13.41,19.27-10.48s-7.91,13.46-14.12,19.41c-6.21,5.95-21.09,12.43-22.03,10.24Z"/>
  <path class="cls-1" d="M68.22,95.13s-6.24-5.5-5.86-13.61c.38-8.12,7.27-19.59,9.79-18.79,2.52.8,1,14.93-1.34,20.64-2.35,5.72-2.59,11.76-2.59,11.76Z"/>
  <path class="cls-1" d="M112.65,50.51s-3.03,7.74-10.79,10.16-20.9-.13-21-2.77,13.68-6.05,19.86-5.8,11.93-1.59,11.93-1.59Z"/>
  <path class="cls-1" d="M77.54,58.94s-4.43-11.36-3.75-20.05,1.41-21.14,6.97-23.8c0,0,5.1-.89.89,27.85l-4.11,16Z"/>
  <path class="cls-1" d="M79.7,55.96s-12.19.28-20.12-3.33c-7.94-3.61-19.38-8.55-19.98-14.69,0,0,.91-5.1,26.48,8.69l13.63,9.33Z"/>
  <path class="cls-1" d="M76.03,58.02s-3.74.46-12.24,8.41c-8.5,7.95-13.88,17.36-11.96,20.42s11.77-7.82,16.53-13.69,8.62-9.76,7.67-15.15Z"/>
  <path class="cls-1" d="M76.18,57.77s2,3.19,12.8,7.54c10.8,4.35,21.6,5.24,23.57,2.21s-12.06-7.36-19.39-9.2-12.49-3.69-16.97-.55Z"/>
  <path class="cls-1" d="M79.47,55.87s3.9-3.57,14.05-8.19c10.14-4.62,16.31-3.93,17.56-2.43s-13.41,10.6-31.61,10.61Z"/>
  <path class="cls-1" d="M76.16,51.72s-4.19-3.23-10.5-12.41c-6.31-9.19-6.7-15.38-5.44-16.87s12.76,11.36,15.94,29.29Z"/>
  <path class="cls-1" d="M38.89,65.41s11.83,1.39,20.62-1.59,13.53-7.44,13.53-7.44c0,0-8.69-2.66-16.67-.08-7.98,2.58-15.61,8.16-17.48,9.11Z"/>
  <path class="cls-1" d="M101.31,23.47s-9.96,6.54-14.77,14.47c-4.81,7.93-5.58,14.4-5.58,14.4,0,0,8.36-3.55,12.82-10.66,4.46-7.1,6.71-16.28,7.53-18.21Z"/>
  <path class="cls-1" d="M77.64,55.58s7.09,9.03,6.45,21.71c-.64,12.68-4.66,25.4-7.19,17.67s-6.99-11.68-6.54-23.68c.45-12,3.65-18.2,7.27-15.69Z"/>
  <ellipse class="cls-3" cx="76.11" cy="58.02" rx="22.44" ry="20.72" transform="translate(6.89 124.09) rotate(-80.99)"/>
</svg>