<?xml version="1.0" encoding="UTF-8"?>
<svg id="Camada_1" data-name="Camada 1" xmlns="http://www.w3.org/2000/svg" viewBox="0 0 150 100">
  <defs>
    <style>
      .cls-1 {
        fill: #8da627;
        stroke: #1d1d1b;
        stroke-linecap: round;
        stroke-linejoin: round;
        stroke-width: 1.42px;
      }
    </style>
  </defs>
  <path class="cls-1" d="M26.22,13.24s27.89-.12,40.35,7.08,18.83,20.54,8.09,20.54-22.14,4.32-48.44-27.62Z"/>
  <path class="cls-1" d="M79.22,42.57c-1.08-.48-2.37-13.04,3.85-17.78s13.04-6.52,14.22-5.04-.3,15.41-3.85,18.07-6.81,8-14.22,4.74Z"/>
  <path class="cls-1" d="M80.38,0c.27,51.3.46,90.24.46,97.65h-10.4S70.5,56.46,70.62,0"/>
  <path class="cls-1" d="M48.13,59.33s23.51-1.45,25.53-8.56,4.42-10.22-3.23-10.22-19.2,9.56-22.31,18.78Z"/>
  <path class="cls-1" d="M85.26,40.87c10.1-10.45,21.5.31,26.07,7.6,4.57,7.3,22.54,18.82,22.54,18.82,0,0-32.22,11.38-50,1.96-17.78-9.42-16.48-31.64,2.18-27.98,15.11,2.97,9.49,10.89,21.03,17.37"/>
</svg>