<?xml version="1.0" encoding="UTF-8"?>
<svg id="Camada_1" data-name="Camada 1" xmlns="http://www.w3.org/2000/svg" xmlns:xlink="http://www.w3.org/1999/xlink" viewBox="0 0 150 100">
  <defs>
    <style>
      .cls-1 {
        fill: url(#Gradiente_sem_nome_55-5);
      }

      .cls-1, .cls-2, .cls-3, .cls-4, .cls-5, .cls-6, .cls-7, .cls-8, .cls-9, .cls-10, .cls-11, .cls-12 {
        stroke: #1d1d1b;
        stroke-width: 1.42px;
      }

      .cls-1, .cls-2, .cls-4, .cls-5, .cls-6, .cls-7, .cls-8, .cls-9, .cls-10, .cls-11, .cls-12 {
        stroke-linecap: round;
        stroke-linejoin: round;
      }

      .cls-2 {
        fill: #ba8f21;
      }

      .cls-3 {
        fill: #5c6924;
        stroke-miterlimit: 10;
      }

      .cls-4 {
        fill: url(#Gradiente_sem_nome_55-8);
      }

      .cls-5 {
        fill: url(#Gradiente_sem_nome_55-3);
      }

      .cls-6 {
        fill: #8da627;
      }

      .cls-7 {
        fill: url(#Gradiente_sem_nome_55-9);
      }

      .cls-8 {
        fill: url(#Gradiente_sem_nome_55-6);
      }

      .cls-9 {
        fill: url(#Gradiente_sem_nome_55-4);
      }

      .cls-10 {
        fill: url(#Gradiente_sem_nome_55-2);
      }

      .cls-11 {
        fill: url(#Gradiente_sem_nome_55-7);
      }

      .cls-12 {
        fill: url(#Gradiente_sem_nome_55);
      }
    </style>
    <linearGradient id="Gradiente_sem_nome_55" data-name="Gradiente sem nome 55" x1="87.38" y1="48.58" x2="87.38" y2="94.71" gradientUnits="userSpaceOnUse">
      <stop offset="0" stop-color="#efefef"/>
      <stop offset=".12" stop-color="#edece9"/>
      <stop offset=".26" stop-color="#e9e5db"/>
      <stop offset=".41" stop-color="#e3dac2"/>
      <stop offset=".57" stop-color="#dacaa0"/>
      <stop offset=".74" stop-color="#cfb574"/>
      <stop offset=".91" stop-color="#c19d3f"/>
      <stop offset="1" stop-color="#ba8f21"/>
    </linearGradient>
    <linearGradient id="Gradiente_sem_nome_55-2" data-name="Gradiente sem nome 55" x1="61.08" y1="48.55" x2="61.08" y2="88.63" xlink:href="#Gradiente_sem_nome_55"/>
    <linearGradient id="Gradiente_sem_nome_55-3" data-name="Gradiente sem nome 55" x1="95.59" y1="41.82" x2="95.59" y2="96.2" xlink:href="#Gradiente_sem_nome_55"/>
    <linearGradient id="Gradiente_sem_nome_55-4" data-name="Gradiente sem nome 55" x1="51.75" y1="36.77" x2="51.75" y2="71.03" xlink:href="#Gradiente_sem_nome_55"/>
    <linearGradient id="Gradiente_sem_nome_55-5" data-name="Gradiente sem nome 55" x1="98.43" y1="49.64" x2="98.43" y2="84.42" xlink:href="#Gradiente_sem_nome_55"/>
    <linearGradient id="Gradiente_sem_nome_55-6" data-name="Gradiente sem nome 55" x1="67.03" y1="53.13" x2="67.03" y2="97.89" xlink:href="#Gradiente_sem_nome_55"/>
    <linearGradient id="Gradiente_sem_nome_55-7" data-name="Gradiente sem nome 55" x1="53.87" y1="45.39" x2="53.87" y2="87.07" xlink:href="#Gradiente_sem_nome_55"/>
    <linearGradient id="Gradiente_sem_nome_55-8" data-name="Gradiente sem nome 55" x1="85.51" y1="57.34" x2="85.51" y2="81.38" xlink:href="#Gradiente_sem_nome_55"/>
    <linearGradient id="Gradiente_sem_nome_55-9" data-name="Gradiente sem nome 55" x1="78.55" y1="55.87" x2="78.55" y2="87.84" xlink:href="#Gradiente_sem_nome_55"/>
  </defs>
  <path class="cls-6" d="M72,100c.15-10.78.31-17.27.48-18.15,1.47-7.37,5.4-3.97,5.8,0,.05.5.13,7.04.23,18.15"/>
  <path class="cls-3" d="M72,100c.15-22.24.31-35.65.48-37.45,1.47-15.22,5.4-8.2,5.8,0,.05,1.03.13,14.53.23,37.45"/>
  <g>
    <path class="cls-12" d="M91.66,48.58s.58,16.59-1.43,22.47-4.77,11.55-3.81,15.51c.96,3.96-.08,9.39-1.67,7.89-1.59-1.49-1.38-5.35-1.67-12.46s.36-30.28,2.97-31.87c2.61-1.59,5.61-1.55,5.61-1.55Z"/>
    <path class="cls-10" d="M55.12,80.89s.41,6.92,1.52,7.66,6.42-3.59,7.16-7.17c.74-3.58,4.32-18.03,4.32-18.03,0,0,1.11-12.47-2.47-14.45-3.58-1.98-11.78,5-11.78,5v14.69l1.25,12.3Z"/>
    <path class="cls-5" d="M91.85,42.26s4.08-1.44,7.51.85,4.16,8.78,3.05,11.56-4.81,17.96-3.98,20.84c.83,2.87-5.47,21.58-8.25,20.66s.93-9.82,2.41-15,8.71-26.37-.19-29.11c-8.89-2.75-.56-9.79-.56-9.79Z"/>
    <path class="cls-9" d="M59.98,39.11s-5-4.26-12.41-1.3c-7.41,2.96-2.78,12.66-.74,15.31,2.04,2.66,4.65,3.65,4.92,7.88s.64,13.49,2.12,8.67c1.48-4.82.64-14.58,1.25-16.55s4.86-14.02,4.86-14.02Z"/>
    <path class="cls-2" d="M96.72,51.32c-1.81,7.55-12.25,11.52-23.33,8.87-11.08-2.65-19.84-9.82-18.04-17.37s13.5-12.62,24.57-9.97c11.08,2.65,18.6,10.92,16.79,18.47Z"/>
    <path class="cls-1" d="M96.12,50.35s10.5-2.72,11.73,2.47-2.47,11.11-6.92,17.04c-4.45,5.93-7.9,10.13-7.9,12.84s-5.68,2.47-3.95-2.72,3.7-9.13,4.94-12.96c1.23-3.83,1.23-11.49-1.73-12.97s3.83-3.7,3.83-3.7Z"/>
    <path class="cls-8" d="M67.21,53.15s-3.7-.87-4.69,7.61c-.99,8.48-1.23,32.19,2.35,34.91,3.58,2.72,5.31,3.65,4.32-1.38-.99-5.04-.69-14.98.27-18.78.96-3.79,4.42-18.2,1.7-20.38s-3.95-1.98-3.95-1.98Z"/>
    <path class="cls-11" d="M58.07,47.79s-6.92-5.4-9.39,0c-2.47,5.4.74,20.22,1.23,23.68s.25,10.87-.74,14.08,6.92,1.23,9.63-4.94-.25-15.89-.74-19.8,1.52-7.12,1.87-8.36-1.87-4.66-1.87-4.66Z"/>
    <path class="cls-4" d="M80.92,60.23s4.12-4.01,6.48-2.59c2.36,1.41,1.23,6.25,1.36,8.59.13,2.34-.19,11.04,2.35,14.01,2.18,2.55-5.19.56-8.34-3.33-2.57-3.17-4.82-5.74-1.85-16.67Z"/>
    <path class="cls-7" d="M74.06,56.9s-3.21,4.45-1.23,12.1c1.98,7.66.99,18.03,2.47,18.77s5.68-4.94,7.16-11.36,3.95-12.84,1.23-17.78-9.63-1.73-9.63-1.73Z"/>
  </g>
</svg>