<?xml version="1.0" encoding="UTF-8"?>
<svg id="Camada_1" data-name="Camada 1" xmlns="http://www.w3.org/2000/svg" viewBox="0 0 150 100">
  <defs>
    <style>
      .cls-1 {
        stroke-linecap: round;
        stroke-linejoin: round;
      }

      .cls-1, .cls-2 {
        fill: #5c6924;
        stroke: #1d1d1b;
        stroke-width: 1.42px;
      }

      .cls-2 {
        stroke-miterlimit: 10;
      }
    </style>
  </defs>
  <path class="cls-1" d="M71.05,78.62s1,4.11,7.39.98c6.38-3.13,23.17-8.89,26.57-18.17,3.41-9.29-10.39-4.91-15.1-1.55-4.72,3.36-13.53,12.32-18.86,18.75Z"/>
  <path class="cls-1" d="M121.31,79.66s-8.86,7.42-16.15,6.41c-7.3-1-30.12,3.09-32.28-1.03-2.16-4.12,12.38-17.08,28.2-14.13,15.82,2.96,19.38,6.69,20.23,8.74Z"/>
  <path class="cls-2" d="M80.38,0c.27,51.3.46,90.24.46,97.65h-10.4S70.5,56.46,70.62,0"/>
  <path class="cls-1" d="M76.28,87.32s-.9,2.07-4.6.36-.12-3.65-8.69-4.82c-8.57-1.17-22.96-2.69-30.67-8.88-7.72-6.19-10.04-13.25,2.89-13.41s24.47,6.18,32.84,14.55c8.38,8.37,10.56,11.16,8.23,12.19Z"/>
</svg>