<?xml version="1.0" encoding="UTF-8"?>
<svg id="Camada_1" data-name="Camada 1" xmlns="http://www.w3.org/2000/svg" viewBox="0 0 150 100">
  <defs>
    <style>
      .cls-1 {
        fill: #8da627;
        stroke: #1d1d1b;
        stroke-linecap: round;
        stroke-linejoin: round;
        stroke-width: 1.42px;
      }
    </style>
  </defs>
  <path class="cls-1" d="M90.75,33.89s-27.95,9.61-30.1,18.79c-2.15,9.18,4.68,16.88,13.36,18.29,8.68,1.41,25.34-9.5,26.41-18.29,1.07-8.79-9.67-18.79-9.67-18.79Z"/>
  <path class="cls-1" d="M76.91,85.02s2.72-9.6.72-13.76-5.79-11.05,6.52-15.39c12.31-4.35,39.66-15.39,37.12-10.14-2.54,5.25-6.16,11.29-5.98,14.52s-7.79,12.44-15.21,14.44c-7.42,2-21.55,18.84-23.18,10.33Z"/>
  <path class="cls-1" d="M80.38,0c.27,51.3.46,90.24.46,97.65h-10.4S70.5,56.46,70.62,0"/>
  <path class="cls-1" d="M77.23,86.48c-1.08-.48-2.37-13.04,3.85-17.78s13.04-6.52,14.22-5.04-.3,15.41-3.85,18.07-6.81,8-14.22,4.74Z"/>
  <path class="cls-1" d="M73.12,83.56s-2.67,1.78-5.78-3.11,2.67-4.44-6.67-12.44-25.33-20.89-29.78-34.22-1.78-23.56,13.78-13.78,24.44,26.22,28,42.67,4.01,21.45.44,20.89Z"/>
</svg>