<?xml version="1.0" encoding="UTF-8"?>
<svg id="Camada_1" data-name="Camada 1" xmlns="http://www.w3.org/2000/svg" viewBox="0 0 150 100">
  <defs>
    <style>
      .cls-1 {
        stroke-width: 1.42px;
      }

      .cls-1, .cls-2 {
        fill: #8da627;
        stroke: #1d1d1b;
        stroke-linecap: round;
        stroke-linejoin: round;
      }

      .cls-2 {
        stroke-width: 1.38px;
      }
    </style>
  </defs>
  <path class="cls-1" d="M70.36,73.64s4,5.78,10.67-4,25.78-31.56,24.44-48.89-17.27,0-21.52,8.89-10.48,29.78-13.59,44Z"/>
  <path class="cls-2" d="M80.38,0c.27,51.3.46,90.24.46,97.65h-10.4S70.5,56.46,70.62,0"/>
  <path class="cls-1" d="M73.23,84.26s-2.67,1.78-5.78-3.11,2.67-4.44-6.67-12.44-25.33-20.89-29.78-34.22-1.78-23.56,13.78-13.78,24.44,26.22,28,42.67,4.01,21.45.44,20.89Z"/>
  <path class="cls-1" d="M132.21,36.36s-3.11,16.77-13.07,22.36c-9.96,5.59-33.59,31.44-40.51,28.67-6.92-2.77-2.63-31.22,19.77-42.43,22.4-11.21,30.64-10.18,33.82-8.6Z"/>
</svg>