<?xml version="1.0" encoding="UTF-8"?>
<svg id="Camada_1" data-name="Camada 1" xmlns="http://www.w3.org/2000/svg" viewBox="0 0 150 100">
  <defs>
    <style>
      .cls-1 {
        fill: #8da627;
        stroke: #1d1d1b;
        stroke-linecap: round;
        stroke-linejoin: round;
        stroke-width: 1.42px;
      }
    </style>
  </defs>
  <path class="cls-1" d="M69.28,83.08c1.35-.4,15.56-25.62,25.78-30.59s19.56-14.3,20-34.3-27.56.89-30.22,6.22-3.56,12.6-7.11,28.52-17.33,32.81-8.44,30.14Z"/>
  <path class="cls-1" d="M75.66,91.07s-3.11-38.67-23.56-61.78-27.74-7.27-18.67,12c7.11,15.11,24,26.44,31.11,34.78,0,0,5.78,7.89,11.11,15Z"/>
  <path class="cls-1" d="M76.83,85.02s2.72-9.6.72-13.76-5.79-11.05,6.52-15.39c12.31-4.35,39.66-15.39,37.12-10.14-2.54,5.25-6.16,11.29-5.98,14.52s-7.79,12.44-15.21,14.44c-7.42,2-21.55,18.84-23.18,10.33Z"/>
  <path class="cls-1" d="M80.38,0c.27,51.3.46,90.24.46,97.65h-10.4S70.5,56.46,70.62,0"/>
  <path class="cls-1" d="M21.5,59.02s27.89-.12,40.35,7.08c12.46,7.2,18.83,20.54,8.09,20.54s-22.14,4.32-48.44-27.62Z"/>
</svg>