<?xml version="1.0" encoding="UTF-8"?>
<svg id="Camada_1" data-name="Camada 1" xmlns="http://www.w3.org/2000/svg" viewBox="0 0 150 100">
  <defs>
    <style>
      .cls-1 {
        fill: #8da627;
        stroke: #1d1d1b;
        stroke-linecap: round;
        stroke-linejoin: round;
        stroke-width: 1.42px;
      }
    </style>
  </defs>
  <path class="cls-1" d="M44.24,50.51s-2.22,10.78,6.67,19.08,14.81,11.85,24.3,5.33-.59-19.73-12.44-23.79-18.52-.62-18.52-.62Z"/>
  <path class="cls-1" d="M80.38,0c.27,51.3.46,90.24.46,97.65h-10.4S70.5,56.46,70.62,0"/>
  <path class="cls-1" d="M27.12,60.58s16.87,28.11,37.67,29.52c20.8,1.41-3.63-26.61-21.34-26.26,0,0-11.57-.05-16.33-3.26Z"/>
  <path class="cls-1" d="M76,83.06s1.89-3.41,14.76-8.32c12.86-4.92,57.13-24.21,53.72-34.81,0,0-9.46,10.97-29.51,13.62s-37.08,6.81-38.97,29.51Z"/>
</svg>