<?xml version="1.0" encoding="UTF-8"?>
<svg id="Camada_1" data-name="Camada 1" xmlns="http://www.w3.org/2000/svg" viewBox="0 0 150 100">
  <defs>
    <style>
      .cls-1 {
        fill: #8da627;
        stroke: #1d1d1b;
        stroke-linecap: round;
        stroke-linejoin: round;
        stroke-width: 1.42px;
      }
    </style>
  </defs>
  <path class="cls-1" d="M75.64,76.63c1.38-.24,11.32-14.24,22.05-17.97s21.1-11.91,23.88-31.72c2.79-19.81-27.47-2.35-30.74,2.64s-5.01,12.1-10.41,27.49c-5.4,15.39-13.93,21.17-4.79,19.56Z"/>
  <path class="cls-1" d="M80.38,0c.27,51.3.46,90.24.46,97.65h-10.4S70.5,56.46,70.62,0"/>
  <path class="cls-1" d="M134.79,61.91s-7.23,10.85-18.81,13.38c-11.57,2.53-11.21,7.6-30.92,11.03-19.71,3.44-7.23-23.15.9-24.96,8.14-1.81,42.32-3.98,48.83.54Z"/>
  <path class="cls-1" d="M26.92,17.99s0,16.31,8.39,23.3c8.39,6.99,26.1,35.42,33.09,34.02,6.99-1.4,7.92-28.89-11.18-43.34-19.11-14.45-27.03-14.91-30.29-13.98Z"/>
  <path class="cls-1" d="M56.03,80.18s-15.84-6.52-20.96-11.44-10.73-17.19-10.22-20.77c.51-3.58,18.4,7.73,23.51,7.44s20.43,2.7,23.25,8.36,5.89,16.41-15.58,16.4Z"/>
</svg>