<?xml version="1.0" encoding="UTF-8"?>
<svg id="Camada_1" data-name="Camada 1" xmlns="http://www.w3.org/2000/svg" viewBox="0 0 150 100">
  <defs>
    <style>
      .cls-1 {
        stroke: #1d1d1b;
        stroke-linecap: round;
        stroke-linejoin: round;
        stroke-width: 1.38px;
      }

      .cls-1, .cls-2 {
        fill: #8da627;
      }
    </style>
  </defs>
  <polygon class="cls-2" points="70.94 100 79.77 100 79.03 0 71.44 0 70.94 100"/>
  <path class="cls-1" d="M79.22,0c.2,31.22.4,65.78.6,100"/>
  <path class="cls-1" d="M70.89,100c.11-34.18.23-68.73.38-99.94"/>
  <g>
    <path class="cls-1" d="M120.39,41.9s8.41-28.53-9.71-36.68c-18.56-8.34-24.68,2.7-24.68,2.7,0,0-4.51-1.72-8.33,2.91-3.02,3.67-2.62,15.92,19.16,19.2,10.83,1.63,23.56,11.87,23.56,11.87Z"/>
    <path class="cls-1" d="M107.66,18.81s-6.11-5.8-21.66-10.89"/>
  </g>
  <path class="cls-1" d="M53.71,21.66s2.06-8.63,7.57-10.64c.69-.25,1.36-.44,2.01-.58.17-.04.33-.07.5-.09,4.38-.74,8.54.79,9.9,4.55,3.71,10.23-12.44,33.06-33.15,36.8,0,0,1.45-13.48,0-23.08-1.89-12.51,2.71-18.31,4.68-20.47,2.86-3.14,10.53-7.77,16.63-.58.75.89,1.36,1.76,1.84,2.61"/>
</svg>