<?xml version="1.0" encoding="UTF-8"?>
<svg id="Camada_1" data-name="Camada 1" xmlns="http://www.w3.org/2000/svg" viewBox="0 0 150 100">
  <defs>
    <style>
      .cls-1 {
        stroke: #1d1d1b;
        stroke-linecap: round;
        stroke-linejoin: round;
        stroke-width: 1.38px;
      }

      .cls-1, .cls-2 {
        fill: #8da627;
      }
    </style>
  </defs>
  <polygon class="cls-2" points="71.35 100 79.13 100 78.36 0 72.07 0 71.35 100"/>
  <path class="cls-1" d="M72,0c-.29,20.71-.53,57.22-.73,100"/>
  <path class="cls-1" d="M78.51.06c.18,20.69.43,57.17.71,99.94"/>
  <path class="cls-1" d="M30.77,68.87c4.3-7.5,16.01-26.18,30.8-29.06,2.55-.5,8.73-1.7,11.13,1.39.82,1.06.93,2.94,0,7.95-1.28,6.93-6.34,11.33-13.91,18.48-6.56,6.2-11.72,8.57-26.63,17.49-5.28,3.15-12.89,7.8-22.06,13.71,0,0,2.12-5.43,2.19-13.11.04-5.21-.61-13.07,1.59-22.25,1.38-5.76,2.84-11.87,7.55-18.08,2.66-3.52,10.22-13.49,22.25-13.51,9.34-.01,15.9,5.98,17.88,7.95"/>
  <g>
    <path class="cls-1" d="M130,62.71s3.39-37.87-13.4-53.99c-16.78-16.12-30.91,0-30.91,0,0,0-7.47-3.85-9.9.29-2.5,4.27-1.44,19.47,19.36,31.08,12.9,7.2,34.85,22.61,34.85,22.61Z"/>
    <path class="cls-1" d="M112.97,34.34s-11.26-18.88-27.27-25.61"/>
  </g>
</svg>