<?xml version="1.0" encoding="UTF-8"?>
<svg id="Camada_1" data-name="Camada 1" xmlns="http://www.w3.org/2000/svg" viewBox="0 0 150 100">
  <defs>
    <style>
      .cls-1 {
        stroke-width: 1.38px;
      }

      .cls-1, .cls-2, .cls-3 {
        fill: #8da627;
      }

      .cls-1, .cls-3 {
        stroke: #1d1d1b;
        stroke-linecap: round;
        stroke-linejoin: round;
      }

      .cls-3 {
        stroke-width: 1.42px;
      }
    </style>
  </defs>
  <path class="cls-3" d="M52.41,53.79s27.95,9.61,30.1,18.79c2.15,9.18-4.68,16.88-13.36,18.29-8.68,1.41-25.34-9.5-26.41-18.29-1.07-8.79,9.67-18.79,9.67-18.79Z"/>
  <path class="cls-3" d="M94.42,85.37s15.2-6.25,20.11-10.98c4.9-4.72,10.3-16.5,9.81-19.93s-17.66,7.42-22.56,7.14-19.6,2.59-22.31,8.02c-2.71,5.43-5.65,15.75,14.95,15.74Z"/>
  <polygon class="cls-2" points="70.7 100 80.26 100 79.6 0 71.08 0 70.7 100"/>
  <path class="cls-1" d="M70.62,100c.07-30.28.15-64.94.26-100"/>
  <path class="cls-1" d="M79.82,0c.2,35.02.4,69.67.56,100"/>
  <path class="cls-3" d="M76.7,91.48s9.4-5.64,17.24-4.39c7.83,1.25,8.15,2.33,16.92,2.1s16.3,4.16,21.31,4.16h8.46s-27.89-16.3-39.8-15.98c-11.91.31-25.7,7.83-24.13,14.1Z"/>
  <path class="cls-3" d="M76.31,27.66s1.97,5.36,10.78,4.53,18.1-8.26,19.09-15.21-9.09-1.34-16.2,0-20.82,1.64-13.67,10.68Z"/>
</svg>