<?xml version="1.0" encoding="UTF-8"?>
<svg id="Camada_1" data-name="Camada 1" xmlns="http://www.w3.org/2000/svg" viewBox="0 0 150 100">
  <defs>
    <style>
      .cls-1 {
        fill: #5c6924;
        stroke: #1d1d1b;
        stroke-linecap: round;
        stroke-linejoin: round;
        stroke-width: 1.42px;
      }
    </style>
  </defs>
  <path class="cls-1" d="M80.38,0c.27,51.3.46,90.24.46,97.65h-10.4S70.5,56.46,70.62,0"/>
  <path class="cls-1" d="M50.4,66.07c-2.15,2,4.87,3.16,6.97,1.32s5.79-1.58,6.58-1.32,6.31.66,7.89-1.45,5.26-8.68-1.45-8.81-4.14,3.16-8.05,4.73-4.31-1.58-11.94,5.52Z"/>
  <path class="cls-1" d="M77.51,50.63s-1.26,4-.41,6.45,3.1,5.57,5.17,7.07,4.61,1.36,4.46,5.51.08,6.49,1.32,7.2,1.55,3.78,1.55,3.78c0,0,2.94-3.31,1.65-5.12s.72-4.05,1.27-6.34c.55-2.29,2.27-4.67-.56-9.16s-3.3-6.24-2.83-7.33,1.11-5.42-2.79-6.51c-3.9-1.08-6.22-.38-8.82,4.44Z"/>
</svg>