<?xml version="1.0" encoding="UTF-8"?>
<svg id="Camada_1" data-name="Camada 1" xmlns="http://www.w3.org/2000/svg" viewBox="0 0 150 100">
  <defs>
    <style>
      .cls-1, .cls-2 {
        fill: #5c6924;
      }

      .cls-3 {
        fill: #8da627;
      }

      .cls-3, .cls-2 {
        stroke: #1d1d1b;
        stroke-linecap: round;
        stroke-linejoin: round;
        stroke-width: 1.42px;
      }
    </style>
  </defs>
  <polygon class="cls-1" points="71.35 100 79.13 100 78.36 0 72.07 0 71.35 100"/>
  <path class="cls-3" d="M72,0c-.29,20.71-.53,57.22-.73,100"/>
  <path class="cls-3" d="M78.51.06c.18,20.69.43,57.17.71,99.94"/>
  <path class="cls-2" d="M77.25,6.25s-4.05,1.33-4.11,5.63,1.78,9.63,5.38,12.3,11.35.59,11.77,5.48-2.7,5.19-2.33,11.41,10.82,10.81,11.38,10.81c0,0-5.37-12.3-1.96-18.96S82.63,1.95,77.25,6.25Z"/>
  <path class="cls-2" d="M67.39,39.12s4.91-2.84,7.44,3.66.46,12.13-5.31,17.17-3.04,15.11-1.97,16.44-.55,5.19-4.11,5.33c0,0,3.11-2.81-.44-7.26s-3.26-14.07-2.07-16.3,3.21-9.2,1.93-13.78,2.23-9.53,5.16-6.15"/>
</svg>