<?xml version="1.0" encoding="UTF-8"?>
<svg id="Camada_1" data-name="Camada 1" xmlns="http://www.w3.org/2000/svg" viewBox="0 0 150 100">
  <defs>
    <style>
      .cls-1, .cls-2 {
        fill: #5c6924;
      }

      .cls-3 {
        fill: #8da627;
      }

      .cls-3, .cls-2 {
        stroke: #1d1d1b;
        stroke-linecap: round;
        stroke-linejoin: round;
        stroke-width: 1.42px;
      }
    </style>
  </defs>
  <polygon class="cls-1" points="70.7 100 80.26 100 79.6 0 71.08 0 70.7 100"/>
  <path class="cls-3" d="M70.62,100c.07-30.28.15-64.94.26-100"/>
  <path class="cls-3" d="M79.82,0c.2,35.02.4,69.67.56,100"/>
  <path class="cls-2" d="M85.73,39.01s-3.56,2.96-2.37,7.11,11.26-.59,10.37-9.78-2.56-19.56-10.61-21.63-5.89,6.79-1.05,11.54,9.88,11.57,8.1,13.35-3.56,4.74-4.44-.59Z"/>
  <path class="cls-2" d="M67.83,10.25s.16-6.31,3.7-3.9,5.2,9.28,1.84,12.31c-3.37,3.03-8.25,8.95-6.87,10.52s3.66,7.08-.87,8.25-9.96-2.48-9.96-2.48c0,0,8.83.92,7.14-2.17s-5.11-5.11-2.83-7.92,5.05-4.99,4.52-7.7-3.91-7.59-2.43-9.38c.81-.98,2.86-1.15,5.91-.21"/>
  <path class="cls-2" d="M66.87,62.66s-1.31-1.56-4.65-1.78-3.11,4.89,0,9.56,1.22,7.88-2.73,9.56c-3.15,1.33-4.93,1.11-6.6,4.22-2.56,4.78,3,10.88,7,11.77s6.98-3.77,6.98-3.77c0,0-9.68,1.62-7.38-2,1.62-2.56,3.44-2.61,5.73-3.56,4.15-1.71,8.44-6.33,9.15-12,.36-2.88,2.12-10.68-2.46-14.45s-5.04,6.67-5.04,6.67"/>
</svg>