<?xml version="1.0" encoding="UTF-8"?>
<svg id="Camada_1" data-name="Camada 1" xmlns="http://www.w3.org/2000/svg" viewBox="0 0 150 100">
  <defs>
    <style>
      .cls-1 {
        fill: #3f1c12;
      }

      .cls-1, .cls-2, .cls-3 {
        stroke: #1d1d1b;
        stroke-linecap: round;
        stroke-linejoin: round;
        stroke-width: 1.42px;
      }

      .cls-2 {
        fill: #b28a30;
      }

      .cls-3 {
        fill: #5c6924;
      }
    </style>
  </defs>
  <path class="cls-3" d="M72,100c.15-10.78.31-17.27.48-18.15,1.47-7.37,5.4-3.97,5.8,0,.05.5.13,7.04.23,18.15"/>
  <path class="cls-2" d="M56.23,63.07s-2.32.11-2.95,3.69-.61,2.25-.89,6.71-3.39,3.94-.58,11.26c0,0,.41-4.34,1.98-5.25s2.63-4.47,2.74-9.68-.29-6.73-.29-6.73Z"/>
  <path class="cls-2" d="M99.3,62.39s2.56,3.27,2.67,5.8.11,4.38.44,6.9-2.44,7.38-2.11,9.78-2.22-2.04-2.22-4.93-.67-6.44-1.11-9.67-.74-9.1,2.34-7.89Z"/>
  <path class="cls-2" d="M70.38,79.17s3.99-.78,4.88,0,1.56,6.44,0,8.44-2.03,6.01-2.44,5.11c-1.53-3.33-2-4.79-1-6.95s-1.44-6.6-1.44-6.6Z"/>
  <path class="cls-2" d="M65.73,78.83s2.2-2.83,3.11-1.32,2.22,3,1.11,5.22-3.11,3.56-1.33,4.89c0,0-3.89,3.19-3.89-1.79s1-7,1-7Z"/>
  <path class="cls-2" d="M97.15,63.95s1.89,4.78,1.44,9.11.61,4.22.97,5.22c0,0-3.19.33-4.41-1.22s-1.89-6.56-1.22-9.78,3.22-3.33,3.22-3.33Z"/>
  <path class="cls-2" d="M90.04,69.73s2.67,2.78,2.67,6.33-1.22,6.01-.78,6.78,1.11,1.23.22,3-2.11,2.91-2.11,2.91c0,0,.78-3.47-.89-5.03s-.21-6.67-.21-6.67c0,0,.66-6.22,1.1-7.33Z"/>
  <path class="cls-2" d="M83.26,75.84c-.44,1-.89,4.33,0,5.67s-.07,3.56-.26,4.34.19,3.89.19,3.89c0,0-.07,3.44-.44,4.11s2.83-2.88,2.95-5.22.75-5.66.67-7.94-.67-4.84-.67-4.84h-2.44Z"/>
  <path class="cls-2" d="M59.48,73.28s-2.67,2.39-2.22,5.03,1.84,4.39,1.09,6.57-1.14,3.74-1.14,3.74c0,0,3.49-1.9,4.27-4.45s0-4.93,0-4.93l-.11-3.4-1.89-2.56Z"/>
  <ellipse class="cls-1" cx="75.14" cy="59.97" rx="24.42" ry="20.71"/>
  <path class="cls-2" d="M49.15,53.17s-1.19,1.33-.89,4,2.7,7.83,2.46,11.02-2.41,3.64-2.51,6.9c0,0,6.5-4.14,6.24-6.44s-.26-12.52-.11-15.04-3.11-2.52-5.19-.44Z"/>
  <path class="cls-2" d="M55.86,44.16s2.62-.89,3.31,1.19,1.37,9.67,0,12.69-2.62,9.24-2.2,10.57-2.21-1.19-2.49-5.48-2.07-10.67-2.07-13.93,3.45-5.04,3.45-5.04Z"/>
  <path class="cls-2" d="M79.28,39.56s2.75-2.39,4.64-1.95,3.62,3,3.42,4.22-1.53,7-1.76,9.33.78,5.04-.11,8.8-6.17,6.2-6.2,6.42,2.75-6.78,1.87-9.44-2-8.33-1.22-10.44-.17-6.11-.64-6.94Z"/>
  <path class="cls-2" d="M90.53,43.89s1.62,2.27.84,6.11-1.47,9.5-.84,11.28,3.4,6,3.4,6c0,0-.89-3.67,0-6.89s1.44-6.9,1.56-8.73.64-11.06-4.96-7.78Z"/>
  <path class="cls-2" d="M97.03,50.79s2.16-.71,3.3,1.67.47,7.04,1.14,9.27,3.11,4.22,3.11,4.22c0,0-2.62.89-5.03-.56s-1.97-8.39-1.97-9.69-.56-4.91-.56-4.91Z"/>
  <path class="cls-2" d="M77.09,40.19s.1-2.39-3.01-3.39-4.89.73-4.89,1.7,0,4.53.56,7.97,4.48,6.67,2.07,9.22-2.63,7.98.93,8.21,4.35-1.77,4.35-1.77c0,0-3.79-.67-1.57-4.33s2-6.22,1-9.11.63-7.96.57-8.49Z"/>
  <path class="cls-2" d="M68.77,39.79s-.74-1.49-3.96-1.02-2.89,5.02-2.67,6.35,1.78,3.33,1.44,7-2.44,11.11-.11,14.67,1.91,2.89,1.91,2.89c0,0-.86-7.33,1-8.89s3.9-13.88,2.38-21Z"/>
</svg>