<?xml version="1.0" encoding="UTF-8"?>
<svg id="Camada_1" data-name="Camada 1" xmlns="http://www.w3.org/2000/svg" viewBox="0 0 150 100">
  <defs>
    <style>
      .cls-1 {
        fill: #f9c745;
      }

      .cls-1, .cls-2, .cls-3 {
        stroke: #1d1d1b;
        stroke-linecap: round;
        stroke-linejoin: round;
        stroke-width: 1.42px;
      }

      .cls-2 {
        fill: #8da627;
      }

      .cls-3 {
        fill: #5a2d1c;
      }
    </style>
  </defs>
  <path class="cls-1" d="M56.38,42.52s-2.45,3.2-7.09,3.09-9.6-3.39-11.45-7.68-4.55-6.66-3.42-7.16,14.24-3.41,17.32-.28c3.09,3.13,6.39,8.88,4.64,12.03Z"/>
  <path class="cls-1" d="M80.51,37.33s-7.27-5.27-6.93-10.61,8.02-16.73,11-15.84c2.98.89,3.86,6.82,3.06,11.93-.8,5.11,4.8,11.08-7.12,14.52Z"/>
  <path class="cls-2" d="M121.55,80.32s-6.51,6.46-19.83,8.24-21.86,10.67-24.7,10.07-2.69-11.85,9.09-15.41,21.19,1.3,35.45-2.9Z"/>
  <path class="cls-1" d="M86.62,69.48s-4.47,1.35-5.11,4.29,5.74,12.77,8.55,13.79,3.69.68,4.2-2.51,1.8-14.61-2.92-15.09l-4.72-.48Z"/>
  <path class="cls-2" d="M72,100c.15-10.78.31-17.27.48-18.15,1.47-7.37,5.4-3.97,5.8,0,.05.5.13,7.04.23,18.15"/>
  <path class="cls-2" d="M46.28,80.37s6.08,10.12,12.28,14.12,9.02,2.8,13.6,1.18,4.15-10.51-3.3-13.18-22.58-2.12-22.58-2.12Z"/>
  <path class="cls-2" d="M72,100c.15-10.78.31-17.27.48-18.15,1.47-7.37,5.4-3.97,5.8,0,.05.5.13,7.04.23,18.15"/>
  <path class="cls-1" d="M71.16,68.02s7.27,5.27,6.93,10.61c-.34,5.33-8.02,16.73-11,15.84s-3.86-6.82-3.06-11.93-4.8-11.08,7.12-14.52Z"/>
  <path class="cls-1" d="M65.46,67.42s-3.18-1-7.02.89c-3.84,1.89-11.04,12.57-7.83,21.54,1.02,2.85,24.37-5.64,14.85-22.43Z"/>
  <path class="cls-1" d="M84.78,52.92s1.69-10.17,7.83-11.75c6.14-1.58,16.53-5.86,30.36.82,8.24,3.98-16.45,15.82-27.32,13.37-10.88-2.45-9.89-.3-10.88-2.45Z"/>
  <path class="cls-1" d="M94.52,39.16s-2.43-5.72-.12-9.13,4.87-9.99,17.73-8.54c4.82.55-4.29,23.39-17.61,17.66Z"/>
  <path class="cls-1" d="M122.7,33.66s-6.41,11.51-15.19,15.08c-8.79,3.57-22,3.32-22.66-2.09s-.2-7.07,23.27-12.37c8.88-2.01,14.59-.62,14.59-.62Z"/>
  <path class="cls-1" d="M86.29,57.32s7.36-5.21,19.34,2.25c11.98,7.46,13.53,14.98,11.21,16.04s-8.81,3.25-14.95.43-20.7-14.72-15.6-18.71Z"/>
  <path class="cls-1" d="M124.94,62.55s-3.52-8.59-9.15-11.07-20.18-6.23-26.46-2.1c-6.29,4.14-3.57,11.91-.14,13.46s25.49,8.06,35.75-.28Z"/>
  <path class="cls-1" d="M44.56,13.55s-2.83,8.85-.11,14.36c2.72,5.52,11.45,17.74,18.92,18.62s10.39-6.83,8.75-10.22c-1.64-3.39-14.34-22.56-27.57-22.76Z"/>
  <path class="cls-1" d="M105.61,81.54s-1.52-8.17-6.59-13.9c-5.07-5.72-12.58-13.29-17.9-11.32s-.12,14.6,1.75,16.65,15.61,14.08,22.73,8.57Z"/>
  <path class="cls-1" d="M72.67,41.69s-8.72-2.29-10.71-16.26,2.78-19.99,5.08-18.89,8.15,4.66,9.94,11.17,2.03,25.32-4.31,23.98Z"/>
  <path class="cls-1" d="M54.02,52.79s-1.39-3.13-5.23-4.68c-3.85-1.54-16.05.71-20.22,9.61-1.33,2.83,19.94,14.4,25.45-4.94Z"/>
  <path class="cls-1" d="M25.73,45.72s11.3-6.77,20.7-5.46c9.39,1.3,20.71,8.12,18.58,13.14s-3.36,6.22-26.33-.92c-8.69-2.7-12.95-6.76-12.95-6.76Z"/>
  <path class="cls-1" d="M81.77,45.98s-6.7-7.83-3.96-13.55c2.74-5.72,6.13-16.43,20.15-22.73,8.35-3.76,1.55,22.77-7.32,29.53s-6.58,7.39-8.86,6.76Z"/>
  <path class="cls-1" d="M37.56,79.41s8.31-.08,14.83-4.08c6.52-4,15.27-10.08,14.26-15.66-1.02-5.57-14.36-2.65-16.7-1.16s-16.57,12.93-12.38,20.9Z"/>
  <path class="cls-1" d="M78.19,69.33s4.03-.19,6.93,3.44c2.9,3.63,3.58,9.54,1.48,13.71s-2.18,7.76-3.28,7.22-11.76-8.72-11.35-13.09,2.7-10.6,6.23-11.29Z"/>
  <ellipse class="cls-3" cx="75.83" cy="52.68" rx="26.86" ry="30.17" transform="translate(11.92 119.32) rotate(-80.99)"/>
</svg>