<?xml version="1.0" encoding="UTF-8"?>
<svg id="Camada_1" data-name="Camada 1" xmlns="http://www.w3.org/2000/svg" viewBox="0 0 150 100">
  <defs>
    <style>
      .cls-1, .cls-2 {
        fill: #8da627;
      }

      .cls-2 {
        stroke: #1d1d1b;
        stroke-linecap: round;
        stroke-linejoin: round;
        stroke-width: 1.42px;
      }
    </style>
  </defs>
  <polygon class="cls-1" points="70.7 100 80.26 100 79.6 0 71.08 0 70.7 100"/>
  <path class="cls-2" d="M70.62,100c.07-30.28.15-64.94.26-100"/>
  <path class="cls-2" d="M79.82,0c.2,35.02.4,69.67.56,100"/>
  <path class="cls-2" d="M62.58,3.66c-11.85-5.32-17.06,8.97-20.84,16.95-3.78,7.98-9.02,11.3-9.02,11.3,0,0,22.66,2.33,31.52-6.15,8.86-8.47,10.86-17.61,9.86-20.27-1-2.66-7.56-6.98-13.58.33s-5.97,9.87-6.99,11.17"/>
  <path class="cls-2" d="M116.64,29.43s-34.53,5.74-36.59-10.05c-2.06-15.8,21.89-4.31,26.43-1.72,4.54,2.59,15.53,7.47,19.37,8.33s-9.22,3.45-9.22,3.45Z"/>
  <path class="cls-2" d="M59.57,54.01c-.9-2.81-4.6-8.63-12.63-6.22-8.93,2.68-7.59,12.05-4.46,24.1,3.12,12.05,1.34,26.33,1.34,26.33,0,0,29.19-14.73,29.33-30.8.13-16.07-16.48-15.62-19.78-9.82,0,0-2.83,3.32-2.38,11.95.45,8.63.02,8.91.02,8.91"/>
</svg>