<?xml version="1.0" encoding="UTF-8"?>
<svg id="Camada_1" data-name="Camada 1" xmlns="http://www.w3.org/2000/svg" viewBox="0 0 150 100">
  <defs>
    <style>
      .cls-1 {
        stroke-width: 1.38px;
      }

      .cls-1, .cls-2, .cls-3 {
        fill: #8da627;
      }

      .cls-1, .cls-3 {
        stroke: #1d1d1b;
        stroke-linecap: round;
        stroke-linejoin: round;
      }

      .cls-3 {
        stroke-width: 1.42px;
      }
    </style>
  </defs>
  <path class="cls-3" d="M36,3.62s0,13.66,7.02,19.51c7.02,5.85,21.85,29.66,27.71,28.49s6.63-24.19-9.37-36.29C45.37,3.23,38.73,2.84,36,3.62Z"/>
  <path class="cls-3" d="M23.46,62.71s27.89-.12,40.35,7.08,18.83,20.54,8.09,20.54-22.14,4.32-48.44-27.62Z"/>
  <path class="cls-3" d="M78.31,26.7c-1.08-.48-2.37-13.04,3.85-17.78s13.04-6.52,14.22-5.04-.3,15.41-3.85,18.07-6.81,8-14.22,4.74Z"/>
  <path class="cls-3" d="M140.63,13.57s-24.08,40.14-53.78,42.14c-29.7,2.01,5.18-38,30.47-37.5,0,0,16.52-.07,23.31-4.65Z"/>
  <polygon class="cls-2" points="71.35 100 79.13 100 78.36 0 72.07 0 71.35 100"/>
  <path class="cls-1" d="M72,0c-.29,20.71-.53,57.22-.73,100"/>
  <path class="cls-1" d="M78.51.06c.18,20.69.43,57.17.71,99.94"/>
</svg>