<?xml version="1.0" encoding="UTF-8"?>
<svg id="Camada_1" data-name="Camada 1" xmlns="http://www.w3.org/2000/svg" viewBox="0 0 150 100">
  <defs>
    <style>
      .cls-1, .cls-2 {
        fill: #8da627;
      }

      .cls-2 {
        stroke: #1d1d1b;
        stroke-linecap: round;
        stroke-linejoin: round;
        stroke-width: 1.42px;
      }
    </style>
  </defs>
  <path class="cls-2" d="M49.21,3.32s5.64,10.12,11.39,14.12,8.37,2.8,12.62,1.18,3.85-10.51-3.06-13.18-20.95-2.12-20.95-2.12Z"/>
  <path class="cls-2" d="M125.24,10.16s-10.77,8.64-14.09,11.57-8.29,8.73-24.03,11.22c-15.74,2.49-6.63-9.59,0-11.22,6.63-1.63,36.05-9.92,38.12-11.57Z"/>
  <polygon class="cls-1" points="71.35 100 79.13 100 78.36 0 72.07 0 71.35 100"/>
  <path class="cls-2" d="M72,0c-.29,20.71-.53,57.22-.73,100"/>
  <path class="cls-2" d="M78.51.06c.18,20.69.43,57.17.71,99.94"/>
</svg>