<?xml version="1.0" encoding="UTF-8"?>
<svg id="Camada_1" data-name="Camada 1" xmlns="http://www.w3.org/2000/svg" viewBox="0 0 150 100">
  <defs>
    <style>
      .cls-1, .cls-2 {
        fill: #8da627;
      }

      .cls-2 {
        stroke: #1d1d1b;
        stroke-linecap: round;
        stroke-linejoin: round;
        stroke-width: 1.42px;
      }
    </style>
  </defs>
  <path class="cls-2" d="M97.04,65.86s-17.89-2.33-21.56,2.11-2.02,10.5,2.34,13.62c4.36,3.12,16.43,1.68,19.41-2.83,2.97-4.52-.19-12.9-.19-12.9Z"/>
  <path class="cls-2" d="M56.52,20.43c5.18-3.46,8.17-13.59,13.92-15.89,5.75-2.3,9.2,8.92,2.85,18.41-6.35,9.49-33.92,12.94-33.92,12.94,0,0,11.96-16.91,12.94-25.6.87-7.73,10.47-10.54,14.86-3.64"/>
  <g>
    <path class="cls-2" d="M23.04,82.71s12-1.33,24,1.78,28.44,5.65,28.44-2.06c0-.54,0-1.07-.01-1.57-.15-6.67-1.87-10.03-20.88-9.87-20.44.17-23.56,4.62-31.56,11.73Z"/>
    <path class="cls-2" d="M50.56,77.34s14.6-1.16,24.91,3.51"/>
  </g>
  <polygon class="cls-1" points="71.35 100 79.13 100 78.36 0 72.07 0 71.35 100"/>
  <path class="cls-2" d="M72,0c-.29,20.71-.53,57.22-.73,100"/>
  <path class="cls-2" d="M78.51.06c.18,20.69.43,57.17.71,99.94"/>
</svg>