<?xml version="1.0" encoding="UTF-8"?>
<svg id="Camada_1" data-name="Camada 1" xmlns="http://www.w3.org/2000/svg" viewBox="0 0 150 100">
  <defs>
    <style>
      .cls-1 {
        fill: #8da627;
        stroke: #1d1d1b;
        stroke-linecap: round;
        stroke-linejoin: round;
        stroke-width: 1.42px;
      }
    </style>
  </defs>
  <path class="cls-1" d="M80.38,0c.27,51.3.46,90.24.46,97.65h-10.4S70.5,56.46,70.62,0"/>
  <path class="cls-1" d="M91.28,36.19c10.1-10.45,21.5.31,26.07,7.6,4.57,7.3,22.54,18.82,22.54,18.82,0,0-32.22,11.38-50,1.96-17.78-9.42-16.48-31.64,2.18-27.98,15.11,2.97,9.49,10.89,21.03,17.37"/>
  <path class="cls-1" d="M52.09,65.42c5.18-3.46,8.17-13.59,13.92-15.89,5.75-2.3,9.2,8.92,2.85,18.41-6.35,9.49-33.92,12.94-33.92,12.94,0,0,11.96-16.91,12.94-25.6.87-7.73,10.47-10.54,14.86-3.64"/>
</svg>