<?xml version="1.0" encoding="UTF-8"?>
<svg id="Camada_1" data-name="Camada 1" xmlns="http://www.w3.org/2000/svg" viewBox="0 0 150 100">
  <defs>
    <style>
      .cls-1 {
        fill: #5a2110;
      }

      .cls-2 {
        fill: #c16731;
      }

      .cls-3, .cls-4, .cls-5 {
        fill: none;
      }

      .cls-3, .cls-4, .cls-5, .cls-6 {
        stroke-linecap: round;
        stroke-linejoin: round;
      }

      .cls-3, .cls-6 {
        stroke: #1d1d1b;
        stroke-width: 1.42px;
      }

      .cls-7 {
        fill: #b5a68c;
      }

      .cls-4 {
        stroke-width: 5.67px;
      }

      .cls-4, .cls-5 {
        stroke: #155528;
      }

      .cls-8 {
        fill: #944015;
      }

      .cls-5 {
        stroke-width: 7.14px;
      }

      .cls-9 {
        fill: #8d3e1c;
      }

      .cls-10 {
        fill: #e09b55;
      }

      .cls-11 {
        fill: #f4eee2;
      }

      .cls-12 {
        fill: #783316;
      }

      .cls-13 {
        fill: #bc7432;
      }

      .cls-6 {
        fill: #1d1d1b;
      }
    </style>
  </defs>
  <path class="cls-11" d="M115.43,15.66H34.57v41.99c0,11.31,4.64,21.53,12.13,28.87,0,0,0,0,0,0,0,2.39,12.67,4.33,28.3,4.33s28.3-1.94,28.3-4.33c0,0,0,0,0,0,7.48-7.34,12.13-17.56,12.13-28.87V15.66Z"/>
  <path class="cls-7" d="M115.43,15.66h-13.48v41.99c0,11.31-4.64,21.53-12.13,28.87,0,0,0,0,0,0,0,2.04-9.19,3.74-21.56,4.2,2.16.08,4.42.12,6.74.12,15.63,0,28.3-1.94,28.3-4.33,0,0,0,0,0,0,7.48-7.34,12.13-17.56,12.13-28.87V15.66Z"/>
  <g>
    <g>
      <path class="cls-11" d="M34.63,15.66v7.64c-.04.11-.06.22-.06.32,0,3.41,18.1,6.18,40.43,6.18s40.43-2.77,40.43-6.18v-7.96H34.63Z"/>
      <ellipse class="cls-9" cx="75" cy="15.33" rx="40.43" ry="6.18"/>
    </g>
    <path class="cls-7" d="M101.95,19.94v3.68c0,3.06-14.57,5.6-33.69,6.1,2.19.06,4.44.09,6.74.09,22.33,0,40.43-2.77,40.43-6.18v-7.96h-.06c-.57,1.7-5.64,3.22-13.42,4.28Z"/>
  </g>
  <g>
    <path class="cls-3" d="M34.63,15.66v7.64c-.04.11-.06.22-.06.32,0,3.41,18.1,6.18,40.43,6.18s40.43-2.77,40.43-6.18v-7.96H34.63Z"/>
    <ellipse class="cls-6" cx="75" cy="15.33" rx="40.43" ry="6.18"/>
  </g>
  <g>
    <path class="cls-10" d="M75,90.64c15.63,0,28.3-1.94,28.3-4.33,0,0,0,0,0,0,7.48-7.34,12.13-17.56,12.13-28.87v-24.23c-5.42-1.87-12.55-3.11-21.09-1.87-20.44,2.96-23.7,10.96-35.85,10.07-8.24-.6-15.93-.53-23.91-7.44v23.47c0,11.31,4.64,21.53,12.13,28.87,0,0,0,0,0,0,0,2.39,12.67,4.33,28.3,4.33Z"/>
    <path class="cls-2" d="M115.43,55.87c-13.6.04-31.27-1.51-47.16-5.27-13.07-3.09-25.53.59-33.69,4.24v2.6c0,11.31,4.64,21.53,12.13,28.87,0,0,0,0,0,0,0,2.39,12.67,4.33,28.3,4.33s28.3-1.94,28.3-4.33c0,0,0,0,0,0,7.48-7.34,12.13-17.56,12.13-28.87v-1.57Z"/>
    <path class="cls-12" d="M63.97,76.08c-7.02,3.2-15.15,4.2-22.27,4.28,1.48,2.14,3.16,4.14,5.01,5.95,0,0,0,0,0,0,0,2.39,12.67,4.33,28.3,4.33s28.3-1.94,28.3-4.33c0,0,0,0,0,0,4.05-3.97,7.26-8.8,9.36-14.18-21.68-6.71-34.08-2.72-48.69,3.95Z"/>
    <g>
      <line class="cls-5" x1="63.23" y1="42.6" x2="63.23" y2="80.74"/>
      <polyline class="cls-4" points="63.23 57.86 73.01 57.86 73.01 50.3"/>
      <polyline class="cls-4" points="54.78 54.08 54.78 66.52 63.23 66.52"/>
    </g>
  </g>
  <path class="cls-13" d="M101.95,57.65c0,11.31-4.64,21.53-12.13,28.87,0,0,0,0,0,0,0,1.88-7.86,3.48-18.83,4.08,1.31.03,2.65.04,4.01.04,15.63,0,28.3-1.94,28.3-4.33,0,0,0,0,0,0,7.48-7.34,12.13-17.56,12.13-28.87v-24.23c-3.72-1.28-8.25-2.27-13.48-2.36v26.8Z"/>
  <path class="cls-8" d="M101.95,57.65c0,11.31-4.64,21.53-12.13,28.87,0,0,0,0,0,0,0,1.88-7.86,3.48-18.83,4.08,1.31.03,2.64.04,4,.04,0,0,0,0,0,0,15.63,0,28.3-1.94,28.3-4.33,0,0,0,0,0,0h0c7.48-7.34,12.13-17.56,12.13-28.87v-1.57c-4.17.01-8.72-.13-13.48-.43v2.21Z"/>
  <path class="cls-1" d="M89.82,86.52s0,0,0,0c0,1.88-7.86,3.48-18.83,4.08,1.31.03,2.64.04,4,.04,0,0,0,0,0,0h0c14.16,0,25.9-1.59,27.97-3.67.01-.01.02-.02.03-.04.19-.2.3-.41.3-.62,0,0,0,0,0,0h0c.49-.48.97-.98,1.43-1.48.12-.13.24-.27.35-.4.34-.38.69-.77,1.01-1.17.12-.14.23-.29.35-.43.32-.4.64-.81.95-1.22.1-.13.19-.27.29-.4.32-.44.63-.88.93-1.33.08-.11.15-.23.23-.35.32-.48.62-.97.92-1.47.05-.09.11-.18.16-.27.31-.54.61-1.08.9-1.63.03-.06.06-.12.09-.18.3-.59.6-1.19.87-1.8.01-.03.03-.06.04-.09.29-.64.57-1.29.82-1.95-4.51-1.4-8.61-2.32-12.42-2.86-1.99,6.62-5.61,12.53-10.42,17.25Z"/>
  <path class="cls-3" d="M115.43,15.66H34.57v41.99c0,11.31,4.64,21.53,12.13,28.87,0,0,0,0,0,0,0,2.39,12.67,4.33,28.3,4.33s28.3-1.94,28.3-4.33c0,0,0,0,0,0,7.48-7.34,12.13-17.56,12.13-28.87V15.66Z"/>
</svg>