<?xml version="1.0" encoding="UTF-8"?>
<svg id="Camada_1" data-name="Camada 1" xmlns="http://www.w3.org/2000/svg" viewBox="0 0 150 100">
  <defs>
    <style>
      .cls-1, .cls-2 {
        fill: #daa3a9;
      }

      .cls-3 {
        stroke: #daa3a9;
      }

      .cls-3, .cls-4, .cls-5 {
        fill: #1d1d1b;
      }

      .cls-3, .cls-2, .cls-6, .cls-5 {
        stroke-linecap: round;
        stroke-linejoin: round;
      }

      .cls-3, .cls-6, .cls-5 {
        stroke-width: 1.42px;
      }

      .cls-7 {
        fill: #ad737b;
      }

      .cls-2 {
        stroke-width: 1.06px;
      }

      .cls-2, .cls-6, .cls-5 {
        stroke: #1d1d1b;
      }

      .cls-6 {
        fill: none;
      }

      .cls-8 {
        fill: #449368;
      }

      .cls-9 {
        fill: #8d3e1c;
      }

      .cls-10 {
        fill: #6fbe95;
      }
    </style>
  </defs>
  <path class="cls-10" d="M34.57,15.66v11.06c0,11.31,4.65,21.52,12.13,28.86v30.95c0,2.39,12.67,4.33,28.3,4.33s28.3-1.94,28.3-4.33v-30.95c7.48-7.34,12.13-17.55,12.13-28.86v-11.06H34.57Z"/>
  <polygon class="cls-1" points="115.32 25.12 115.38 14.07 34.59 14.07 34.59 25.12 75.01 36.97 115.32 25.12"/>
  <path class="cls-8" d="M34.57,15.66h0s67.38,0,67.38,0v11.06c0,11.31-4.65,21.52-12.13,28.86v30.95c0,2.03-9.17,3.74-21.53,4.2,2.15.08,4.4.12,6.71.12,15.63,0,28.3-1.94,28.3-4.33v-30.95c7.48-7.34,12.13-17.55,12.13-28.86v-11.06H34.57Z"/>
  <path class="cls-6" d="M34.57,15.66v11.06c0,11.31,4.65,21.52,12.13,28.86v30.95c0,2.39,12.67,4.33,28.3,4.33s28.3-1.94,28.3-4.33v-30.95c7.48-7.34,12.13-17.55,12.13-28.86v-11.06H34.57Z"/>
  <g>
    <g>
      <path class="cls-1" d="M34.63,15.66v7.64c-.04.11-.06.22-.06.32,0,3.41,18.1,6.18,40.43,6.18s40.43-2.77,40.43-6.18v-7.96H34.63Z"/>
      <ellipse class="cls-9" cx="75" cy="15.33" rx="40.43" ry="6.18"/>
    </g>
    <path class="cls-7" d="M101.95,19.94v3.68c0,3.06-14.57,5.6-33.69,6.1,2.19.06,4.44.09,6.74.09,22.33,0,40.43-2.77,40.43-6.18v-7.96h-.06c-.57,1.7-5.64,3.22-13.42,4.28Z"/>
  </g>
  <g>
    <path class="cls-6" d="M34.63,15.66v7.64c-.04.11-.06.22-.06.32,0,3.41,18.1,6.18,40.43,6.18s40.43-2.77,40.43-6.18v-7.96H34.63Z"/>
    <ellipse class="cls-5" cx="75" cy="15.33" rx="40.43" ry="6.18"/>
  </g>
  <circle class="cls-3" cx="93.55" cy="39.71" r="4.3"/>
  <g>
    <path class="cls-2" d="M80.68,62.45c-1.07,0-2.06.55-2.91,1.49-.85-.94-1.84-1.49-2.91-1.49s-2,.52-2.83,1.4c-.83-.89-1.8-1.4-2.83-1.4-3.13,0-5.67,4.66-5.67,10.41s2.54,10.41,5.67,10.41c1.03,0,2-.52,2.83-1.4.83.89,1.8,1.4,2.83,1.4s2.06-.55,2.91-1.49c.85.94,1.85,1.49,2.91,1.49,3.13,0,5.67-4.66,5.67-10.41s-2.54-10.41-5.67-10.41Z"/>
    <line class="cls-2" x1="71.93" y1="79.82" x2="71.93" y2="71.74"/>
    <line class="cls-2" x1="77.86" y1="79.82" x2="77.86" y2="71.74"/>
  </g>
  <path class="cls-4" d="M103.32,47.18c-4.46,1.67-9.11,3.11-13.92,3.27-4.79.13-9.5-.71-14.28-.79-9.51-.37-18.99-1.08-28.41-2.48-.06,0-.06-.11,0-.11,11.92,0,23.71,1.59,35.55,2.68,4.72.25,9.44-.31,14.07-1.16,2.31-.45,4.61-1.08,6.96-1.51.06-.02.09.08.03.1h0Z"/>
  <path class="cls-4" d="M103.32,52.36c-9.31,2.21-18.79,3.49-28.31,4.39-4.81.22-9.54-.88-14.27-1.57-4.7-.82-9.39-1.72-14.04-2.82-.06-.01-.05-.11.02-.11,4.76.44,9.49,1.09,14.21,1.81,4.7.68,9.33,1.91,14.08,2.1,4.76.26,9.43-1.11,14.1-1.99,4.61-.73,9.8-1.76,14.2-1.82h0Z"/>
</svg>