<?xml version="1.0" encoding="UTF-8"?>
<svg id="Camada_1" data-name="Camada 1" xmlns="http://www.w3.org/2000/svg" viewBox="0 0 150 100">
  <defs>
    <style>
      .cls-1 {
        fill: #3c3c44;
      }

      .cls-2 {
        fill: none;
      }

      .cls-2, .cls-3 {
        stroke: #1d1d1b;
        stroke-linecap: round;
        stroke-linejoin: round;
        stroke-width: 1.42px;
      }

      .cls-4 {
        fill: #110f15;
      }

      .cls-5 {
        fill: #252531;
      }

      .cls-6 {
        fill: #0e0d13;
      }

      .cls-3 {
        fill: #1d1d1b;
      }
    </style>
  </defs>
  <path class="cls-5" d="M34.57,15.66l12.13,70.86c0,2.39,12.67,4.33,28.3,4.33s28.3-1.94,28.3-4.33l12.13-70.86H34.57Z"/>
  <path class="cls-2" d="M34.57,15.66l12.13,70.86c0,2.39,12.67,4.33,28.3,4.33s28.3-1.94,28.3-4.33l12.13-70.86H34.57Z"/>
  <path class="cls-2" d="M34.57,15.66l12.13,70.86c0,2.39,12.67,4.33,28.3,4.33s28.3-1.94,28.3-4.33l12.13-70.86H34.57Z"/>
  <path class="cls-1" d="M96.91,15.66l-12.13,70.86c0,2.03-9.17,3.74-21.53,4.2,2.15.08,4.4.12,6.71.12,15.63,0,28.3-1.94,28.3-4.33l12.13-70.86"/>
  <path class="cls-4" d="M34.57,15.66h0s67.38,0,67.38,0l-12.13,70.86c0,2.03-9.17,3.74-21.53,4.2,2.15.08,4.4.12,6.71.12,15.63,0,28.3-1.94,28.3-4.33l12.13-70.86H34.57Z"/>
  <ellipse class="cls-6" cx="75" cy="15.33" rx="40.43" ry="6.18"/>
  <path class="cls-2" d="M34.57,15.66l12.13,70.86c0,2.39,12.67,4.33,28.3,4.33s28.3-1.94,28.3-4.33l12.13-70.86H34.57Z"/>
  <path class="cls-5" d="M34.63,15.66v7.64c-.04.11-.06.22-.06.32,0,3.41,18.1,6.18,40.43,6.18s40.43-2.77,40.43-6.18v-7.96H34.63Z"/>
  <path class="cls-1" d="M96.91,19.94v3.68c0,3.06-14.57,5.6-33.69,6.1,2.19.06,4.44.09,6.74.09,22.33,0,40.43-2.77,40.43-6.18v-7.96h-.06c-.57,1.7-5.64,3.22-13.42,4.28Z"/>
  <path class="cls-4" d="M101.95,19.94v3.68c0,3.06-14.57,5.6-33.69,6.1,2.19.06,4.44.09,6.74.09,22.33,0,40.43-2.77,40.43-6.18v-7.96h-.06c-.57,1.7-5.64,3.22-13.42,4.28Z"/>
  <g>
    <path class="cls-2" d="M34.63,15.98v7.64c-.04.11-.06.22-.06.32,0,3.41,18.1,6.18,40.43,6.18s40.43-2.77,40.43-6.18v-7.96H34.63Z"/>
    <ellipse class="cls-3" cx="75" cy="15.66" rx="40.43" ry="6.18"/>
  </g>
</svg>