<?xml version="1.0" encoding="UTF-8"?>
<svg id="Camada_1" data-name="Camada 1" xmlns="http://www.w3.org/2000/svg" viewBox="0 0 150 100">
  <defs>
    <style>
      .cls-1 {
        fill: #33597f;
      }

      .cls-2 {
        fill: #567ba5;
      }

      .cls-3, .cls-4, .cls-5 {
        fill: none;
      }

      .cls-3, .cls-4, .cls-5, .cls-6 {
        stroke-linecap: round;
        stroke-linejoin: round;
      }

      .cls-3, .cls-5 {
        stroke: #567ba5;
      }

      .cls-4, .cls-6 {
        stroke: #1d1d1b;
        stroke-width: 1.42px;
      }

      .cls-7 {
        fill: #b5a68c;
      }

      .cls-5 {
        stroke-width: 1.18px;
      }

      .cls-8 {
        fill: #f4eee2;
      }

      .cls-6 {
        fill: #1d1d1b;
      }

      .cls-9 {
        fill: #567ca6;
      }
    </style>
  </defs>
  <path class="cls-8" d="M112.68,31.69l2.74-16.03H34.57l2.74,16.03c-5.39,2.94-8.12,12.43-4.91,20.21l14.29,34.62h0c0,2.4,12.67,4.33,28.3,4.33s28.3-1.94,28.3-4.33h0s14.29-34.62,14.29-34.62c3.21-7.78.48-17.27-4.91-20.21Z"/>
  <path class="cls-7" d="M112.68,31.69l2.74-16.03H34.57h0s67.38,0,67.38,0l-2.74,16.03c5.39,2.94,8.12,12.43,4.91,20.21l-14.29,34.62h0c0,2.04-9.17,3.74-21.53,4.21,2.15.08,4.4.12,6.71.12,15.63,0,28.3-1.94,28.3-4.33h0s14.29-34.62,14.29-34.62c3.21-7.78.48-17.27-4.91-20.21Z"/>
  <g>
    <g>
      <path class="cls-2" d="M34.63,15.66v7.64c-.04.11-.06.22-.06.32,0,3.41,18.1,6.18,40.43,6.18s40.43-2.77,40.43-6.18v-7.96H34.63Z"/>
      <ellipse class="cls-7" cx="75" cy="15.33" rx="40.43" ry="6.18"/>
    </g>
    <path class="cls-1" d="M101.95,19.94v3.68c0,3.06-14.57,5.6-33.69,6.1,2.19.06,4.44.09,6.74.09,22.33,0,40.43-2.77,40.43-6.18v-7.96h-.06c-.57,1.7-5.64,3.22-13.42,4.28Z"/>
  </g>
  <g>
    <path class="cls-4" d="M34.63,15.66v7.64c-.04.11-.06.22-.06.32,0,3.41,18.1,6.18,40.43,6.18s40.43-2.77,40.43-6.18v-7.96H34.63Z"/>
    <ellipse class="cls-6" cx="75" cy="15.33" rx="40.43" ry="6.18"/>
  </g>
  <g>
    <path class="cls-2" d="M82.76,39.07c0,2.83-5.03,5.12-7.85,5.12s-7.8-2.29-7.8-5.12,4.97-5.12,7.8-5.12,7.85,2.29,7.85,5.12Z"/>
    <path class="cls-9" d="M64.2,43.14c6.08,2.36,12.61,3.7,18.75,1.11.94-.3,1.76-.8,2.73-1.11-4.89,7.45-16.32,6.8-21.48,0h0Z"/>
    <path class="cls-9" d="M75.18,49.86c.42,1.56.75,3.13.99,4.72.12.79.5,1.57.28,2.36-.19.79-.5,1.57-1.28,2.36h-.28c-1.47-1.57-1.52-2.88-.99-4.72.24-1.59.58-3.16.99-4.72,0,0,.28,0,.28,0h0Z"/>
    <path class="cls-9" d="M71.48,49.29c-.14,1.61-.36,3.2-.68,4.78-.16.78-.07,1.65-.54,2.32-.45.68-1,1.31-2.01,1.78l-.27-.1c-.85-1.98-.45-3.22.68-4.78.77-1.41,1.62-2.77,2.55-4.1,0,0,.27.1.27.1h0Z"/>
    <path class="cls-9" d="M68.19,47.49c-.68,1.46-1.44,2.88-2.28,4.26-.42.68-.63,1.52-1.3,1.99-.65.48-1.39.89-2.49.99l-.22-.18c-.12-2.15.68-3.18,2.28-4.26,1.2-1.06,2.47-2.05,3.8-2.98,0,0,.22.18.22.18h0Z"/>
    <path class="cls-9" d="M78.85,49.12c.92,1.32,1.78,2.69,2.55,4.1.38.7,1,1.31,1.07,2.12.09.8.07,1.65-.39,2.65,0,0-.27.1-.27.1-1.92-.97-2.41-2.18-2.55-4.1-.32-1.57-.54-3.17-.68-4.78,0,0,.27-.1.27-.1h0Z"/>
    <path class="cls-9" d="M82.05,47.18c1.32.93,2.59,1.92,3.8,2.98.6.53,1.39.89,1.73,1.63.36.72.63,1.52.54,2.63l-.22.18c-2.14-.25-3.01-1.22-3.8-2.98-.84-1.37-1.59-2.79-2.28-4.26,0,0,.22-.18.22-.18h0Z"/>
  </g>
  <polyline class="cls-3" points="106.29 78.48 99.98 74.51 97.65 81.58 91.84 76.91 88.71 83.67 83.48 78.37 79.59 84.72 75 78.86 70.41 84.72 66.53 78.37 61.29 83.67 58.16 76.91 52.35 81.57 50.02 74.5 43.72 78.47"/>
  <polyline class="cls-5" points="111.77 64.46 104.36 59.8 101.62 68.11 94.79 62.62 91.11 70.57 84.96 64.33 80.39 71.8 75 64.91 69.61 71.8 65.04 64.33 58.89 70.56 55.21 62.62 48.39 68.1 45.64 59.79 38.23 64.45"/>
  <path class="cls-4" d="M112.68,31.69l2.74-16.03H34.57l2.74,16.03c-5.39,2.94-8.12,12.43-4.91,20.21l14.29,34.62h0c0,2.4,12.67,4.33,28.3,4.33s28.3-1.94,28.3-4.33h0s14.29-34.62,14.29-34.62c3.21-7.78.48-17.27-4.91-20.21Z"/>
  <g>
    <path class="cls-2" d="M82.76,39.07c0,2.83-5.03,5.12-7.85,5.12s-7.8-2.29-7.8-5.12,4.97-5.12,7.8-5.12,7.85,2.29,7.85,5.12Z"/>
    <path class="cls-9" d="M64.2,43.14c6.08,2.36,12.61,3.7,18.75,1.11.94-.3,1.76-.8,2.73-1.11-4.89,7.45-16.32,6.8-21.48,0h0Z"/>
    <path class="cls-9" d="M75.18,49.86c.42,1.56.75,3.13.99,4.72.12.79.5,1.57.28,2.36-.19.79-.5,1.57-1.28,2.36h-.28c-1.47-1.57-1.52-2.88-.99-4.72.24-1.59.58-3.16.99-4.72,0,0,.28,0,.28,0h0Z"/>
    <path class="cls-9" d="M71.48,49.29c-.14,1.61-.36,3.2-.68,4.78-.16.78-.07,1.65-.54,2.32-.45.68-1,1.31-2.01,1.78l-.27-.1c-.85-1.98-.45-3.22.68-4.78.77-1.41,1.62-2.77,2.55-4.1,0,0,.27.1.27.1h0Z"/>
    <path class="cls-9" d="M68.19,47.49c-.68,1.46-1.44,2.88-2.28,4.26-.42.68-.63,1.52-1.3,1.99-.65.48-1.39.89-2.49.99l-.22-.18c-.12-2.15.68-3.18,2.28-4.26,1.2-1.06,2.47-2.05,3.8-2.98,0,0,.22.18.22.18h0Z"/>
    <path class="cls-9" d="M78.85,49.12c.92,1.32,1.78,2.69,2.55,4.1.38.7,1,1.31,1.07,2.12.09.8.07,1.65-.39,2.65,0,0-.27.1-.27.1-1.92-.97-2.41-2.18-2.55-4.1-.32-1.57-.54-3.17-.68-4.78,0,0,.27-.1.27-.1h0Z"/>
    <path class="cls-9" d="M82.05,47.18c1.32.93,2.59,1.92,3.8,2.98.6.53,1.39.89,1.73,1.63.36.72.63,1.52.54,2.63l-.22.18c-2.14-.25-3.01-1.22-3.8-2.98-.84-1.37-1.59-2.79-2.28-4.26,0,0,.22-.18.22-.18h0Z"/>
  </g>
  <g>
    <path class="cls-2" d="M45.72,38.32c0,2.41-2.62,4.36-4.09,4.36s-4.06-1.95-4.06-4.36,2.59-4.36,4.06-4.36,4.09,1.95,4.09,4.36Z"/>
    <path class="cls-9" d="M36.05,41.78c2.77,1.83,6.06,3.57,9.08,1.41.74-.4,1.35-.95,2.1-1.41-1.88,5.94-9.05,5.47-11.19,0h0Z"/>
    <path class="cls-9" d="M41.79,47.5c.33,1.99.85,4.03.85,6.04-.13.67-.33,1.34-.85,2.01,0,0-.19,0-.19,0-.98-1.28-1-2.58-.66-4.02.16-1.35.38-2.69.66-4.02,0,0,.19,0,.19,0h0Z"/>
    <path class="cls-9" d="M39.86,47c-.09,1.9-.01,4.02-.43,5.86-.26.6-.6,1.19-1.25,1.71,0,0-.18-.04-.18-.04-.69-1.41-.44-2.64.2-3.92.44-1.23.94-2.45,1.49-3.64,0,0,.18.04.18.04h0Z"/>
    <path class="cls-9" d="M38.16,45.45c-.42,1.47-.91,3.75-1.61,5.01-.38.46-.82.88-1.55,1.15l-.17-.09c-.37-1.41.1-2.42.99-3.38.67-.96,1.4-1.89,2.17-2.78,0,0,.17.09.17.09h0Z"/>
    <path class="cls-9" d="M43.71,46.9c.73,1.76,1.69,3.65,2.09,5.49.02.66-.04,1.33-.41,2.08l-.18.04c-1.22-.98-1.52-2.2-1.49-3.64-.13-1.3-.19-2.61-.2-3.92,0,0,.18-.04.18-.04h0Z"/>
    <path class="cls-9" d="M45.38,45.26c.95,1.2,2.51,2.93,3.13,4.24.15.57.23,1.18.03,1.93l-.17.09c-1.36-.52-1.9-1.49-2.17-2.78-.39-1.11-.72-2.24-.99-3.38,0,0,.17-.09.17-.09h0Z"/>
  </g>
  <g>
    <path class="cls-2" d="M112.42,38.32c0,2.41-2.62,4.36-4.09,4.36s-4.06-1.95-4.06-4.36,2.59-4.36,4.06-4.36,4.09,1.95,4.09,4.36Z"/>
    <path class="cls-9" d="M102.75,41.78c2.77,1.83,6.06,3.57,9.08,1.41.74-.4,1.35-.95,2.1-1.41-1.88,5.94-9.05,5.47-11.19,0h0Z"/>
    <path class="cls-9" d="M108.49,47.5c.33,1.99.85,4.03.85,6.04-.13.67-.33,1.34-.85,2.01h-.19c-.98-1.28-1-2.58-.66-4.02.16-1.35.38-2.69.66-4.02,0,0,.19,0,.19,0h0Z"/>
    <path class="cls-9" d="M106.57,47c-.09,1.91-.01,4.01-.43,5.86-.26.6-.6,1.19-1.25,1.71l-.18-.04c-.69-1.41-.44-2.64.2-3.92.44-1.23.94-2.45,1.49-3.64,0,0,.18.04.18.04h0Z"/>
    <path class="cls-9" d="M104.86,45.45c-.42,1.47-.91,3.75-1.61,5.01-.38.46-.82.88-1.55,1.15,0,0-.17-.09-.17-.09-.37-1.41.1-2.42.99-3.38.67-.96,1.4-1.89,2.17-2.78,0,0,.17.09.17.09h0Z"/>
    <path class="cls-9" d="M110.41,46.9c.73,1.76,1.69,3.65,2.09,5.49.02.66-.04,1.33-.41,2.08,0,0-.18.04-.18.04-1.22-.98-1.52-2.2-1.49-3.64-.13-1.3-.19-2.61-.2-3.92,0,0,.18-.04.18-.04h0Z"/>
    <path class="cls-9" d="M112.08,45.26c.95,1.2,2.51,2.93,3.13,4.24.15.57.23,1.18.03,1.93,0,0-.17.09-.17.09-1.36-.52-1.9-1.49-2.17-2.78-.39-1.11-.72-2.24-.99-3.38,0,0,.17-.09.17-.09h0Z"/>
  </g>
</svg>