<?xml version="1.0" encoding="UTF-8"?>
<svg id="Camada_1" data-name="Camada 1" xmlns="http://www.w3.org/2000/svg" viewBox="0 0 150 100">
  <defs>
    <style>
      .cls-1 {
        fill: #b46033;
      }

      .cls-2 {
        fill: none;
      }

      .cls-2, .cls-3 {
        stroke: #1d1d1b;
        stroke-linecap: round;
        stroke-linejoin: round;
        stroke-width: 1.42px;
      }

      .cls-4 {
        fill: #8d3e1c;
      }

      .cls-3 {
        fill: #1d1d1b;
      }
    </style>
  </defs>
  <path class="cls-1" d="M115.43,15.66H34.57v41.99c0,11.31,4.64,21.53,12.13,28.87,0,0,0,0,0,0,0,2.39,12.67,4.33,28.3,4.33s28.3-1.94,28.3-4.33c0,0,0,0,0,0,7.48-7.34,12.13-17.56,12.13-28.87V15.66Z"/>
  <path class="cls-4" d="M115.43,15.66h-13.48v41.99c0,11.31-4.64,21.53-12.13,28.87,0,0,0,0,0,0,0,2.04-9.19,3.74-21.56,4.2,2.16.08,4.42.12,6.74.12,15.63,0,28.3-1.94,28.3-4.33,0,0,0,0,0,0,7.48-7.34,12.13-17.56,12.13-28.87V15.66Z"/>
  <path class="cls-2" d="M115.43,15.66H34.57v41.99c0,11.31,4.64,21.53,12.13,28.87,0,0,0,0,0,0,0,2.39,12.67,4.33,28.3,4.33s28.3-1.94,28.3-4.33c0,0,0,0,0,0,7.48-7.34,12.13-17.56,12.13-28.87V15.66Z"/>
  <g>
    <g>
      <path class="cls-1" d="M34.63,15.66v7.64c-.04.11-.06.22-.06.32,0,3.41,18.1,6.18,40.43,6.18s40.43-2.77,40.43-6.18v-7.96H34.63Z"/>
      <ellipse class="cls-4" cx="75" cy="15.33" rx="40.43" ry="6.18"/>
    </g>
    <path class="cls-4" d="M101.95,19.94v3.68c0,3.06-14.57,5.6-33.69,6.1,2.19.06,4.44.09,6.74.09,22.33,0,40.43-2.77,40.43-6.18v-7.96h-.06c-.57,1.7-5.64,3.22-13.42,4.28Z"/>
  </g>
  <g>
    <path class="cls-2" d="M34.63,15.66v7.64c-.04.11-.06.22-.06.32,0,3.41,18.1,6.18,40.43,6.18s40.43-2.77,40.43-6.18v-7.96H34.63Z"/>
    <ellipse class="cls-3" cx="75" cy="15.33" rx="40.43" ry="6.18"/>
  </g>
</svg>