<?xml version="1.0" encoding="UTF-8"?>
<svg id="Camada_1" data-name="Camada 1" xmlns="http://www.w3.org/2000/svg" viewBox="0 0 150 100">
  <defs>
    <style>
      .cls-1 {
        fill: #48966c;
      }

      .cls-2 {
        fill: none;
      }

      .cls-2, .cls-3 {
        stroke: #1d1d1b;
        stroke-linecap: round;
        stroke-linejoin: round;
        stroke-width: 1.42px;
      }

      .cls-4 {
        fill: #b5a68c;
      }

      .cls-5 {
        fill: #a18dc2;
      }

      .cls-6 {
        fill: #8d3e1c;
      }

      .cls-7 {
        fill: #f4eee2;
      }

      .cls-3 {
        fill: #1d1d1b;
      }

      .cls-8 {
        fill: #6fbe95;
      }
    </style>
  </defs>
  <path class="cls-7" d="M115.43,15.66H34.57v41.99c0,11.31,4.64,21.53,12.13,28.87,0,0,0,0,0,0,0,2.39,12.67,4.33,28.3,4.33s28.3-1.94,28.3-4.33c0,0,0,0,0,0,7.48-7.34,12.13-17.56,12.13-28.87V15.66Z"/>
  <path class="cls-4" d="M115.43,15.66h-13.48v41.99c0,11.31-4.64,21.53-12.13,28.87,0,0,0,0,0,0,0,2.04-9.19,3.74-21.56,4.2,2.16.08,4.42.12,6.74.12,15.63,0,28.3-1.94,28.3-4.33,0,0,0,0,0,0,7.48-7.34,12.13-17.56,12.13-28.87V15.66Z"/>
  <g>
    <g>
      <path class="cls-7" d="M34.63,15.66v7.64c-.04.11-.06.22-.06.32,0,3.41,18.1,6.18,40.43,6.18s40.43-2.77,40.43-6.18v-7.96H34.63Z"/>
      <ellipse class="cls-6" cx="75" cy="15.33" rx="40.43" ry="6.18"/>
    </g>
    <path class="cls-4" d="M101.95,19.94v3.68c0,3.06-14.57,5.6-33.69,6.1,2.19.06,4.44.09,6.74.09,22.33,0,40.43-2.77,40.43-6.18v-7.96h-.06c-.57,1.7-5.64,3.22-13.42,4.28Z"/>
  </g>
  <g>
    <path class="cls-2" d="M34.63,15.66v7.64c-.04.11-.06.22-.06.32,0,3.41,18.1,6.18,40.43,6.18s40.43-2.77,40.43-6.18v-7.96H34.63Z"/>
    <ellipse class="cls-3" cx="75" cy="15.33" rx="40.43" ry="6.18"/>
  </g>
  <path class="cls-5" d="M46.7,86.52c0,2.39,12.67,4.33,28.3,4.33v-12.17c0-22.33-18.1-40.43-40.43-40.43h0v19.39c0,11.31,4.64,21.53,12.13,28.87,0,0,0,0,0,0Z"/>
  <path class="cls-8" d="M75,78.68v12.17h0c15.63,0,28.3-1.94,28.3-4.33,0,0,0,0,0,0,7.48-7.34,12.13-17.56,12.13-28.87v-19.39h0c-22.33,0-40.43,18.1-40.43,40.43Z"/>
  <path class="cls-1" d="M101.95,40.56v17.08c0,11.31-4.64,21.53-12.13,28.87,0,0,0,0,0,0,0,1.64-6,3.07-14.82,3.8v.52h0c8.3,0,15.77-.55,20.95-1.42.36-.06.71-.12,1.05-.19.73-.14,1.41-.28,2.03-.44.3-.07.59-.15.86-.22.44-.12.83-.25,1.19-.38,1.43-.52,2.22-1.09,2.22-1.68,0,0,0,0,0,0s0,0,0,0h0c.88-.86,1.72-1.77,2.52-2.71,3.34-3.93,5.93-8.5,7.58-13.51.14-.42.27-.84.39-1.27.24-.83.46-1.68.65-2.53.64-2.85.98-5.81.98-8.85v-19.39h0c-4.73,0-9.26.82-13.48,2.31Z"/>
  <path class="cls-2" d="M115.43,15.66H34.57v41.99c0,11.31,4.64,21.53,12.13,28.87,0,0,0,0,0,0,0,2.39,12.67,4.33,28.3,4.33s28.3-1.94,28.3-4.33c0,0,0,0,0,0,7.48-7.34,12.13-17.56,12.13-28.87V15.66Z"/>
</svg>