<?xml version="1.0" encoding="UTF-8"?>
<svg id="Camada_1" data-name="Camada 1" xmlns="http://www.w3.org/2000/svg" viewBox="0 0 150 100">
  <defs>
    <style>
      .cls-1 {
        fill: #638987;
      }

      .cls-2 {
        stroke-width: 1.26px;
      }

      .cls-2, .cls-3, .cls-4, .cls-5, .cls-6 {
        stroke: #1d1d1b;
      }

      .cls-2, .cls-3, .cls-4, .cls-5, .cls-6, .cls-7 {
        stroke-linecap: round;
      }

      .cls-2, .cls-3, .cls-5, .cls-7 {
        fill: none;
      }

      .cls-2, .cls-4, .cls-5, .cls-7 {
        stroke-miterlimit: 10;
      }

      .cls-8 {
        fill: #fec902;
      }

      .cls-3, .cls-6 {
        stroke-linejoin: round;
        stroke-width: 1.42px;
      }

      .cls-9 {
        fill: #449368;
      }

      .cls-4, .cls-5 {
        stroke-width: 1.38px;
      }

      .cls-4, .cls-6 {
        fill: #1d1d1b;
      }

      .cls-10 {
        fill: #8d3e1c;
      }

      .cls-11 {
        fill: #accecd;
      }

      .cls-7 {
        stroke: #fec902;
        stroke-width: 3.34px;
      }

      .cls-12 {
        fill: #6fbe95;
      }
    </style>
  </defs>
  <path class="cls-11" d="M115.43,15.66H34.57v41.99c0,11.31,4.64,21.53,12.13,28.87,0,0,0,0,0,0,0,2.39,12.67,4.33,28.3,4.33s28.3-1.94,28.3-4.33c0,0,0,0,0,0,7.48-7.34,12.13-17.56,12.13-28.87V15.66Z"/>
  <path class="cls-1" d="M115.43,15.66h-13.48v41.99c0,11.31-4.64,21.53-12.13,28.87,0,0,0,0,0,0,0,2.04-9.19,3.74-21.56,4.2,2.16.08,4.42.12,6.74.12,15.63,0,28.3-1.94,28.3-4.33,0,0,0,0,0,0,7.48-7.34,12.13-17.56,12.13-28.87V15.66Z"/>
  <g>
    <g>
      <path class="cls-11" d="M34.63,15.66v7.64c-.04.11-.06.22-.06.32,0,3.41,18.1,6.18,40.43,6.18s40.43-2.77,40.43-6.18v-7.96H34.63Z"/>
      <ellipse class="cls-10" cx="75" cy="15.33" rx="40.43" ry="6.18"/>
    </g>
    <path class="cls-1" d="M101.95,19.94v3.68c0,3.06-14.57,5.6-33.69,6.1,2.19.06,4.44.09,6.74.09,22.33,0,40.43-2.77,40.43-6.18v-7.96h-.06c-.57,1.7-5.64,3.22-13.42,4.28Z"/>
  </g>
  <g>
    <path class="cls-3" d="M34.63,15.66v7.64c-.04.11-.06.22-.06.32,0,3.41,18.1,6.18,40.43,6.18s40.43-2.77,40.43-6.18v-7.96H34.63Z"/>
    <ellipse class="cls-6" cx="75" cy="15.33" rx="40.43" ry="6.18"/>
  </g>
  <path class="cls-12" d="M75.77,64.26c-14.5,0-27.9,2.61-38.83,7.02,2.08,5.8,5.44,11,9.76,15.23,0,0,0,0,0,0,0,2.39,12.67,4.33,28.3,4.33s28.3-1.94,28.3-4.33c0,0,0,0,0,0,4.45-4.36,7.88-9.75,9.95-15.77-10.67-4.09-23.57-6.48-37.47-6.48Z"/>
  <path class="cls-9" d="M103.3,86.52s0,0,0,0c.52-.51,1.02-1.03,1.51-1.57.14-.15.28-.31.42-.47.35-.4.7-.8,1.04-1.21.14-.17.28-.34.41-.52.34-.43.67-.86.99-1.3.11-.15.22-.3.32-.44.37-.53.74-1.06,1.08-1.61.04-.06.08-.13.13-.19,1.66-2.63,3.02-5.46,4.05-8.46-3.86-1.48-8.02-2.72-12.4-3.73-1.79,7.53-5.68,14.26-11.02,19.5,0,0,0,0,0,0,0,2.04-9.19,3.74-21.56,4.2,1.05.04,2.12.07,3.22.09.06,0,.11,0,.17,0,1.1.02,2.22.03,3.35.03,1.47,0,2.9-.02,4.31-.05.47-.01.93-.02,1.39-.04.92-.03,1.83-.06,2.71-.11.44-.02.88-.04,1.31-.07,2.17-.12,4.21-.28,6.09-.48.75-.08,1.48-.16,2.18-.25,6.29-.79,10.3-2,10.3-3.34Z"/>
  <g>
    <g>
      <circle class="cls-8" cx="75" cy="56.71" r="16.67"/>
      <line class="cls-7" x1="75" y1="56.71" x2="75" y2="77.56"/>
      <line class="cls-7" x1="75" y1="56.71" x2="89.74" y2="71.45"/>
      <line class="cls-7" x1="75" y1="56.71" x2="95.85" y2="56.71"/>
      <line class="cls-7" x1="75" y1="56.71" x2="89.74" y2="41.97"/>
      <line class="cls-7" x1="75" y1="56.71" x2="75" y2="35.86"/>
      <line class="cls-7" x1="75" y1="56.71" x2="60.26" y2="41.97"/>
      <line class="cls-7" x1="75" y1="56.71" x2="54.15" y2="56.71"/>
      <line class="cls-7" x1="75" y1="56.71" x2="60.26" y2="71.45"/>
    </g>
    <path class="cls-2" d="M64.58,62.38h0c6.19,4.59,14.66,4.59,20.85,0h0"/>
    <circle class="cls-4" cx="69.56" cy="55.14" r="3.56"/>
    <circle class="cls-4" cx="80.44" cy="55.14" r="3.56"/>
    <path class="cls-5" d="M69.56,52.78h0c3.52-1.25,7.37-1.25,10.89,0h0"/>
    <line class="cls-5" x1="66" y1="51.59" x2="84" y2="51.59"/>
  </g>
  <path class="cls-3" d="M115.43,15.66H34.57v41.99c0,11.31,4.64,21.53,12.13,28.87,0,0,0,0,0,0,0,2.39,12.67,4.33,28.3,4.33s28.3-1.94,28.3-4.33c0,0,0,0,0,0,7.48-7.34,12.13-17.56,12.13-28.87V15.66Z"/>
</svg>