<?xml version="1.0" encoding="UTF-8"?>
<svg id="Camada_1" data-name="Camada 1" xmlns="http://www.w3.org/2000/svg" viewBox="0 0 150 100">
  <defs>
    <style>
      .cls-1 {
        fill: none;
      }

      .cls-1, .cls-2 {
        stroke: #1d1d1b;
        stroke-linecap: round;
        stroke-linejoin: round;
        stroke-width: 1.42px;
      }

      .cls-3 {
        fill: #22120a;
      }

      .cls-4 {
        fill: #fbbd4e;
      }

      .cls-2 {
        fill: #1d1d1b;
      }

      .cls-5 {
        fill: #c38117;
      }
    </style>
  </defs>
  <path class="cls-4" d="M34.57,15.66v11.06c0,11.31,4.65,21.52,12.13,28.86v30.95c0,2.39,12.67,4.33,28.3,4.33s28.3-1.94,28.3-4.33v-30.95c7.48-7.34,12.13-17.55,12.13-28.86v-11.06H34.57Z"/>
  <path class="cls-5" d="M34.57,15.66h0s67.38,0,67.38,0v11.06c0,11.31-4.65,21.52-12.13,28.86v30.95c0,2.03-9.17,3.74-21.53,4.2,2.15.08,4.4.12,6.71.12,15.63,0,28.3-1.94,28.3-4.33v-30.95c7.48-7.34,12.13-17.55,12.13-28.86v-11.06H34.57Z"/>
  <path class="cls-1" d="M34.57,15.66v11.06c0,11.31,4.65,21.52,12.13,28.86v30.95c0,2.39,12.67,4.33,28.3,4.33s28.3-1.94,28.3-4.33v-30.95c7.48-7.34,12.13-17.55,12.13-28.86v-11.06H34.57Z"/>
  <g>
    <g>
      <path class="cls-4" d="M34.63,15.66v7.64c-.04.11-.06.22-.06.32,0,3.41,18.1,6.18,40.43,6.18s40.43-2.77,40.43-6.18v-7.96H34.63Z"/>
      <ellipse class="cls-4" cx="75" cy="15.33" rx="40.43" ry="6.18"/>
    </g>
    <path class="cls-5" d="M101.95,19.94v3.68c0,3.06-14.57,5.6-33.69,6.1,2.19.06,4.44.09,6.74.09,22.33,0,40.43-2.77,40.43-6.18v-7.96h-.06c-.57,1.7-5.64,3.22-13.42,4.28Z"/>
  </g>
  <g>
    <path class="cls-1" d="M34.63,15.66v7.64c-.04.11-.06.22-.06.32,0,3.41,18.1,6.18,40.43,6.18s40.43-2.77,40.43-6.18v-7.96H34.63Z"/>
    <ellipse class="cls-2" cx="75" cy="15.33" rx="40.43" ry="6.18"/>
  </g>
  <g>
    <circle class="cls-3" cx="40.91" cy="35.17" r="3.33"/>
    <circle class="cls-3" cx="54.55" cy="35.17" r="3.33"/>
    <circle class="cls-3" cx="68.18" cy="35.17" r="3.33"/>
    <circle class="cls-3" cx="81.82" cy="35.17" r="3.33"/>
    <circle class="cls-3" cx="95.45" cy="35.17" r="3.33"/>
    <circle class="cls-3" cx="109.09" cy="35.17" r="3.33"/>
  </g>
  <g>
    <ellipse class="cls-3" cx="45.19" cy="45.84" rx="3.2" ry="3.33"/>
    <ellipse class="cls-3" cx="60.11" cy="45.84" rx="3.2" ry="3.33"/>
    <ellipse class="cls-3" cx="75.03" cy="45.84" rx="3.2" ry="3.33"/>
    <ellipse class="cls-3" cx="89.95" cy="45.84" rx="3.2" ry="3.33"/>
    <ellipse class="cls-3" cx="104.87" cy="45.84" rx="3.2" ry="3.33"/>
  </g>
  <g>
    <circle class="cls-3" cx="51.92" cy="56.5" r="3.33"/>
    <circle class="cls-3" cx="67.31" cy="56.5" r="3.33"/>
    <circle class="cls-3" cx="82.69" cy="56.5" r="3.33"/>
    <circle class="cls-3" cx="98.08" cy="56.5" r="3.33"/>
  </g>
  <g>
    <circle class="cls-3" cx="57.92" cy="67.17" r="3.33"/>
    <circle class="cls-3" cx="75" cy="67.17" r="3.33"/>
    <circle class="cls-3" cx="92.08" cy="67.17" r="3.33"/>
  </g>
  <g>
    <circle class="cls-3" cx="52.92" cy="77.84" r="3.33"/>
    <circle class="cls-3" cx="67.64" cy="77.84" r="3.33"/>
    <circle class="cls-3" cx="82.36" cy="77.84" r="3.33"/>
    <circle class="cls-3" cx="97.08" cy="77.84" r="3.33"/>
  </g>
</svg>