<?xml version="1.0" encoding="UTF-8"?>
<svg id="Camada_1" data-name="Camada 1" xmlns="http://www.w3.org/2000/svg" viewBox="0 0 150 100">
  <defs>
    <style>
      .cls-1 {
        stroke-width: 2.18px;
      }

      .cls-1, .cls-2, .cls-3, .cls-4, .cls-5 {
        fill: none;
      }

      .cls-1, .cls-3 {
        stroke: #ee8527;
      }

      .cls-1, .cls-3, .cls-4 {
        stroke-miterlimit: 10;
      }

      .cls-6 {
        fill: #567ba5;
      }

      .cls-2, .cls-4, .cls-7 {
        stroke: #1d1d1b;
        stroke-width: 1.42px;
      }

      .cls-2, .cls-5, .cls-7 {
        stroke-linecap: round;
        stroke-linejoin: round;
      }

      .cls-8 {
        fill: #b5a68c;
      }

      .cls-9 {
        fill: #395d7f;
      }

      .cls-10 {
        fill: #ee8527;
      }

      .cls-3 {
        stroke-width: 2.06px;
      }

      .cls-5 {
        stroke: #fbbd4e;
        stroke-width: .85px;
      }

      .cls-11 {
        fill: #8d3e1c;
      }

      .cls-12 {
        fill: #f4eee2;
      }

      .cls-13 {
        fill: #fbbd4e;
      }

      .cls-7 {
        fill: #1d1d1b;
      }

      .cls-14 {
        fill: #accecd;
      }
    </style>
  </defs>
  <path class="cls-12" d="M115.45,37.56V15.66H34.6v21.9c-7.41,4.71-12.34,12.98-12.34,22.42h0c0,13.93,10.73,25.34,24.37,26.45.03.03.06.06.09.09,0,0,0,0,0,0,0,2.39,12.67,4.33,28.3,4.33s28.3-1.94,28.3-4.33c0,0,0,0,0,0,.03-.03.06-.06.09-.09,13.64-1.1,24.37-12.52,24.37-26.45h0c0-9.43-4.92-17.71-12.34-22.42Z"/>
  <path class="cls-8" d="M115.45,37.56V15.66H34.6s67.38,0,67.38,0v21.9c7.41,4.71,12.34,12.98,12.34,22.42h0c0,13.93-10.73,25.34-24.37,26.45-.03.03-.06.06-.09.09,0,0,0,0,0,0,0,2.03-9.17,3.74-21.53,4.2,2.15.08,4.4.12,6.71.12,15.63,0,28.3-1.94,28.3-4.33,0,0,0,0,0,0,.03-.03.06-.06.09-.09,13.64-1.1,24.37-12.52,24.37-26.45h0c0-9.43-4.92-17.71-12.34-22.42Z"/>
  <path class="cls-6" d="M127.26,65.25c-1.6,4.2-24.38,7.53-52.24,7.53s-50.67-3.34-52.24-7.54l.97,3.53,1.14,2.59,1.39,2.5,2.75,3.82c5.24,3.14,23.84,5.46,45.99,5.46s40.74-2.32,45.98-5.45l2.26-2.86,2.27-4.16,1.25-3.48.47-1.94Z"/>
  <path class="cls-6" d="M34.65,22.73v13.89c-.04.11-.06.22-.06.32,0,3.41,18.1,6.18,40.43,6.18s40.43-2.77,40.43-6.18v-14.21H34.65Z"/>
  <path class="cls-9" d="M106.18,40.88c5.79-1.07,9.27-2.44,9.27-3.94v-14.21h-13.48v14.83c1.51.96,2.92,2.08,4.21,3.32Z"/>
  <path class="cls-9" d="M112.17,70.41c-1.97,4.6-5.19,8.52-9.25,11.35,8.78-.98,15.28-2.4,18.06-4.06.03-.04.07-.07.1-.11l1.95-2.46c.14-.2.27-.4.4-.61l2.08-3.81s.04-.08.05-.13l1.2-3.34c.02-.08.05-.17.07-.26l.38-1.57c.01-.05.02-.11.03-.16-.78,2-6.4,3.81-15.08,5.15Z"/>
  <g>
    <g>
      <path class="cls-12" d="M34.65,15.66v7.64c-.04.11-.06.22-.06.32,0,3.41,18.1,6.18,40.43,6.18s40.43-2.77,40.43-6.18v-7.96H34.65Z"/>
      <ellipse class="cls-11" cx="75.02" cy="15.33" rx="40.43" ry="6.18"/>
    </g>
    <path class="cls-8" d="M101.97,19.94v3.68c0,3.06-14.57,5.6-33.69,6.1,2.19.06,4.44.09,6.74.09,22.33,0,40.43-2.77,40.43-6.18v-7.96h-.06c-.57,1.7-5.64,3.22-13.42,4.28Z"/>
  </g>
  <g>
    <path class="cls-2" d="M34.65,15.66v7.64c-.04.11-.06.22-.06.32,0,3.41,18.1,6.18,40.43,6.18s40.43-2.77,40.43-6.18v-7.96H34.65Z"/>
    <ellipse class="cls-7" cx="75.02" cy="15.33" rx="40.43" ry="6.18"/>
  </g>
  <path class="cls-3" d="M26.45,45.93c3.48.35,2.91,6.14,6.39,6.49s4.06-5.45,7.54-5.1,2.91,6.14,6.39,6.49,4.06-5.45,7.54-5.1,2.91,6.14,6.4,6.49,4.06-5.45,7.55-5.1,3.18,6.51,6.69,6.51,3.2-6.16,6.68-6.5,4.06,5.45,7.55,5.1,2.91-6.14,6.4-6.49,4.06,5.45,7.55,5.1,2.91-6.14,6.4-6.49,4.07,5.45,7.56,5.1,2.91-6.14,6.41-6.49"/>
  <path class="cls-1" d="M22.5,58.63c3.77.36,3.2,6.33,6.97,6.69s4.33-5.62,8.1-5.26,3.2,6.33,6.97,6.69,4.33-5.62,8.1-5.26,3.2,6.33,6.97,6.69,4.34-5.62,8.1-5.26,3.47,6.7,7.26,6.7,3.49-6.34,7.25-6.7,4.33,5.62,8.1,5.26,3.2-6.33,6.97-6.69,4.34,5.62,8.11,5.26,3.2-6.33,6.97-6.69,4.34,5.62,8.11,5.26,3.21-6.33,6.98-6.69"/>
  <g>
    <path class="cls-4" d="M82.81,51.88c-.66,0-2.02.21-3.43.56-.55-1.96-2.32-3.4-4.45-3.4s-3.91,1.44-4.45,3.4c-1.41-.35-2.77-.56-3.43-.56-1.69,0-3.06,1.37-3.06,3.06s1.37,3.06,3.06,3.06c.74,0,2.34-.26,3.93-.69.07.23.15.47.23.7,0,0,0,0,0,0,.02.05.04.1.06.15.07.2.15.4.23.6.04.09.07.18.11.26.11.26.22.51.34.75.01.02.02.04.03.06,0,0,0,0,0,0,.8,1.62,1.84,2.87,2.96,2.87s2.16-1.25,2.96-2.87c0,0,0,0,0,0,.01-.02.02-.04.03-.06.12-.24.23-.49.34-.75.04-.09.07-.17.11-.26.08-.2.16-.4.23-.6.02-.05.04-.1.06-.15,0,0,0,0,0,0,.08-.23.16-.47.23-.7,1.58.43,3.19.69,3.93.69,1.69,0,3.06-1.37,3.06-3.06s-1.37-3.06-3.06-3.06Z"/>
    <g>
      <line class="cls-5" x1="74.92" y1="62.27" x2="71.93" y2="46.53"/>
      <line class="cls-5" x1="74.92" y1="62.27" x2="77.92" y2="46.53"/>
      <g>
        <path class="cls-13" d="M79.57,53.68c0,2.56-2.08,9.02-4.64,9.02s-4.64-6.46-4.64-9.02,2.08-4.64,4.64-4.64,4.64,2.08,4.64,4.64Z"/>
        <path class="cls-10" d="M74.92,59.67c-1.53,0-2.89-.65-3.73-1.66.22.63.48,1.25.77,1.83.75.78,1.8,1.27,2.96,1.27s2.22-.49,2.96-1.27c.29-.58.54-1.2.77-1.83-.85,1.01-2.2,1.66-3.73,1.66Z"/>
        <path class="cls-10" d="M74.92,56.34c-1.85,0-3.5-.74-4.6-1.91.05.45.14.95.26,1.48.95,1.37,2.54,2.27,4.34,2.27s3.38-.9,4.34-2.27c.12-.53.21-1.04.26-1.48-1.1,1.16-2.75,1.91-4.6,1.91Z"/>
        <path class="cls-14" d="M75.04,54.94c0,1.69-6.31,3.06-8,3.06s-3.06-1.37-3.06-3.06,1.37-3.06,3.06-3.06,8,1.37,8,3.06Z"/>
        <path class="cls-14" d="M74.81,54.94c0-1.69,6.31-3.06,8-3.06s3.06,1.37,3.06,3.06-1.37,3.06-3.06,3.06-8-1.37-8-3.06Z"/>
      </g>
    </g>
  </g>
  <path class="cls-2" d="M115.45,37.56V15.66H34.6v21.9c-7.41,4.71-12.34,12.98-12.34,22.42h0c0,13.93,10.73,25.34,24.37,26.45.03.03.06.06.09.09,0,0,0,0,0,0,0,2.39,12.67,4.33,28.3,4.33s28.3-1.94,28.3-4.33c0,0,0,0,0,0,.03-.03.06-.06.09-.09,13.64-1.1,24.37-12.52,24.37-26.45h0c0-9.43-4.92-17.71-12.34-22.42Z"/>
</svg>