<?xml version="1.0" encoding="UTF-8"?>
<svg id="Camada_1" data-name="Camada 1" xmlns="http://www.w3.org/2000/svg" xmlns:xlink="http://www.w3.org/1999/xlink" viewBox="0 0 150 100">
  <defs>
    <style>
      .cls-1 {
        fill: url(#Gradiente_sem_nome_66);
      }

      .cls-1, .cls-2, .cls-3 {
        stroke: #1d1d1b;
        stroke-linecap: round;
        stroke-linejoin: round;
        stroke-width: 1.42px;
      }

      .cls-2 {
        fill: url(#Gradiente_sem_nome_4);
      }

      .cls-3 {
        fill: #8da627;
      }
    </style>
    <linearGradient id="Gradiente_sem_nome_66" data-name="Gradiente sem nome 66" x1="101.72" y1="32.84" x2="101.72" y2="64.81" gradientUnits="userSpaceOnUse">
      <stop offset="0" stop-color="#8da626"/>
      <stop offset=".26" stop-color="#8fa725"/>
      <stop offset=".42" stop-color="#98ac23"/>
      <stop offset=".56" stop-color="#a7b520"/>
      <stop offset=".68" stop-color="#bbc21c"/>
      <stop offset=".8" stop-color="#d6d317"/>
      <stop offset=".9" stop-color="#f7e710"/>
      <stop offset=".92" stop-color="#fcea10"/>
    </linearGradient>
    <linearGradient id="Gradiente_sem_nome_4" data-name="Gradiente sem nome 4" x1="56.14" y1="49.35" x2="54.95" y2="82.5" gradientUnits="userSpaceOnUse">
      <stop offset="0" stop-color="#8da626"/>
      <stop offset=".26" stop-color="#8fa725"/>
      <stop offset=".42" stop-color="#98ac23"/>
      <stop offset=".56" stop-color="#a7b520"/>
      <stop offset=".68" stop-color="#bbc21c"/>
      <stop offset=".8" stop-color="#d6d317"/>
      <stop offset=".9" stop-color="#f7e710"/>
      <stop offset=".92" stop-color="#fcea10"/>
    </linearGradient>
  </defs>
  <path class="cls-3" d="M80.38,0c.27,51.3.46,90.24.46,97.65h-10.4S70.5,56.46,70.62,0"/>
  <path class="cls-1" d="M79.24,45.32s9.05-15.88,19.8-11.81,10.08,8.11,21.85,11.81,0,19.49,0,19.49c0,0,1.34-7.06-11.09-9.07-12.44-2.02-9.07,1.92-23.53,2.98-14.45,1.05-7.03-13.4-7.03-13.4Z"/>
  <path class="cls-2" d="M69.16,63.03s-14.4-1.92-15.36,4.8-.64,13.12,0,16-19.2-11.39-13.76-21.69,9.6-17.02,19.52-16.7c9.92.32,11.52,3.52,12.48,9.92s-1.28,7.68-2.88,7.68Z"/>
</svg>