<?xml version="1.0" encoding="UTF-8"?>
<svg id="Camada_1" data-name="Camada 1" xmlns="http://www.w3.org/2000/svg" xmlns:xlink="http://www.w3.org/1999/xlink" viewBox="0 0 150 100">
  <defs>
    <style>
      .cls-1, .cls-2 {
        fill: #8da627;
      }

      .cls-2, .cls-3, .cls-4 {
        stroke: #1d1d1b;
        stroke-linecap: round;
        stroke-linejoin: round;
        stroke-width: 1.42px;
      }

      .cls-3 {
        fill: url(#Gradiente_sem_nome_3);
      }

      .cls-4 {
        fill: url(#Gradiente_sem_nome_3-2);
      }
    </style>
    <linearGradient id="Gradiente_sem_nome_3" data-name="Gradiente sem nome 3" x1="92.94" y1="30.76" x2="90.2" y2="53.44" gradientUnits="userSpaceOnUse">
      <stop offset="0" stop-color="#8da626"/>
      <stop offset=".26" stop-color="#8fa725"/>
      <stop offset=".42" stop-color="#98ac23"/>
      <stop offset=".56" stop-color="#a7b520"/>
      <stop offset=".68" stop-color="#bbc21c"/>
      <stop offset=".8" stop-color="#d6d317"/>
      <stop offset=".9" stop-color="#f7e710"/>
      <stop offset=".92" stop-color="#fcea10"/>
    </linearGradient>
    <linearGradient id="Gradiente_sem_nome_3-2" data-name="Gradiente sem nome 3" x1="62.69" y1="22.77" x2="58.24" y2="59.45" xlink:href="#Gradiente_sem_nome_3"/>
  </defs>
  <path class="cls-3" d="M82.55,24.46s6.42-1.47,13.88,5.77,4.34,11.2,8.34,15.22,0,11.89,0,11.89c0,0-2.91-7.25-10.57-10s-16.97-8.09-17.42-14.31,5.77-8.57,5.77-8.57Z"/>
  <polygon class="cls-1" points="70.94 100 79.77 100 79.03 0 71.44 0 70.94 100"/>
  <path class="cls-2" d="M79.22,0c.2,31.22.4,65.78.6,100"/>
  <path class="cls-2" d="M70.89,100c.11-34.18.23-68.73.38-99.94"/>
  <path class="cls-4" d="M49.21,61.45s12.06,4.44,14.82-6.19-3.11-14.81,2.67-17.48c8.37-3.86,13.53-21.59,2.84-22.94s-20.52,1.91-20.64,16.57,6.62,17.45,5.5,22.67-5.19,7.38-5.19,7.38Z"/>
</svg>