<?xml version="1.0" encoding="UTF-8"?>
<svg id="Camada_1" data-name="Camada 1" xmlns="http://www.w3.org/2000/svg" xmlns:xlink="http://www.w3.org/1999/xlink" viewBox="0 0 150 100">
  <defs>
    <style>
      .cls-1 {
        fill: url(#Gradiente_sem_nome_17-3);
      }

      .cls-1, .cls-2, .cls-3, .cls-4, .cls-5, .cls-6, .cls-7, .cls-8, .cls-9, .cls-10, .cls-11, .cls-12, .cls-13, .cls-14, .cls-15, .cls-16, .cls-17, .cls-18, .cls-19 {
        stroke: #1d1d1b;
        stroke-linecap: round;
        stroke-linejoin: round;
        stroke-width: 1.42px;
      }

      .cls-2 {
        fill: url(#Gradiente_sem_nome_17-6);
      }

      .cls-3 {
        fill: url(#Gradiente_sem_nome_17-14);
      }

      .cls-4 {
        fill: url(#Gradiente_sem_nome_17-17);
      }

      .cls-5 {
        fill: url(#Gradiente_sem_nome_17-13);
      }

      .cls-6 {
        fill: url(#Gradiente_sem_nome_17-5);
      }

      .cls-7 {
        fill: url(#Gradiente_sem_nome_17-11);
      }

      .cls-8 {
        fill: url(#Gradiente_sem_nome_17-16);
      }

      .cls-9 {
        fill: url(#Gradiente_sem_nome_17-8);
      }

      .cls-10 {
        fill: url(#Gradiente_sem_nome_17);
      }

      .cls-11 {
        fill: url(#Gradiente_sem_nome_17-9);
      }

      .cls-12 {
        fill: url(#Gradiente_sem_nome_17-15);
      }

      .cls-13 {
        fill: url(#Gradiente_sem_nome_17-12);
      }

      .cls-14 {
        fill: #8da627;
      }

      .cls-15 {
        fill: url(#Gradiente_sem_nome_17-4);
      }

      .cls-16 {
        fill: url(#Gradiente_sem_nome_17-2);
      }

      .cls-17 {
        fill: url(#Gradiente_sem_nome_17-7);
      }

      .cls-18 {
        fill: url(#Gradiente_sem_nome_17-10);
      }

      .cls-19 {
        fill: #2f2a16;
      }
    </style>
    <radialGradient id="Gradiente_sem_nome_17" data-name="Gradiente sem nome 17" cx="67.49" cy="38.98" fx="67.49" fy="38.98" r="12" gradientUnits="userSpaceOnUse">
      <stop offset="0" stop-color="#f9c745"/>
      <stop offset=".33" stop-color="#f9c841"/>
      <stop offset=".57" stop-color="#f9cf38"/>
      <stop offset=".79" stop-color="#fad928"/>
      <stop offset=".99" stop-color="#fbe811"/>
      <stop offset="1" stop-color="#fcea10"/>
    </radialGradient>
    <radialGradient id="Gradiente_sem_nome_17-2" data-name="Gradiente sem nome 17" cx="97.03" cy="48.54" fx="97.03" fy="48.54" r="12.29" xlink:href="#Gradiente_sem_nome_17"/>
    <radialGradient id="Gradiente_sem_nome_17-3" data-name="Gradiente sem nome 17" cx="93.77" cy="64.54" fx="93.77" fy="64.54" r="8.56" xlink:href="#Gradiente_sem_nome_17"/>
    <radialGradient id="Gradiente_sem_nome_17-4" data-name="Gradiente sem nome 17" cx="97.03" cy="56.04" fx="97.03" fy="56.04" r="10.06" xlink:href="#Gradiente_sem_nome_17"/>
    <radialGradient id="Gradiente_sem_nome_17-5" data-name="Gradiente sem nome 17" cx="53.03" cy="53.79" fx="53.03" fy="53.79" r="10.52" xlink:href="#Gradiente_sem_nome_17"/>
    <radialGradient id="Gradiente_sem_nome_17-6" data-name="Gradiente sem nome 17" cx="70.95" cy="79.29" fx="70.95" fy="79.29" r="8.56" xlink:href="#Gradiente_sem_nome_17"/>
    <radialGradient id="Gradiente_sem_nome_17-7" data-name="Gradiente sem nome 17" cx="83.46" cy="41.3" fx="83.46" fy="41.3" r="11.87" xlink:href="#Gradiente_sem_nome_17"/>
    <radialGradient id="Gradiente_sem_nome_17-8" data-name="Gradiente sem nome 17" cx="52.77" cy="62.85" fx="52.77" fy="62.85" r="11.83" xlink:href="#Gradiente_sem_nome_17"/>
    <radialGradient id="Gradiente_sem_nome_17-9" data-name="Gradiente sem nome 17" cx="87.09" cy="75.08" fx="87.09" fy="75.08" r="6.78" xlink:href="#Gradiente_sem_nome_17"/>
    <radialGradient id="Gradiente_sem_nome_17-10" data-name="Gradiente sem nome 17" cx="62.05" cy="71.84" fx="62.05" fy="71.84" r="8.76" xlink:href="#Gradiente_sem_nome_17"/>
    <radialGradient id="Gradiente_sem_nome_17-11" data-name="Gradiente sem nome 17" cx="64.52" cy="76.81" fx="64.52" fy="76.81" r="6.98" xlink:href="#Gradiente_sem_nome_17"/>
    <radialGradient id="Gradiente_sem_nome_17-12" data-name="Gradiente sem nome 17" cx="56.33" cy="45.6" fx="56.33" fy="45.6" r="12.1" xlink:href="#Gradiente_sem_nome_17"/>
    <radialGradient id="Gradiente_sem_nome_17-13" data-name="Gradiente sem nome 17" cx="74.98" cy="36.24" fx="74.98" fy="36.24" r="12.09" xlink:href="#Gradiente_sem_nome_17"/>
    <radialGradient id="Gradiente_sem_nome_17-14" data-name="Gradiente sem nome 17" cx="96.32" cy="68.87" fx="96.32" fy="68.87" r="11.84" xlink:href="#Gradiente_sem_nome_17"/>
    <radialGradient id="Gradiente_sem_nome_17-15" data-name="Gradiente sem nome 17" cx="91.27" cy="44.96" fx="91.27" fy="44.96" r="11.68" xlink:href="#Gradiente_sem_nome_17"/>
    <radialGradient id="Gradiente_sem_nome_17-16" data-name="Gradiente sem nome 17" cx="53.27" cy="66.95" fx="53.27" fy="66.95" r="11.65" xlink:href="#Gradiente_sem_nome_17"/>
    <radialGradient id="Gradiente_sem_nome_17-17" data-name="Gradiente sem nome 17" cx="78.06" cy="79.29" fx="78.06" fy="79.29" r="8.39" xlink:href="#Gradiente_sem_nome_17"/>
  </defs>
  <path class="cls-14" d="M72,100c.15-10.78.31-17.27.48-18.15,1.47-7.37,5.4-3.97,5.8,0,.05.5.13,7.04.23,18.15"/>
  <path class="cls-10" d="M59.76,24.8s-6.94,20.81,7.96,28.35l8.9-4.11s1.31-6.49-2.85-10.35c-4.15-3.86-13.02-12.29-14.01-13.89Z"/>
  <path class="cls-16" d="M111.65,39.16s-12.4.74-18.68,5.03-9.33,6.51-10.24,9.02c-.92,2.52.11,5.34,2.91,4.6,2.8-.74,12.76-2.84,18.29-6.77,5.53-3.94,7.72-11.87,7.72-11.87Z"/>
  <path class="cls-1" d="M104.91,61.3s-2.29,6.63-10.59,7.63c-8.29,1-11.5-.49-11.66-1.05-.17-.56.59-5.36,2.28-7.12,1.69-1.76,11.15-.53,11.15-.53l8.82,1.07Z"/>
  <path class="cls-15" d="M109.82,49.83s-1,9.22-13.23,11.69c-12.24,2.47-12.35-2.08-12.35-2.08,0,0,.47-5.44,7.8-7.64,7.33-2.19,7.75-.13,17.79-1.98Z"/>
  <path class="cls-6" d="M39.47,52.33s5.48-7.49,17.31-3.51,9.66,7.98,9.66,7.98c0,0-3.13,4.48-10.57,2.71s-6.78-3.76-16.39-7.18Z"/>
  <path class="cls-2" d="M74.19,90.43s-6.63-2.29-7.63-10.59c-1-8.29.49-11.5,1.05-11.66s5.36.59,7.12,2.28c1.76,1.69.53,11.15.53,11.15l-1.07,8.82Z"/>
  <path class="cls-17" d="M93.1,27.67s-8.79-1.65-14.08,7.5c-5.29,9.15-5.97,13.83-4.57,15.96,1.4,2.12,4.98,4.44,6.55,3.8s10.72-7.81,12.09-27.25Z"/>
  <path class="cls-9" d="M37.48,61.22s2.96,8.44,13.53,8.44c10.57,0,14.96-1.75,16.1-4.02,1.14-2.27,1.36-6.54.01-7.58-1.35-1.04-12.13-5.38-29.65,3.15Z"/>
  <path class="cls-11" d="M94.05,80.89s1.71-6.73-7.75-11.14c-9.46-4.41-5.79,5.42-4.58,7.61,1.21,2.19,4.21,5.63,12.33,3.53Z"/>
  <path class="cls-18" d="M53.57,79.93s-1.26-11.42,11.73-17.08l5.26,7.27s-1.34,3.97-4.03,6.75c-2.69,2.78-9.08,5.43-12.96,3.06Z"/>
  <path class="cls-7" d="M61.3,84.97s6.94-.21,8.57-10.52-6.8-4.07-8.57-2.3c-1.77,1.77-4.25,5.6,0,12.82Z"/>
  <path class="cls-13" d="M43.17,34.71s4.82,11.12,10.84,15.45c6.02,4.32,9.08,6.38,11.69,6.38s4.86-1.88,3.24-4.2c-1.61-2.32-6.86-10.75-12.31-14.51-5.46-3.76-13.46-3.12-13.46-3.12Z"/>
  <path class="cls-5" d="M77.77,20.59s-8.93,10.02-9.37,15.25c-.44,5.23-1.25,12.2,3.84,14.82,5.09,2.61,7.07.21,7.5.42s5.65-18.07-1.97-30.49Z"/>
  <path class="cls-3" d="M110.63,77.08s-6.21-11.53-10.86-13.68c-4.65-2.14-10.77-5.22-14.86-1.42-4.1,3.79-2.55,6.41-2.89,6.73s14.68,11.21,28.61,8.36Z"/>
  <path class="cls-12" d="M102.14,32.53s-15.58,1.27-20.38,14.72c-4.79,13.45,4.49,9.65,4.49,9.65,0,0,7.59-3.7,10.59-9.19,3-5.49,5.49-14.28,5.29-15.18Z"/>
  <path class="cls-8" d="M38.77,72.86s14,6.04,24.29-3.35c10.29-9.39.55-10.37.55-10.37,0,0-8.23-.29-13.33,3.07-5.1,3.36-11.27,9.79-11.51,10.65Z"/>
  <path class="cls-4" d="M80.49,89.1s-10.52-4.62-8.93-18.7l8.93-.91s2.76,3.15,3.83,6.87c1.06,3.72.16,10.57-3.83,12.75Z"/>
  <ellipse class="cls-19" cx="75.14" cy="57" rx="21.1" ry="18.77"/>
</svg>